solid sphere 
facet normal  0.146978E+00  0.437754E-01 -0.988171E+00
 outer loop
  vertex  0.600648E+02  0.582387E+02  0.589680E+01
  vertex  0.610294E+02  0.550000E+02  0.589680E+01
  vertex  0.550000E+02  0.550000E+02  0.500000E+01
 endloop
endfacet
facet normal  0.101186E+00  0.115379E+00 -0.988154E+00
 outer loop
  vertex  0.575270E+02  0.604644E+02  0.589680E+01
  vertex  0.600649E+02  0.582387E+02  0.589680E+01
  vertex  0.550000E+02  0.550000E+02  0.500000E+01
 endloop
endfacet
facet normal  0.208742E-01  0.152508E+00 -0.988082E+00
 outer loop
  vertex  0.541319E+02  0.609291E+02  0.589680E+01
  vertex  0.575270E+02  0.604644E+02  0.589680E+01
  vertex  0.550000E+02  0.550000E+02  0.500000E+01
 endloop
endfacet
facet normal -0.171880E+00  0.171880E+00  0.970007E+00
 outer loop
  vertex  0.550000E+02  0.550000E+02  0.500000E+01
  vertex  0.549999E+02  0.549999E+02  0.500000E+01
  vertex  0.541319E+02  0.490708E+02  0.589680E+01
 endloop
endfacet
facet normal  0.110832E+00 -0.110832E+00 -0.987640E+00
 outer loop
  vertex  0.549999E+02  0.549999E+02  0.500000E+01
  vertex  0.550000E+02  0.550000E+02  0.500000E+01
  vertex  0.575270E+02  0.495355E+02  0.589680E+01
 endloop
endfacet
facet normal  0.208696E-01 -0.152507E+00 -0.988082E+00
 outer loop
  vertex  0.575270E+02  0.495354E+02  0.589680E+01
  vertex  0.541319E+02  0.490708E+02  0.589680E+01
  vertex  0.549999E+02  0.549999E+02  0.500000E+01
 endloop
endfacet
facet normal -0.106762E+00  0.106762E+00  0.988536E+00
 outer loop
  vertex  0.550000E+02  0.550000E+02  0.500000E+01
  vertex  0.549999E+02  0.549999E+02  0.500000E+01
  vertex  0.600649E+02  0.517612E+02  0.589680E+01
 endloop
endfacet
facet normal  0.101184E+00 -0.115378E+00 -0.988155E+00
 outer loop
  vertex  0.600648E+02  0.517611E+02  0.589680E+01
  vertex  0.575270E+02  0.495355E+02  0.589680E+01
  vertex  0.550000E+02  0.550000E+02  0.500000E+01
 endloop
endfacet
facet normal  0.145553E+00 -0.145553E+00 -0.978585E+00
 outer loop
  vertex  0.549999E+02  0.549999E+02  0.500000E+01
  vertex  0.550000E+02  0.550000E+02  0.500000E+01
  vertex  0.610294E+02  0.550000E+02  0.589680E+01
 endloop
endfacet
facet normal  0.146979E+00 -0.437652E-01 -0.988171E+00
 outer loop
  vertex  0.610293E+02  0.550000E+02  0.589680E+01
  vertex  0.600649E+02  0.517612E+02  0.589680E+01
  vertex  0.549999E+02  0.549999E+02  0.500000E+01
 endloop
endfacet
facet normal  0.425304E+00  0.126658E+00 -0.896144E+00
 outer loop
  vertex  0.610294E+02  0.550000E+02  0.589680E+01
  vertex  0.600649E+02  0.582387E+02  0.589680E+01
  vertex  0.644555E+02  0.610713E+02  0.838090E+01
 endloop
endfacet
facet normal  0.424957E+00  0.126907E+00 -0.896274E+00
 outer loop
  vertex  0.644554E+02  0.610713E+02  0.838090E+01
  vertex  0.662685E+02  0.550000E+02  0.838090E+01
  vertex  0.610293E+02  0.550000E+02  0.589680E+01
 endloop
endfacet
facet normal  0.291905E+00  0.332850E+00 -0.896662E+00
 outer loop
  vertex  0.600649E+02  0.582387E+02  0.589680E+01
  vertex  0.575270E+02  0.604644E+02  0.589680E+01
  vertex  0.597081E+02  0.652435E+02  0.838090E+01
 endloop
endfacet
facet normal  0.292483E+00  0.332821E+00 -0.896484E+00
 outer loop
  vertex  0.597080E+02  0.652434E+02  0.838090E+01
  vertex  0.644555E+02  0.610713E+02  0.838090E+01
  vertex  0.600648E+02  0.582387E+02  0.589680E+01
 endloop
endfacet
facet normal  0.599893E-01  0.438283E+00 -0.896833E+00
 outer loop
  vertex  0.575270E+02  0.604644E+02  0.589680E+01
  vertex  0.541319E+02  0.609291E+02  0.589680E+01
  vertex  0.533835E+02  0.661146E+02  0.838090E+01
 endloop
endfacet
facet normal  0.603975E-01  0.438521E+00 -0.896689E+00
 outer loop
  vertex  0.533834E+02  0.661146E+02  0.838090E+01
  vertex  0.597081E+02  0.652435E+02  0.838090E+01
  vertex  0.575270E+02  0.604644E+02  0.589680E+01
 endloop
endfacet
facet normal  0.600409E-01 -0.438660E+00 -0.896645E+00
 outer loop
  vertex  0.541319E+02  0.490708E+02  0.589680E+01
  vertex  0.575270E+02  0.495355E+02  0.589680E+01
  vertex  0.597081E+02  0.447564E+02  0.838090E+01
 endloop
endfacet
facet normal  0.603715E-01 -0.438318E+00 -0.896790E+00
 outer loop
  vertex  0.597080E+02  0.447564E+02  0.838090E+01
  vertex  0.533835E+02  0.438853E+02  0.838090E+01
  vertex  0.541319E+02  0.490708E+02  0.589680E+01
 endloop
endfacet
facet normal  0.292214E+00 -0.333203E+00 -0.896430E+00
 outer loop
  vertex  0.575270E+02  0.495355E+02  0.589680E+01
  vertex  0.600649E+02  0.517612E+02  0.589680E+01
  vertex  0.644555E+02  0.489286E+02  0.838090E+01
 endloop
endfacet
facet normal  0.292335E+00 -0.332631E+00 -0.896603E+00
 outer loop
  vertex  0.644554E+02  0.489286E+02  0.838090E+01
  vertex  0.597081E+02  0.447564E+02  0.838090E+01
  vertex  0.575270E+02  0.495354E+02  0.589680E+01
 endloop
endfacet
facet normal  0.424982E+00 -0.126558E+00 -0.896311E+00
 outer loop
  vertex  0.600649E+02  0.517612E+02  0.589680E+01
  vertex  0.610294E+02  0.550000E+02  0.589680E+01
  vertex  0.662685E+02  0.550000E+02  0.838090E+01
 endloop
endfacet
facet normal  0.425132E+00 -0.126950E+00 -0.896184E+00
 outer loop
  vertex  0.662685E+02  0.550000E+02  0.838090E+01
  vertex  0.644555E+02  0.489286E+02  0.838090E+01
  vertex  0.600648E+02  0.517611E+02  0.589680E+01
 endloop
endfacet
facet normal  0.654949E+00  0.195580E+00 -0.729925E+00
 outer loop
  vertex  0.662685E+02  0.550000E+02  0.838090E+01
  vertex  0.644555E+02  0.610713E+02  0.838090E+01
  vertex  0.679673E+02  0.633517E+02  0.121430E+02
 endloop
endfacet
facet normal  0.654472E+00  0.195833E+00 -0.730285E+00
 outer loop
  vertex  0.679673E+02  0.633516E+02  0.121429E+02
  vertex  0.704664E+02  0.550000E+02  0.121430E+02
  vertex  0.662685E+02  0.550000E+02  0.838090E+01
 endloop
endfacet
facet normal  0.449997E+00  0.512036E+00 -0.731657E+00
 outer loop
  vertex  0.644555E+02  0.610713E+02  0.838090E+01
  vertex  0.597081E+02  0.652435E+02  0.838090E+01
  vertex  0.614469E+02  0.690911E+02  0.121430E+02
 endloop
endfacet
facet normal  0.450747E+00  0.512078E+00 -0.731166E+00
 outer loop
  vertex  0.614468E+02  0.690911E+02  0.121429E+02
  vertex  0.679673E+02  0.633517E+02  0.121430E+02
  vertex  0.644554E+02  0.610713E+02  0.838090E+01
 endloop
endfacet
facet normal  0.928077E-01  0.673827E+00 -0.733037E+00
 outer loop
  vertex  0.597081E+02  0.652435E+02  0.838090E+01
  vertex  0.533835E+02  0.661146E+02  0.838090E+01
  vertex  0.527873E+02  0.702894E+02  0.121430E+02
 endloop
endfacet
facet normal  0.932928E-01  0.674185E+00 -0.732647E+00
 outer loop
  vertex  0.527873E+02  0.702893E+02  0.121429E+02
  vertex  0.614469E+02  0.690911E+02  0.121430E+02
  vertex  0.597080E+02  0.652434E+02  0.838090E+01
 endloop
endfacet
facet normal  0.928759E-01 -0.674322E+00 -0.732574E+00
 outer loop
  vertex  0.533835E+02  0.438853E+02  0.838090E+01
  vertex  0.597081E+02  0.447564E+02  0.838090E+01
  vertex  0.614469E+02  0.409088E+02  0.121430E+02
 endloop
endfacet
facet normal  0.932298E-01 -0.673841E+00 -0.732971E+00
 outer loop
  vertex  0.614468E+02  0.409087E+02  0.121429E+02
  vertex  0.527873E+02  0.397105E+02  0.121430E+02
  vertex  0.533834E+02  0.438852E+02  0.838090E+01
 endloop
endfacet
facet normal  0.450402E+00 -0.512496E+00 -0.731086E+00
 outer loop
  vertex  0.597081E+02  0.447564E+02  0.838090E+01
  vertex  0.644555E+02  0.489286E+02  0.838090E+01
  vertex  0.679673E+02  0.466482E+02  0.121430E+02
 endloop
endfacet
facet normal  0.450443E+00 -0.511750E+00 -0.731583E+00
 outer loop
  vertex  0.679673E+02  0.466482E+02  0.121429E+02
  vertex  0.614469E+02  0.409088E+02  0.121430E+02
  vertex  0.597080E+02  0.447564E+02  0.838090E+01
 endloop
endfacet
facet normal  0.654523E+00 -0.195449E+00 -0.730342E+00
 outer loop
  vertex  0.644555E+02  0.489286E+02  0.838090E+01
  vertex  0.662685E+02  0.550000E+02  0.838090E+01
  vertex  0.704664E+02  0.550000E+02  0.121430E+02
 endloop
endfacet
facet normal  0.654770E+00 -0.195935E+00 -0.729990E+00
 outer loop
  vertex  0.704664E+02  0.550000E+02  0.121429E+02
  vertex  0.679673E+02  0.466482E+02  0.121430E+02
  vertex  0.644554E+02  0.489286E+02  0.838090E+01
 endloop
endfacet
facet normal  0.825831E+00  0.247116E+00 -0.506889E+00
 outer loop
  vertex  0.704664E+02  0.550000E+02  0.121430E+02
  vertex  0.679673E+02  0.633517E+02  0.121430E+02
  vertex  0.703968E+02  0.649351E+02  0.168731E+02
 endloop
endfacet
facet normal  0.825501E+00  0.247334E+00 -0.507321E+00
 outer loop
  vertex  0.703967E+02  0.649350E+02  0.168731E+02
  vertex  0.733734E+02  0.550000E+02  0.168731E+02
  vertex  0.704664E+02  0.550000E+02  0.121429E+02
 endloop
endfacet
facet normal  0.568642E+00  0.646021E+00 -0.509219E+00
 outer loop
  vertex  0.679673E+02  0.633517E+02  0.121430E+02
  vertex  0.614469E+02  0.690911E+02  0.121430E+02
  vertex  0.626478E+02  0.717625E+02  0.168731E+02
 endloop
endfacet
facet normal  0.569184E+00  0.646025E+00 -0.508606E+00
 outer loop
  vertex  0.626478E+02  0.717624E+02  0.168731E+02
  vertex  0.703968E+02  0.649351E+02  0.168731E+02
  vertex  0.679673E+02  0.633516E+02  0.121429E+02
 endloop
endfacet
facet normal  0.117792E+00  0.851238E+00 -0.511389E+00
 outer loop
  vertex  0.614469E+02  0.690911E+02  0.121430E+02
  vertex  0.527873E+02  0.702894E+02  0.121430E+02
  vertex  0.523757E+02  0.731880E+02  0.168731E+02
 endloop
endfacet
facet normal  0.118165E+00  0.851490E+00 -0.510884E+00
 outer loop
  vertex  0.523757E+02  0.731880E+02  0.168731E+02
  vertex  0.626478E+02  0.717625E+02  0.168731E+02
  vertex  0.614468E+02  0.690911E+02  0.121429E+02
 endloop
endfacet
facet normal  0.117837E+00 -0.851557E+00 -0.510847E+00
 outer loop
  vertex  0.527873E+02  0.397105E+02  0.121430E+02
  vertex  0.614469E+02  0.409088E+02  0.121430E+02
  vertex  0.626478E+02  0.382374E+02  0.168731E+02
 endloop
endfacet
facet normal  0.118129E+00 -0.851230E+00 -0.511325E+00
 outer loop
  vertex  0.626478E+02  0.382374E+02  0.168731E+02
  vertex  0.523757E+02  0.368119E+02  0.168731E+02
  vertex  0.527873E+02  0.397104E+02  0.121429E+02
 endloop
endfacet
facet normal  0.568901E+00 -0.646315E+00 -0.508555E+00
 outer loop
  vertex  0.614469E+02  0.409088E+02  0.121430E+02
  vertex  0.679673E+02  0.466482E+02  0.121430E+02
  vertex  0.703968E+02  0.450648E+02  0.168731E+02
 endloop
endfacet
facet normal  0.568979E+00 -0.645775E+00 -0.509154E+00
 outer loop
  vertex  0.703967E+02  0.450648E+02  0.168731E+02
  vertex  0.626478E+02  0.382374E+02  0.168731E+02
  vertex  0.614468E+02  0.409087E+02  0.121429E+02
 endloop
endfacet
facet normal  0.825562E+00 -0.247032E+00 -0.507369E+00
 outer loop
  vertex  0.679673E+02  0.466482E+02  0.121430E+02
  vertex  0.704664E+02  0.550000E+02  0.121430E+02
  vertex  0.733734E+02  0.550000E+02  0.168731E+02
 endloop
endfacet
facet normal  0.825734E+00 -0.247383E+00 -0.506918E+00
 outer loop
  vertex  0.733733E+02  0.550000E+02  0.168731E+02
  vertex  0.703968E+02  0.450648E+02  0.168731E+02
  vertex  0.679673E+02  0.466482E+02  0.121429E+02
 endloop
endfacet
facet normal  0.926849E+00  0.277688E+00 -0.252668E+00
 outer loop
  vertex  0.733734E+02  0.550000E+02  0.168731E+02
  vertex  0.703968E+02  0.649351E+02  0.168731E+02
  vertex  0.716166E+02  0.657304E+02  0.222217E+02
 endloop
endfacet
facet normal  0.926743E+00  0.277796E+00 -0.252937E+00
 outer loop
  vertex  0.716166E+02  0.657304E+02  0.222217E+02
  vertex  0.748331E+02  0.550000E+02  0.222217E+02
  vertex  0.733733E+02  0.550000E+02  0.168731E+02
 endloop
endfacet
facet normal  0.639382E+00  0.725688E+00 -0.254101E+00
 outer loop
  vertex  0.703968E+02  0.649351E+02  0.168731E+02
  vertex  0.626478E+02  0.717625E+02  0.168731E+02
  vertex  0.632505E+02  0.731043E+02  0.222217E+02
 endloop
endfacet
facet normal  0.639569E+00  0.725635E+00 -0.253783E+00
 outer loop
  vertex  0.632504E+02  0.731043E+02  0.222217E+02
  vertex  0.716166E+02  0.657304E+02  0.222217E+02
  vertex  0.703967E+02  0.649350E+02  0.168731E+02
 endloop
endfacet
facet normal  0.132894E+00  0.957623E+00 -0.255533E+00
 outer loop
  vertex  0.626478E+02  0.717625E+02  0.168731E+02
  vertex  0.523757E+02  0.731880E+02  0.168731E+02
  vertex  0.521691E+02  0.746439E+02  0.222217E+02
 endloop
endfacet
facet normal  0.133046E+00  0.957674E+00 -0.255262E+00
 outer loop
  vertex  0.521691E+02  0.746438E+02  0.222217E+02
  vertex  0.632505E+02  0.731043E+02  0.222217E+02
  vertex  0.626478E+02  0.717624E+02  0.168731E+02
 endloop
endfacet
facet normal  0.132904E+00 -0.957701E+00 -0.255234E+00
 outer loop
  vertex  0.523757E+02  0.368119E+02  0.168731E+02
  vertex  0.626478E+02  0.382374E+02  0.168731E+02
  vertex  0.632505E+02  0.368956E+02  0.222217E+02
 endloop
endfacet
facet normal  0.133038E+00 -0.957606E+00 -0.255524E+00
 outer loop
  vertex  0.632504E+02  0.368955E+02  0.222217E+02
  vertex  0.521691E+02  0.353560E+02  0.222217E+02
  vertex  0.523757E+02  0.368119E+02  0.168731E+02
 endloop
endfacet
facet normal  0.639443E+00 -0.725758E+00 -0.253747E+00
 outer loop
  vertex  0.626478E+02  0.382374E+02  0.168731E+02
  vertex  0.703968E+02  0.450648E+02  0.168731E+02
  vertex  0.716166E+02  0.442695E+02  0.222217E+02
 endloop
endfacet
facet normal  0.639520E+00 -0.725571E+00 -0.254087E+00
 outer loop
  vertex  0.716166E+02  0.442695E+02  0.222217E+02
  vertex  0.632505E+02  0.368956E+02  0.222217E+02
  vertex  0.626478E+02  0.382374E+02  0.168731E+02
 endloop
endfacet
facet normal  0.926784E+00 -0.277666E+00 -0.252931E+00
 outer loop
  vertex  0.703968E+02  0.450648E+02  0.168731E+02
  vertex  0.733734E+02  0.550000E+02  0.168731E+02
  vertex  0.748331E+02  0.550000E+02  0.222217E+02
 endloop
endfacet
facet normal  0.926807E+00 -0.277805E+00 -0.252693E+00
 outer loop
  vertex  0.748330E+02  0.550000E+02  0.222217E+02
  vertex  0.716166E+02  0.442695E+02  0.222217E+02
  vertex  0.703967E+02  0.450648E+02  0.168731E+02
 endloop
endfacet
facet normal  0.957891E+00  0.287133E+00  0.000000E+00
 outer loop
  vertex  0.748331E+02  0.550000E+02  0.222217E+02
  vertex  0.716166E+02  0.657304E+02  0.222217E+02
  vertex  0.716166E+02  0.657304E+02  0.277782E+02
 endloop
endfacet
facet normal  0.957891E+00  0.287131E+00 -0.119729E-04
 outer loop
  vertex  0.716166E+02  0.657304E+02  0.277782E+02
  vertex  0.748331E+02  0.549999E+02  0.277782E+02
  vertex  0.748330E+02  0.550000E+02  0.222217E+02
 endloop
endfacet
facet normal  0.661221E+00  0.750192E+00  0.000000E+00
 outer loop
  vertex  0.716166E+02  0.657304E+02  0.222217E+02
  vertex  0.632505E+02  0.731043E+02  0.222217E+02
  vertex  0.632505E+02  0.731043E+02  0.277782E+02
 endloop
endfacet
facet normal  0.661216E+00  0.750195E+00  0.000000E+00
 outer loop
  vertex  0.632504E+02  0.731043E+02  0.277782E+02
  vertex  0.716166E+02  0.657304E+02  0.277782E+02
  vertex  0.716166E+02  0.657304E+02  0.222217E+02
 endloop
endfacet
facet normal  0.137613E+00  0.990486E+00  0.000000E+00
 outer loop
  vertex  0.632505E+02  0.731043E+02  0.222217E+02
  vertex  0.521691E+02  0.746439E+02  0.222217E+02
  vertex  0.521691E+02  0.746439E+02  0.277782E+02
 endloop
endfacet
facet normal  0.137605E+00  0.990487E+00 -0.245621E-05
 outer loop
  vertex  0.521691E+02  0.746438E+02  0.277782E+02
  vertex  0.632505E+02  0.731043E+02  0.277782E+02
  vertex  0.632504E+02  0.731043E+02  0.222217E+02
 endloop
endfacet
facet normal  0.137614E+00 -0.990486E+00  0.000000E+00
 outer loop
  vertex  0.521691E+02  0.353560E+02  0.222217E+02
  vertex  0.632505E+02  0.368956E+02  0.222217E+02
  vertex  0.632505E+02  0.368956E+02  0.277782E+02
 endloop
endfacet
facet normal  0.137606E+00 -0.990487E+00  0.176799E-04
 outer loop
  vertex  0.632504E+02  0.368955E+02  0.277782E+02
  vertex  0.521691E+02  0.353560E+02  0.277782E+02
  vertex  0.521691E+02  0.353559E+02  0.222217E+02
 endloop
endfacet
facet normal  0.661221E+00 -0.750192E+00  0.000000E+00
 outer loop
  vertex  0.632505E+02  0.368956E+02  0.222217E+02
  vertex  0.716166E+02  0.442695E+02  0.222217E+02
  vertex  0.716166E+02  0.442695E+02  0.277782E+02
 endloop
endfacet
facet normal  0.661221E+00 -0.750192E+00  0.158811E-05
 outer loop
  vertex  0.716166E+02  0.442695E+02  0.277782E+02
  vertex  0.632505E+02  0.368956E+02  0.277782E+02
  vertex  0.632504E+02  0.368955E+02  0.222217E+02
 endloop
endfacet
facet normal  0.957891E+00 -0.287131E+00 -0.512521E-05
 outer loop
  vertex  0.716166E+02  0.442695E+02  0.222217E+02
  vertex  0.748331E+02  0.550000E+02  0.222217E+02
  vertex  0.748331E+02  0.549999E+02  0.277782E+02
 endloop
endfacet
facet normal  0.957893E+00 -0.287125E+00  0.000000E+00
 outer loop
  vertex  0.748330E+02  0.549999E+02  0.277782E+02
  vertex  0.716166E+02  0.442695E+02  0.277782E+02
  vertex  0.716166E+02  0.442695E+02  0.222217E+02
 endloop
endfacet
facet normal  0.926808E+00  0.277814E+00  0.252677E+00
 outer loop
  vertex  0.748331E+02  0.549999E+02  0.277782E+02
  vertex  0.716166E+02  0.657304E+02  0.277782E+02
  vertex  0.703968E+02  0.649351E+02  0.331268E+02
 endloop
endfacet
facet normal  0.926784E+00  0.277678E+00  0.252914E+00
 outer loop
  vertex  0.703967E+02  0.649350E+02  0.331268E+02
  vertex  0.733734E+02  0.549999E+02  0.331268E+02
  vertex  0.748330E+02  0.549999E+02  0.277782E+02
 endloop
endfacet
facet normal  0.639518E+00  0.725569E+00  0.254099E+00
 outer loop
  vertex  0.716166E+02  0.657304E+02  0.277782E+02
  vertex  0.632505E+02  0.731043E+02  0.277782E+02
  vertex  0.626477E+02  0.717625E+02  0.331268E+02
 endloop
endfacet
facet normal  0.639433E+00  0.725767E+00  0.253746E+00
 outer loop
  vertex  0.626477E+02  0.717624E+02  0.331268E+02
  vertex  0.703968E+02  0.649351E+02  0.331268E+02
  vertex  0.716166E+02  0.657304E+02  0.277782E+02
 endloop
endfacet
facet normal  0.133045E+00  0.957605E+00  0.255522E+00
 outer loop
  vertex  0.632505E+02  0.731043E+02  0.277782E+02
  vertex  0.521691E+02  0.746439E+02  0.277782E+02
  vertex  0.523757E+02  0.731880E+02  0.331268E+02
 endloop
endfacet
facet normal  0.132906E+00  0.957701E+00  0.255235E+00
 outer loop
  vertex  0.523757E+02  0.731880E+02  0.331268E+02
  vertex  0.626477E+02  0.717625E+02  0.331268E+02
  vertex  0.632504E+02  0.731043E+02  0.277782E+02
 endloop
endfacet
facet normal  0.133055E+00 -0.957677E+00  0.255248E+00
 outer loop
  vertex  0.521691E+02  0.353560E+02  0.277782E+02
  vertex  0.632505E+02  0.368956E+02  0.277782E+02
  vertex  0.626477E+02  0.382374E+02  0.331268E+02
 endloop
endfacet
facet normal  0.132894E+00 -0.957618E+00  0.255551E+00
 outer loop
  vertex  0.626477E+02  0.382374E+02  0.331268E+02
  vertex  0.523757E+02  0.368119E+02  0.331268E+02
  vertex  0.521691E+02  0.353559E+02  0.277782E+02
 endloop
endfacet
facet normal  0.639577E+00 -0.725636E+00  0.253759E+00
 outer loop
  vertex  0.632505E+02  0.368956E+02  0.277782E+02
  vertex  0.716166E+02  0.442695E+02  0.277782E+02
  vertex  0.703968E+02  0.450648E+02  0.331268E+02
 endloop
endfacet
facet normal  0.639379E+00 -0.725686E+00  0.254113E+00
 outer loop
  vertex  0.703967E+02  0.450648E+02  0.331268E+02
  vertex  0.626477E+02  0.382374E+02  0.331268E+02
  vertex  0.632504E+02  0.368955E+02  0.277782E+02
 endloop
endfacet
facet normal  0.926747E+00 -0.277798E+00  0.252921E+00
 outer loop
  vertex  0.716166E+02  0.442695E+02  0.277782E+02
  vertex  0.748331E+02  0.549999E+02  0.277782E+02
  vertex  0.733734E+02  0.549999E+02  0.331268E+02
 endloop
endfacet
facet normal  0.926851E+00 -0.277680E+00  0.252667E+00
 outer loop
  vertex  0.733733E+02  0.549999E+02  0.331268E+02
  vertex  0.703968E+02  0.450648E+02  0.331268E+02
  vertex  0.716166E+02  0.442695E+02  0.277782E+02
 endloop
endfacet
facet normal  0.825726E+00  0.247389E+00  0.506927E+00
 outer loop
  vertex  0.733734E+02  0.549999E+02  0.331268E+02
  vertex  0.703968E+02  0.649351E+02  0.331268E+02
  vertex  0.679673E+02  0.633517E+02  0.378569E+02
 endloop
endfacet
facet normal  0.825567E+00  0.247042E+00  0.507355E+00
 outer loop
  vertex  0.679673E+02  0.633516E+02  0.378568E+02
  vertex  0.704664E+02  0.549999E+02  0.378569E+02
  vertex  0.733733E+02  0.549999E+02  0.331268E+02
 endloop
endfacet
facet normal  0.568970E+00  0.645781E+00  0.509156E+00
 outer loop
  vertex  0.703968E+02  0.649351E+02  0.331268E+02
  vertex  0.626477E+02  0.717625E+02  0.331268E+02
  vertex  0.614469E+02  0.690911E+02  0.378569E+02
 endloop
endfacet
facet normal  0.568900E+00  0.646332E+00  0.508535E+00
 outer loop
  vertex  0.614468E+02  0.690911E+02  0.378568E+02
  vertex  0.679673E+02  0.633517E+02  0.378569E+02
  vertex  0.703967E+02  0.649350E+02  0.331268E+02
 endloop
endfacet
facet normal  0.118128E+00  0.851217E+00  0.511347E+00
 outer loop
  vertex  0.626477E+02  0.717625E+02  0.331268E+02
  vertex  0.523757E+02  0.731880E+02  0.331268E+02
  vertex  0.527873E+02  0.702894E+02  0.378569E+02
 endloop
endfacet
facet normal  0.117823E+00  0.851570E+00  0.510830E+00
 outer loop
  vertex  0.527873E+02  0.702893E+02  0.378568E+02
  vertex  0.614469E+02  0.690911E+02  0.378569E+02
  vertex  0.626477E+02  0.717624E+02  0.331268E+02
 endloop
endfacet
facet normal  0.118165E+00 -0.851487E+00  0.510889E+00
 outer loop
  vertex  0.523757E+02  0.368119E+02  0.331268E+02
  vertex  0.626477E+02  0.382374E+02  0.331268E+02
  vertex  0.614469E+02  0.409088E+02  0.378569E+02
 endloop
endfacet
facet normal  0.117790E+00 -0.851239E+00  0.511388E+00
 outer loop
  vertex  0.614468E+02  0.409087E+02  0.378568E+02
  vertex  0.527873E+02  0.397105E+02  0.378569E+02
  vertex  0.523757E+02  0.368119E+02  0.331268E+02
 endloop
endfacet
facet normal  0.569186E+00 -0.646025E+00  0.508605E+00
 outer loop
  vertex  0.626477E+02  0.382374E+02  0.331268E+02
  vertex  0.703968E+02  0.450648E+02  0.331268E+02
  vertex  0.679673E+02  0.466482E+02  0.378569E+02
 endloop
endfacet
facet normal  0.568650E+00 -0.646021E+00  0.509210E+00
 outer loop
  vertex  0.679673E+02  0.466482E+02  0.378568E+02
  vertex  0.614469E+02  0.409088E+02  0.378569E+02
  vertex  0.626477E+02  0.382374E+02  0.331268E+02
 endloop
endfacet
facet normal  0.825498E+00 -0.247323E+00  0.507330E+00
 outer loop
  vertex  0.703968E+02  0.450648E+02  0.331268E+02
  vertex  0.733734E+02  0.549999E+02  0.331268E+02
  vertex  0.704664E+02  0.549999E+02  0.378569E+02
 endloop
endfacet
facet normal  0.825840E+00 -0.247112E+00  0.506876E+00
 outer loop
  vertex  0.704664E+02  0.549999E+02  0.378568E+02
  vertex  0.679673E+02  0.466482E+02  0.378569E+02
  vertex  0.703967E+02  0.450648E+02  0.331268E+02
 endloop
endfacet
facet normal  0.654782E+00  0.195930E+00  0.729981E+00
 outer loop
  vertex  0.704664E+02  0.549999E+02  0.378569E+02
  vertex  0.679673E+02  0.633517E+02  0.378569E+02
  vertex  0.644555E+02  0.610713E+02  0.416190E+02
 endloop
endfacet
facet normal  0.654529E+00  0.195474E+00  0.730330E+00
 outer loop
  vertex  0.644554E+02  0.610713E+02  0.416189E+02
  vertex  0.662685E+02  0.549999E+02  0.416190E+02
  vertex  0.704664E+02  0.549999E+02  0.378568E+02
 endloop
endfacet
facet normal  0.450454E+00  0.511750E+00  0.731576E+00
 outer loop
  vertex  0.679673E+02  0.633517E+02  0.378569E+02
  vertex  0.614469E+02  0.690911E+02  0.378569E+02
  vertex  0.597081E+02  0.652435E+02  0.416190E+02
 endloop
endfacet
facet normal  0.450395E+00  0.512529E+00  0.731067E+00
 outer loop
  vertex  0.597080E+02  0.652434E+02  0.416189E+02
  vertex  0.644555E+02  0.610713E+02  0.416190E+02
  vertex  0.679673E+02  0.633516E+02  0.378568E+02
 endloop
endfacet
facet normal  0.932436E-01  0.673834E+00  0.732976E+00
 outer loop
  vertex  0.614469E+02  0.690911E+02  0.378569E+02
  vertex  0.527873E+02  0.702894E+02  0.378569E+02
  vertex  0.533835E+02  0.661146E+02  0.416190E+02
 endloop
endfacet
facet normal  0.928649E-01  0.674336E+00  0.732562E+00
 outer loop
  vertex  0.533834E+02  0.661146E+02  0.416189E+02
  vertex  0.597081E+02  0.652435E+02  0.416190E+02
  vertex  0.614468E+02  0.690911E+02  0.378568E+02
 endloop
endfacet
facet normal  0.932939E-01 -0.674195E+00  0.732637E+00
 outer loop
  vertex  0.527873E+02  0.397105E+02  0.378569E+02
  vertex  0.614469E+02  0.409088E+02  0.378569E+02
  vertex  0.597081E+02  0.447564E+02  0.416190E+02
 endloop
endfacet
facet normal  0.928208E-01 -0.673828E+00  0.733035E+00
 outer loop
  vertex  0.597080E+02  0.447564E+02  0.416189E+02
  vertex  0.533835E+02  0.438853E+02  0.416190E+02
  vertex  0.527873E+02  0.397104E+02  0.378568E+02
 endloop
endfacet
facet normal  0.450748E+00 -0.512085E+00  0.731160E+00
 outer loop
  vertex  0.614469E+02  0.409088E+02  0.378569E+02
  vertex  0.679673E+02  0.466482E+02  0.378569E+02
  vertex  0.644555E+02  0.489286E+02  0.416190E+02
 endloop
endfacet
facet normal  0.450019E+00 -0.512033E+00  0.731646E+00
 outer loop
  vertex  0.644554E+02  0.489286E+02  0.416189E+02
  vertex  0.597081E+02  0.447564E+02  0.416190E+02
  vertex  0.614468E+02  0.409087E+02  0.378568E+02
 endloop
endfacet
facet normal  0.654471E+00 -0.195839E+00  0.730284E+00
 outer loop
  vertex  0.679673E+02  0.466482E+02  0.378569E+02
  vertex  0.704664E+02  0.549999E+02  0.378569E+02
  vertex  0.662685E+02  0.549999E+02  0.416190E+02
 endloop
endfacet
facet normal  0.654963E+00 -0.195572E+00  0.729914E+00
 outer loop
  vertex  0.662685E+02  0.549999E+02  0.416189E+02
  vertex  0.644555E+02  0.489286E+02  0.416190E+02
  vertex  0.679673E+02  0.466482E+02  0.378568E+02
 endloop
endfacet
facet normal  0.425136E+00  0.126952E+00  0.896182E+00
 outer loop
  vertex  0.662685E+02  0.549999E+02  0.416190E+02
  vertex  0.644555E+02  0.610713E+02  0.416190E+02
  vertex  0.600649E+02  0.582387E+02  0.441031E+02
 endloop
endfacet
facet normal  0.424996E+00  0.126606E+00  0.896298E+00
 outer loop
  vertex  0.600648E+02  0.582387E+02  0.441030E+02
  vertex  0.610294E+02  0.550000E+02  0.441031E+02
  vertex  0.662685E+02  0.549999E+02  0.416189E+02
 endloop
endfacet
facet normal  0.292327E+00  0.332629E+00  0.896606E+00
 outer loop
  vertex  0.644555E+02  0.610713E+02  0.416190E+02
  vertex  0.597081E+02  0.652435E+02  0.416190E+02
  vertex  0.575270E+02  0.604644E+02  0.441031E+02
 endloop
endfacet
facet normal  0.292210E+00  0.333239E+00  0.896418E+00
 outer loop
  vertex  0.575270E+02  0.604644E+02  0.441030E+02
  vertex  0.600649E+02  0.582387E+02  0.441031E+02
  vertex  0.644554E+02  0.610713E+02  0.416189E+02
 endloop
endfacet
facet normal  0.603705E-01  0.438318E+00  0.896790E+00
 outer loop
  vertex  0.597081E+02  0.652435E+02  0.416190E+02
  vertex  0.533835E+02  0.661146E+02  0.416190E+02
  vertex  0.541319E+02  0.609291E+02  0.441031E+02
 endloop
endfacet
facet normal  0.600191E-01  0.438692E+00  0.896631E+00
 outer loop
  vertex  0.541319E+02  0.609291E+02  0.441030E+02
  vertex  0.575270E+02  0.604644E+02  0.441031E+02
  vertex  0.597080E+02  0.652434E+02  0.416189E+02
 endloop
endfacet
facet normal  0.603984E-01 -0.438520E+00  0.896689E+00
 outer loop
  vertex  0.533835E+02  0.438853E+02  0.416190E+02
  vertex  0.597081E+02  0.447564E+02  0.416190E+02
  vertex  0.575270E+02  0.495355E+02  0.441031E+02
 endloop
endfacet
facet normal  0.600040E-01 -0.438293E+00  0.896827E+00
 outer loop
  vertex  0.575270E+02  0.495354E+02  0.441030E+02
  vertex  0.541319E+02  0.490708E+02  0.441031E+02
  vertex  0.533834E+02  0.438852E+02  0.416189E+02
 endloop
endfacet
facet normal  0.292492E+00 -0.332817E+00  0.896483E+00
 outer loop
  vertex  0.597081E+02  0.447564E+02  0.416190E+02
  vertex  0.644555E+02  0.489286E+02  0.416190E+02
  vertex  0.600649E+02  0.517612E+02  0.441031E+02
 endloop
endfacet
facet normal  0.291940E+00 -0.332852E+00  0.896649E+00
 outer loop
  vertex  0.600648E+02  0.517611E+02  0.441030E+02
  vertex  0.575270E+02  0.495355E+02  0.441031E+02
  vertex  0.597080E+02  0.447564E+02  0.416189E+02
 endloop
endfacet
facet normal  0.424962E+00 -0.126901E+00  0.896272E+00
 outer loop
  vertex  0.644555E+02  0.489286E+02  0.416190E+02
  vertex  0.662685E+02  0.549999E+02  0.416190E+02
  vertex  0.610294E+02  0.550000E+02  0.441031E+02
 endloop
endfacet
facet normal  0.425346E+00 -0.126626E+00  0.896129E+00
 outer loop
  vertex  0.610293E+02  0.550000E+02  0.441030E+02
  vertex  0.600649E+02  0.517612E+02  0.441031E+02
  vertex  0.644554E+02  0.489286E+02  0.416189E+02
 endloop
endfacet
facet normal  0.146979E+00  0.437709E-01  0.988171E+00
 outer loop
  vertex  0.610294E+02  0.550000E+02  0.441031E+02
  vertex  0.600649E+02  0.582387E+02  0.441031E+02
  vertex  0.550000E+02  0.550000E+02  0.449999E+02
 endloop
endfacet
facet normal  0.101186E+00  0.115380E+00  0.988154E+00
 outer loop
  vertex  0.600649E+02  0.582387E+02  0.441031E+02
  vertex  0.575270E+02  0.604644E+02  0.441031E+02
  vertex  0.550000E+02  0.550000E+02  0.449999E+02
 endloop
endfacet
facet normal  0.208743E-01  0.152508E+00  0.988082E+00
 outer loop
  vertex  0.575270E+02  0.604644E+02  0.441031E+02
  vertex  0.541319E+02  0.609291E+02  0.441031E+02
  vertex  0.550000E+02  0.550000E+02  0.449999E+02
 endloop
endfacet
facet normal  0.208739E-01 -0.152505E+00  0.988082E+00
 outer loop
  vertex  0.541319E+02  0.490708E+02  0.441031E+02
  vertex  0.575270E+02  0.495355E+02  0.441031E+02
  vertex  0.550000E+02  0.550000E+02  0.449999E+02
 endloop
endfacet
facet normal  0.171898E+00 -0.171898E+00  0.970001E+00
 outer loop
  vertex  0.550000E+02  0.550000E+02  0.449999E+02
  vertex  0.549999E+02  0.549999E+02  0.449999E+02
  vertex  0.541319E+02  0.490708E+02  0.441030E+02
 endloop
endfacet
facet normal  0.101185E+00 -0.115378E+00  0.988155E+00
 outer loop
  vertex  0.575270E+02  0.495355E+02  0.441031E+02
  vertex  0.600649E+02  0.517612E+02  0.441031E+02
  vertex  0.549999E+02  0.549999E+02  0.449999E+02
 endloop
endfacet
facet normal -0.110843E+00  0.110843E+00 -0.987637E+00
 outer loop
  vertex  0.549999E+02  0.549999E+02  0.449999E+02
  vertex  0.550000E+02  0.550000E+02  0.449999E+02
  vertex  0.575270E+02  0.495354E+02  0.441030E+02
 endloop
endfacet
facet normal  0.146979E+00 -0.437696E-01  0.988171E+00
 outer loop
  vertex  0.600649E+02  0.517612E+02  0.441031E+02
  vertex  0.610294E+02  0.550000E+02  0.441031E+02
  vertex  0.550000E+02  0.550000E+02  0.449999E+02
 endloop
endfacet
facet normal  0.106774E+00 -0.106774E+00  0.988534E+00
 outer loop
  vertex  0.550000E+02  0.550000E+02  0.449999E+02
  vertex  0.549999E+02  0.549999E+02  0.449999E+02
  vertex  0.600648E+02  0.517611E+02  0.441030E+02
 endloop
endfacet
 endsolid BOLLEN  
