solid created at FIEG, MTU on 2020-05-04T10:55:51
 facet normal -0.9439894932254723 -0.0810912356694224 -0.3198562930090986
  outer loop
   vertex -0.2594528638757087 0.026906859672911843 0.5787676575667529
   vertex -0.30750656960083966 -0.08910504841098474 0.7499999999999999
   vertex -0.3181980515339464 0.035355339059327424 0.75
  endloop
 endfacet
 facet normal -0.9420041071110323 -0.08787197872615456 -0.3238931576009238
  outer loop
   vertex -0.30750656960083966 -0.08910504841098474 0.7499999999999999
   vertex -0.2594528638757087 0.026906859672911843 0.5787676575667529
   vertex -0.25 -0.07442961554895204 0.5787676575667529
  endloop
 endfacet
 facet normal -0.9420041071110324 -0.08787197872615458 -0.32389315760092363
  outer loop
   vertex -0.25 -0.07442961554895204 0.5787676575667529
   vertex -0.2594528638757087 0.026906859672911843 0.5787676575667529
   vertex -0.2062455973336968 0.15536056417543712 0.3891713559501201
  endloop
 endfacet
 facet normal -0.8582977358831211 0.4138083533061903 0.30345945909120614
  outer loop
   vertex -0.2062455973336968 0.15536056417543712 0.3891713559501201
   vertex -0.25 0.0646076723032453 0.3891713559501201
   vertex -0.25 -0.07442961554895204 0.5787676575667529
  endloop
 endfacet
 facet normal -0.836671163673816 -0.44167248763762273 -0.3238931576009233
  outer loop
   vertex -0.2024869023799347 -0.16443485650963308 0.5787676575667529
   vertex -0.25 -0.07442961554895204 0.5787676575667529
   vertex -0.25 0.0646076723032453 0.3891713559501201
  endloop
 endfacet
 facet normal -0.9513213119677525 0.053852744442849855 0.3034594590912056
  outer loop
   vertex -0.25 0.0646076723032453 0.3891713559501201
   vertex -0.2556941689219465 -0.03598115200710776 0.3891713559501201
   vertex -0.2024869023799347 -0.16443485650963308 0.5787676575667529
  endloop
 endfacet
 facet normal -0.9975451591906538 0.05646940087674316 0.04141089397627817
  outer loop
   vertex -0.2556941689219465 -0.03598115200710776 0.3891713559501201
   vertex -0.25 0.0646076723032453 0.3891713559501201
   vertex -0.24999999999999997 0.20364496015558176 0.19957505433329764
  endloop
 endfacet
 facet normal -0.7692784274332215 0.40757958382872084 0.4920259992438172
  outer loop
   vertex -0.24999999999999997 0.20364496015558176 0.19957505433329764
   vertex -0.3089014354640116 0.09247255249554606 0.19957505433329764
   vertex -0.2556941689219465 -0.03598115200710776 0.3891713559501201
  endloop
 endfacet
 facet normal -0.9432214594830711 -0.32957308177506084 0.04141089397627867
  outer loop
   vertex -0.22246121849893993 -0.13109217209433385 0.3891713559501201
   vertex -0.2556941689219465 -0.03598115200710776 0.3891713559501201
   vertex -0.3089014354640116 0.09247255249554606 0.19957505433329764
  endloop
 endfacet
 facet normal -0.8666945480095322 0.0821643263142598 0.49202599924381707
  outer loop
   vertex -0.3089014354640116 0.09247255249554606 0.19957505433329764
   vertex -0.32077542757711297 -0.03277796301616073 0.19957505433329764
   vertex -0.22246121849893993 -0.13109217209433385 0.3891713559501201
  endloop
 endfacet
 facet normal -0.8666945480095319 0.08216432631425975 0.49202599924381735
  outer loop
   vertex -0.4242640687119285 0.07071067811865467 0.0
   vertex -0.32077542757711297 -0.03277796301616073 0.19957505433329764
   vertex -0.3089014354640116 0.09247255249554606 0.19957505433329764
  endloop
 endfacet
 facet normal -0.893234494274706 -0.027878734650747236 0.4487258788972207
  outer loop
   vertex -0.32077542757711297 -0.03277796301616073 0.19957505433329764
   vertex -0.4242640687119285 0.07071067811865467 0.0
   vertex -0.41902869447022284 -0.09703068180004029 0.0
  endloop
 endfacet
endsolid
