DBRep_DrawableShape

CASCADE Topology V1, (c) Matra-Datavision
Locations 0
Curve2ds 31
1 0.42499999999999999 0 0 1 
7 0 0  2 3 2  0.33333000000000013 0.24000000000002811  0.33332999999999974 0.27000000000001384  0.33333000000000002 0.29999999999999999 
 0.24000000000002814 3 0.29999999999999999 3
1 0 0.29999999999999999 1 0 
7 0 0  2 5 3  0.42499999999999993 0.16666999999998025  0.42499999999999971 0.24999999999998984  0.42499999999999999 0.33333000000000013  0.4249999999999996 0.41666500000000017  0.42499999999999999 0.5 
 0.16666999999997995 3 0.33333000000000002 2 0.5 3
1 0.5 0 0 1 
7 0 0  2 3 2  0.42499999999999993 0.20999999999998251  0.42499999999999988 0.25499999999999107  0.42499999999999993 0.29999999999999993 
 0.20999999999998251 3 0.29999999999999999 3
1 0.42499999999999999 0 0 1 
7 0 0  2 3 2  0.33333000000000018 0.27000000000000002  0.41666499999999934 0.2699999999999998  0.49999999999999983 0.26999999999999996 
 0.33333000000000002 3 0.5 3
1 0.40000000000000002 0 0 1 
7 0 0  2 3 2  0.33333000000000018 0.23999999999997693  0.33332999999999863 0.26999999999998786  0.3333300000000004 0.3000000000000001 
 0.23999999999997693 3 0.29999999999999999 3
1 0 0.29999999999999999 1 0 
7 0 0  2 3 2  0.40000000000000002 0.33333000000000013  0.41249999999999948 0.33332999999999985  0.42499999999999999 0.33333000000000007 
 0.40000000000000002 3 0.42499999999999999 3
1 0 0.33333000000000002 1 0 
7 0 0  2 3 2  0.40000000000000002 0.26999999999999996  0.41249999999999964 0.26999999999999996  0.42499999999999999 0.27000000000000002 
 0.40000000000000002 3 0.42499999999999999 3
1 0.40000000000000002 0 0 1 
7 0 0  2 3 2  9.7368285208370267e-16 0.30000000000000021  0.23568280217561108 0.29999999999999899  0.47136560435122626 0.30000000000000021 
 0 3 0.47136560435122588 3
7 0 0  6 17 4  0.74999981636881208 0.88607501801291033  0.77005528997284478 0.88612240024796907  0.78996375411901776 0.88359054828582673  0.80904081583189469 0.87854474515645076  0.82712158893388599 0.87176618681484896  0.84427598115757763 0.86374991419278624  0.87636436476011914 0.84617555462567484  0.89127981977691828 0.83678324518082825  0.90567807362027175 0.82677422847999527  0.91966219816510175 0.81632074067882243  0.93332475390917813 0.8055391946512297  0.95581244055434345 0.78709127827919489  0.96475657376283808 0.77956101386233134  0.97362312873791035 0.77194943761931489  0.98243687805241153 0.76428091339878257  0.99122158428097151 0.75657761897222331  0.99999999999999811 0.74885954603397942 
 0 7 0.38820918102726737 5 0.75385010050139734 5 1 7
7 0 0  6 17 4  0.40000000000000002 0.47136560435122571  0.40066014996926075 0.4713845486006763  0.4013156625137746 0.47196570983085206  0.40192409427871711 0.47309318345587875  0.40246492113979471 0.47458961155436447  0.40294113547332128 0.47634408106889925  0.40374981216227179 0.48016005658827793  0.40408690711505413 0.48218712234662897  0.40437153964361761 0.48433330853501816  0.40460676011067703 0.48655975976067717  0.4047953431722191 0.48884040796729961  0.40503594488868239 0.49271573095321047  0.40511242719780066 0.49429044310967102  0.40516914671063081 0.49587476882278536  0.40520649838437878 0.49746339492749764  0.40522471411787014 0.49905158149415912  0.4052238627515492 0.5006351618285293 
 0 7 0.38820918102726737 5 0.75385010050139734 5 1 7
1 0 0.29999999999999999 1 0 
7 0 0  2 3 2  0.40522292666702603 0.50000000000000022  0.42761146333352318 0.50000000000000011  0.45000000000002122 0.49999999999999978 
 0.40522292666702597 3 0.45000000000002127 3
1 0 0.5 1 0 
7 0 0  2 3 2  0.40530519035911977 0.27000000000000007  0.41515259517955955 0.26999999999999996  0.42499999999999999 0.26999999999999996 
 0.40530519035911977 3 0.42499999999999999 3
7 0 0  4 8 3  0.99666861555545416 0  0.99663166370218836 0.10394161067024765  0.99660792741335058 0.20789714634550088  0.99658972524410649 0.31186693427309964  0.99655309943650128 0.49986224523152478  0.99653539093652366 0.5838827201123773  0.99651233917604132 0.66791283370711763  0.99647999630537898 0.75195271558029542 
 0 5 0.55312190529588734 3 1 5
7 0 0  4 8 3  0.40531471755122112 0.26647669611028302  0.4053020895934904 0.27115336798456496  0.40528943842102533 0.27581512358830174  0.4052767637697271 0.28046176141938445  0.40525380467407179 0.28883488277440955  0.40524352875150105 0.29256667279100751  0.40523323635096198 0.2962884021893894  0.40522292660350162 0.29999999999999999 
 0 5 0.55312190529588734 3 1 5
7 0 0  3 4 2  0.40531471755122123 0.26647669611028302  0.40528427661593458 0.27775011962146512  0.40525368690514352 0.28892587204863918  0.40522292660350107 0.29999999999999999 
 0 4 1 4
1 0.40000000000000002 0 0 1 
7 0 0  2 3 2  0.33332999999999985 0.26999999999999996  0.40079902843296628 0.26999999999999985  0.46826805686593237 0.26999999999999991 
 0.33333000000000002 3 0.46826805686593254 3
7 0 0  6 17 4  0.74999981636866897 0.21366071875966119  0.77002810931172239 0.21370965696637603  0.78979542301366523 0.21116699449600487  0.80871717320774539 0.20615539462905685  0.82664721015130604 0.19942103482395696  0.84363798533679002 0.19146863983219645  0.87551378400906243 0.17399781305125794  0.89040898607598251 0.16459584190199025  0.9047723397046834 0.15457895957725309  0.91871059209536143 0.14412012828819701  0.93231885605019194 0.13333384685667279  0.95436106425286482 0.11515917957902633  0.96292423089479984 0.10791627412680199  0.97141262402237338 0.10059705697884493  0.97984802110350955 0.093222352819490581  0.98825120827508572 0.085810960054544014  0.99664336384699259 0.078381157812153948 
 0 7 0.38882939826888546 5 0.75982368862781802 5 1 7
7 0 0  6 17 4  0.40000000000025732 0.46826805686594225  0.40066985215878131 0.46828728712998774  0.40133107489423359 0.46892686699570713  0.40194425669317385 0.47015569739452934  0.40248981978208398 0.47178792680077619  0.40296987072975943 0.473699419444777  0.40378957142862043 0.47786717810808366  0.40413340818136606 0.48009694567398098  0.40442385745133552 0.48245765136358032  0.40466422934361684 0.48490648213051429  0.40485749187030651 0.48741525936967028  0.40510152353508072 0.49161405393994589  0.40517847506692289 0.49328026745323994  0.40523700958279329 0.49495672733076107  0.40527750721221584 0.49663842582410539  0.40530020270917294 0.49832092515674736  0.40530519035925089 0.5 
 0 7 0.38882939826888546 5 0.75982368862781802 5 1 7
7 0 0  4 26 9  0.74999981636822521 1  0.74999981636835367 0.96867836537311436  0.74999981636849256 0.93735782596382355  0.74999981636868995 0.90603837364010031  0.74999981636908575 0.8434783983162577  0.74999981636929647 0.8122378700323738  0.7499998163695194 0.78099840680828281  0.74999981636994861 0.71851842379005948  0.74999981637015756 0.68727790420827606  0.74999981637035285 0.6560384326083456  0.74999981637070057 0.59355845029406162  0.74999981637084789 0.5623179397849416  0.74999981637097468 0.53107845948006049  0.74999981637115054 0.468598477956088  0.74999981637120539 0.43735797693490097  0.74999981637121982 0.40611848755448887  0.74999981637117275 0.34363850691387066  0.74999981637110791 0.31239801584394089  0.74999981637100255 0.28115851697274102  0.74999981637070179 0.21867853731542544  0.7499998163705065 0.18743805671185304  0.74999981637027258 0.15619854788637919  0.74999981636972091 0.093718569319616016  0.74999981636940694 0.062478099752831161  0.74999981636905155 0.031238580457948764  0.7499998163686693 0 
 0 5 0.12523630168220495 3 0.25016560671135357 3 0.37510758687944995 3 0.50006203426542317 3 0.62502873196653785 3 0.75000745302063176 3 0.87499795924668866 3 1 5
7 0 0  4 26 9  0.4718603860443637 0.30504662754041956  0.47172536246282842 0.3036606423196781  0.47158962353197259 0.30227360461192193  0.47145313862215621 0.30088552253883855  0.47117894953312289 0.29811069219539438  0.47104124916368623 0.29672394899927856  0.47090274306905161 0.29533618378281695  0.47062403949496234 0.29255848680402036  0.47048384184674158 0.2911685548390891  0.47034277249680162 0.28977761905190713  0.4700588079894058 0.2869936206529593  0.46991591265330257 0.28560055784591465  0.46977207718823394 0.28420651073637809  0.46948244120898969 0.28141633229818619  0.46933664050650303 0.2800202007818513  0.46918982888086141 0.27862310592950296  0.46889409672274346 0.27582687776448356  0.4687451759926049 0.27442774427200711  0.46859517129499623 0.27302766998802036  0.46829290479257418 0.27022553215380252  0.4681406427811784 0.26882346843194449  0.46798722166201151 0.26742048817799224  0.46767797012657975 0.26461259132662163  0.46752213949536187 0.26320767456605526  0.46736507271609395 0.26180186738940786  0.46720673055759615 0.26039518393096678 
 0 5 0.12523630168220495 3 0.25016560671135357 3 0.37510758687944995 3 0.50006203426542317 3 0.62502873196653785 3 0.75000745302063176 3 0.87499795924668866 3 1 5
Curves 15
7 0 0  2 5 4  0.91564377524760054 0.72570237290684259 -0.22666973825640319  0.92232121055442584 0.73099463915501872 -0.24260787796347352  0.93624036551488554 0.74202640069452519 -0.27433983973037279  0.95072380482215424 0.75350539127718541 -0.30592748385003043  0.95824766664919325 0.75946850109009234 -0.32164914708623848 
 0.20999999999999999 3 0.23999999999999999 1 0.27000000000000002 1 0.29999999999999999 3
7 0 0  1 4 4  0.92480859424568396 0.73296603927357251 -0.45000000000000229  0.94152863203854065 0.74621766772273512 -0.38582264826107382  0.95824766664919325 0.75946850109009234 -0.32164914708623848  0.97496770444204972 0.77272012953925473 -0.25747179534731002 
 0 2 0.16667000000000001 1 0.33333000000000002 1 0.5 2
7 0 0  2 7 6  0.90795826816408676 0.7196111495749401 -0.13144188061926376  0.91360116806117864 0.72408348472982975 -0.14431547038662929  0.92573340283992589 0.73369900531284249 -0.16984617128571161  0.93871207260323675 0.74398537616908866 -0.19516039354914519  0.95253717735111099 0.75494259729856839 -0.2202581371769301  0.96720871708354905 0.76657066870128154 -0.24513940216906632  0.97496770444204972 0.77272012953925473 -0.25747179534731002 
 0.14999999999999999 3 0.17999999999999999 1 0.20999999999999999 1 0.23999999999999999 1 0.27000000000000002 1 0.29999999999999999 3
7 0 0  1 2 2  0.94348208516851995 0.7477658959858553 -0.29013366179020161  0.95987294721732996 0.76075663299992491 -0.23269876967299824 
 0.33333000000000002 2 0.5 2
7 0 0  2 5 4  0.94289090963684585 0.68998649342327134 -0.22411345429156732  0.94976704773846843 0.69501829759970646 -0.2399077338620885  0.96410039989662066 0.7055071243489377 -0.27137410768458919  0.97901482800967976 0.71642116949452972 -0.30271829618854823  0.9867625800436628 0.72209080126550629 -0.31832929778125685 
 0.20999999999999999 3 0.23999999999999999 1 0.27000000000000002 1 0.29999999999999999 3
7 0 0  3 4 2  0.9867625800436628 0.72209080126550629 -0.31832929778125685  0.97749266451154315 0.73473701639005118 -0.31841129222657066  0.96798550820961293 0.74719843483535353 -0.31963877403321295  0.95824766664919325 0.75946850109009234 -0.32164914708623848 
 0.40000000000000002 4 0.42499999999999999 4
7 0 0  3 4 2  0.97155761395315021 0.71096414692173371 -0.28704620193656871  0.96243053799984946 0.72341549726722154 -0.28712245677071058  0.95306987690569422 0.73568489845454066 -0.28826401485088793  0.94348208516851995 0.7477658959858553 -0.29013366179020161 
 0.40000000000000002 4 0.42499999999999999 4
7 0 0  1 2 2  0.95232844938249839 0.69689267407375133 -0.45000000000000234  1.0556318744002415 0.77248781160039148 -0.054983943183197749 
 0 2 1 2
7 0 0  6 17 4  1.0010221307475384 0.73252562176001013 -0.26380301765011116  1.0002791309306147 0.73354333889717172 -0.26380472170857422  0.99959823757988542 0.7345954796288563 -0.26359239305220816  0.99902551207214996 0.73561579647182174 -0.26317154482855637  0.99856625783878084 0.73655994556870275 -0.26260805365470807  0.99820606070361484 0.73742433120069939 -0.26194349703653758  0.9976792829217328 0.7389557606490933 -0.2604905567190296  0.99750397561736437 0.73962729672407646 -0.25971567542433288  0.99740019260611168 0.74022748785442405 -0.25889187579314016  0.99736066311641558 0.74075811375812239 -0.25803367019884754  0.9973797008014752 0.74122144834808512 -0.25715083651095122  0.99750298556738615 0.74188644257484315 -0.25564425589085754  0.99757732404916022 0.74212405179111907 -0.25503034524198881  0.99767519011237138 0.74233211636987095 -0.25441090668890837  0.99779561581478704 0.74251082471162411 -0.25378796207687543  0.9979378715812709 0.74266015358995452 -0.25316333563523946  0.9981014662037816 0.74277986815148811 -0.25253865397744008 
 0 7 0.38820918102726737 5 0.75385010050139734 5 1 7
7 0 0  3 7 5  1.00398016189137 0.73469024283707141 -0.25249197159160003  0.99454849972168669 0.74755711615070253 -0.25261496448949972  0.97520241482512282 0.77291482054917515 -0.25629744673424898  0.94477502518183831 0.80978323108736205 -0.2688672617797393  0.91297939261326788 0.84544347619287441 -0.28521977083511302  0.89089682186613184 0.8683848497259975 -0.29646764109962898  0.87964083579606722 0.87964083579606234 -0.30163422601070644 
 0.40000000000000002 4 0.42499999999999999 1 0.45000000000000001 1 0.47499999999999998 1 0.5 4
7 0 0  3 4 2  0.988436224658231 0.72331553698735873 -0.22806753358018791  0.97915058645429376 0.73598320131383521 -0.2281819169752346  0.969627305097293 0.74846575552805761 -0.22989427121904304  0.95987294721732996 0.76075663299992491 -0.23269876967299824 
 0.40000000000000002 4 0.42499999999999999 4
7 0 0  4 8 3  0.98072431509752866 0.73006094340306271 -0.22546911134327671  0.98306365585306632 0.73177276046468309 -0.22929663544595341  0.98542376810723442 0.7334997983649999 -0.23310590536374098  0.98780415080424966 0.73524167898701653 -0.23689684437978464  0.99214345311954144 0.73841702198154513 -0.24371733808359636  0.99409550371103017 0.73984545906715227 -0.24675327354144524  0.99606020731583855 0.74128314622134706 -0.24977719216845873  0.99803731110232519 0.74272989090961594 -0.25278908374439291 
 0 5 0.55312190529588734 3 1 5
7 0 0  1 2 2  0.97155761395315021 0.71096414692173371 -0.28704620193656871  0.988436224658231 0.72331553698735873 -0.22806753358018791 
 0.33333000000000002 2 0.5 2
7 0 0  6 17 4  0.98522274223749906 0.72096398237521575 -0.23929635550619471  0.98448071570994466 0.7219803525176689 -0.23929816147370542  0.9838098709985269 0.72302866988708148 -0.23908806630829207  0.98325065722771487 0.72404725578245921 -0.23867620224712152  0.98280643187230432 0.72499332871945454 -0.23812457555348213  0.9824627134808116 0.72586106873254808 -0.23747495604542798  0.98196574027596828 0.72741014504045742 -0.23605164091215994  0.98180519342205719 0.72809583043650361 -0.23528727744628761  0.98171719924532608 0.72871076787879241 -0.23447485938565424  0.98169393669801208 0.72925681467193815 -0.23362874562573141  0.98172939829770989 0.72973634501117857 -0.2327584168397421  0.98187778163610984 0.730419167943539 -0.23129583070194237  0.98195896008968619 0.73066014907424925 -0.23071393616430461  0.98206184544175257 0.73087412731623502 -0.23012691757985135  0.98218553329120251 0.73106128983786478 -0.22953648019797804  0.98232933428440272 0.73122164243525756 -0.22894415042186711  0.98249273332599152 0.7313549910392676 -0.2283513987208938 
 0 7 0.38882939826888546 5 0.75982368862781802 5 1 7
7 0 0  4 26 9  1.0037592567458216 0.73452858938893795 -0.26789407276382526  1.0030043668759567 0.73397617785446978 -0.2667717935333595  1.0022512342606007 0.73342505223957533 -0.26564772755729715  1.0014998647699851 0.73287521683995849 -0.26452188382511055  1.0000025011199272 0.73177947958793566 -0.26226942311738821  0.99925649829872998 0.73123357139704981 -0.2611428148025246  0.99851226145452854 0.73068895550865998 -0.26001445543415486  0.99702725567916539 0.72960226147313112 -0.25775413803267611  0.99628648710748779 0.72906018358905611 -0.25662217964598411  0.99554749616245941 0.72851940653243086 -0.2554884879556244  0.99407300707177759 0.72744040837169743 -0.25321754289922888  0.99333750928198228 0.72690218752799751 -0.25208028918899356  0.99260380058402153 0.72636527590171507 -0.25094132006169689  0.99113990054185686 0.72529402657001374 -0.24865985749506486  0.99040970954951424 0.72475968912207966 -0.24751736372106331  0.98968131892814482 0.72422666914538358 -0.24637317254994182  0.98822807926325029 0.72316322083950224 -0.24408130363743671  0.98750323056718303 0.72263279276457837 -0.24293362557108489  0.98678019333351263 0.72210369027734889 -0.24178426825717006  0.98533768433955893 0.72104809443662421 -0.23948210518284863  0.98461821292189022 0.72052160133384657 -0.23832929910736986  0.9839005638685604 0.71999644179656086 -0.23717483205945331  0.98246885480413859 0.71894874910288198 -0.23486248802708631  0.98175479513033626 0.71842621619330915 -0.2337046107376673  0.98104256853147764 0.71790502468701078 -0.23254509087215103  0.98033218009981704 0.7173851783103824 -0.2313839378330099 
 0 5 0.12523630168220495 3 0.25016560671135357 3 0.37510758687944995 3 0.50006203426542317 3 0.62502873196653785 3 0.75000745302063176 3 0.87499795924668866 3 1 5
Polygon3D 0
PolygonOnTriangulations 0
Surfaces 8
9 0 0 0 0 1 2 4 7 4 6 0.8542723455320318 0.67706184983744988 -0.22500000000000059  0.86132597040339731 0.68265226878106211 -0.24750000000000066  0.87543322014612812 0.69383310666828668 -0.29250000000000098  0.88954046988885849 0.70501394455551114 -0.33750000000000124  0.90364771963158885 0.71619478244273571 -0.38250000000000162  0.917754969374319 0.72737562032996028 -0.4275000000000021  0.92480859424568396 0.73296603927357251 -0.45000000000000229  
0.87216801098220109 0.69124523341194488 -0.19381333648562579  0.87875138479064219 0.69646295030542427 -0.21310446889867948  0.89220028304527865 0.70712200532246294 -0.25161457273637977  0.90593133193766939 0.71800468156958108 -0.29005251558567291  0.91994453146781452 0.72911097904677902 -0.32841829744655904  0.93423988163571381 0.74044089775405653 -0.36671191831903793  0.94152863203854065 0.74621766772273512 -0.38582264826107382  
0.89006260271391757 0.7054277660004451 -0.16262854413363859  0.89617575367393365 0.71027280320546748 -0.17871100148795049  0.90896633994077536 0.72041010665866634 -0.21073159854933282  0.92232121055442584 0.73099463915501872 -0.24260787796347352  0.93624036551488554 0.74202640069452519 -0.27433983973037279  0.95072380482215424 0.75350539127718541 -0.30592748385003043  0.95824766664919325 0.75946850109009234 -0.32164914708623848  
0.90795826816408676 0.7196111495749401 -0.13144188061926376  0.91360116806117864 0.72408348472982975 -0.14431547038662929  0.92573340283992589 0.73369900531284249 -0.16984617128571161  0.93871207260323675 0.74398537616908866 -0.19516039354914519  0.95253717735111099 0.75494259729856839 -0.2202581371769301  0.96720871708354905 0.76657066870128154 -0.24513940216906632  0.97496770444204972 0.77272012953925473 -0.25747179534731002  

0 2
0.16667000000000001 1
0.33333000000000002 1
0.5 2

0.14999999999999999 3
0.17999999999999999 1
0.20999999999999999 1
0.23999999999999999 1
0.27000000000000002 1
0.29999999999999999 3

9 0 0 0 0 3 2 4 5 2 4 0.94289090963684585 0.68998649342327134 -0.22411345429156732  0.94976704773846843 0.69501829759970646 -0.2399077338620885  0.96410039989662066 0.7055071243489377 -0.27137410768458919  0.97901482800967976 0.71642116949452972 -0.30271829618854823  0.9867625800436628 0.72209080126550629 -0.31832929778125685  
0.9340331364854253 0.70207045518205413 -0.22417659001445894  0.94084467827920415 0.70719038300993065 -0.23997442267761038  0.95504337903641634 0.71786290405251441 -0.27144735605573617  0.96981769696328268 0.72896809048192868 -0.30279755748568488  0.97749266451154315 0.73473701639005118 -0.31841129222657066  
0.92494867033837069 0.71397783636055068 -0.22512175100557352  0.93169396264011584 0.71918460010610885 -0.24097277454701277  0.94575456592377771 0.7300381311531039 -0.27254390646966997  0.96038518788761063 0.74133166575597742 -0.30398412323210577  0.96798550820961293 0.74719843483535353 -0.31963877403321295  
0.91564377524760054 0.72570237290684259 -0.22666973825640319  0.92232121055442584 0.73099463915501872 -0.24260787796347352  0.93624036551488554 0.74202640069452519 -0.27433983973037279  0.95072380482215424 0.75350539127718541 -0.30592748385003043  0.95824766664919325 0.75946850109009234 -0.32164914708623848  

0.40000000000000002 4
0.42499999999999999 4

0.20999999999999999 3
0.23999999999999999 1
0.27000000000000002 1
0.29999999999999999 3

9 0 0 0 0 3 1 5 2 3 2 0.95232844938249839 0.69689267407375133 -0.45000000000000234  1.0556318744002415 0.77248781160039148 -0.054983943183197749  
0.91654272153611327 0.74571232201614734 -0.45000000000000223  1.0159643048891602 0.826603150167045 -0.055967886366395332  
0.76568159291517768 0.92149557695088968 -0.45000000000000223  0.84873857926529672 1.0214544191963857 -0.27000000000000091  
0.56716692833375137 1.0496252959251189 -0.45000000000000223  0.62869012055977946 1.1634829551441208 -0.27000000000000091  
0.40369360405548133 1.1091390615206909 -0.45000000000000223  0.44748409669878036 1.2294524512449512 -0.27000000000000091  

0.40000000000000002 4
0.5 1
0.78241950434297003 4

0 2
1 2

9 0 0 0 0 3 2 7 12 5 11 0.88776380874639627 0.64964571311959429 0  0.8913955697821776 0.6523033546732655 -0.013082798106106587  0.89953071450232669 0.65825647175348878 -0.039065114507709123  0.90853748187106287 0.66484742280659315 -0.064864151098701028  0.91841587188838614 0.6720762078325786 -0.090479907879082291  0.9291658845542965 0.67994282683144525 -0.11591238484885294  0.94078751986879383 0.68844727980319287 -0.14116158200801293  0.95328077783187837 0.6975895667478218 -0.16622749935656234  0.96664565844354966 0.70736968766533159 -0.19111013689450101  0.98088216170380815 0.71778764255572269 -0.21580949462182916  0.99599028761265374 0.72884343141899488 -0.24032557253854664  1.00398016189137 0.73469024283707141 -0.25249197159160003  
0.87942391454490787 0.66102317344515238 0  0.8830215578316829 0.66372735915470094 -0.013090997632633234  0.89108027879405849 0.66978473514408943 -0.039088893134636399  0.9000024341452596 0.67649111570376941 -0.064902688873376274  0.90978802388528623 0.6838465008337411 -0.090532384848852829  0.9204370480141385 0.6918508905340045 -0.1159779810610661  0.93194950653181641 0.70050428480455951 -0.14123947751001609  0.94432539943831983 0.70980668364540622 -0.16631687419570276  0.95756472673364879 0.71975808705654432 -0.1912101711181261  0.97166748841780359 0.73035849503797434 -0.21591936827728619  0.98663368449078381 0.74160790758969597 -0.24044446567318301  0.99454849972168669 0.74755711615070253 -0.25261496448949972  
0.86231724783572727 0.68344558087145513 0  0.86584490930414648 0.68624149461138395 -0.013336496448949851  0.87374687099340509 0.69250434138882444 -0.039800839701954589  0.882495471435084 0.69943820746384766 -0.066056533310064364  0.89209071062918299 0.70704309283645395 -0.092103577273279183  0.90253258857570229 0.71531899750664307 -0.11794197159159905  0.91382110527464189 0.72426592147441504 -0.14357171626502394  0.92595626072600168 0.73388386473976996 -0.1689928112935539  0.93893805492978166 0.74417282730270762 -0.19420525667718885  0.95276648788598195 0.75513280916322834 -0.21920905241592889  0.96744155959460254 0.7667638103213319 -0.24400419850977395  0.97520241482512282 0.77291482054917515 -0.25629744673424898  
0.83541199975886704 0.71604626543094629 0  0.83882959430333548 0.71897554560770949 -0.014174484118649203  0.84648500608294419 0.72553713320365876 -0.042231003944082711  0.85496064055322496 0.73280174804203102 -0.069995075357651329  0.86425649771417801 0.74076939012282661 -0.097466698359355036  0.874372577565803 0.74944005944604508 -0.12464587294919388  0.88530888010810016 0.75881375601168655 -0.15153259912716779  0.89706540534106938 0.76889047981975123 -0.17812687689327686  0.90964215326471054 0.77967023087023901 -0.20442870624752096  0.92303912387902409 0.79115300916314979 -0.23043808718990025  0.93725631718400959 0.80333881469848367 -0.2561550197204146  0.94477502518183831 0.80978323108736205 -0.2688672617797393  
0.80729689057443832 0.74757863650495382 0  0.81059946876315225 0.75063691274520161 -0.015264651389007445  0.81799724390587081 0.7574874515233565 -0.04539248902812161  0.82618763781388072 0.7650719765991707 -0.075118861528335065  0.83517065048718131 0.77339048797264398 -0.10444376888964779  0.84494628192577326 0.78244298564377668 -0.13336721111205982  0.85551453212965622 0.79222946961256868 -0.16188918819557113  0.86687540109883032 0.8027499398790201 -0.19000970014018173  0.87902888883329533 0.81400439644313072 -0.21772874694589156  0.89197499533305158 0.82599283930490086 -0.24504632861270073  0.90571372059809874 0.8387152684643302 -0.27196244514060919  0.91297939261326788 0.84544347619287441 -0.28521977083511302  
0.78777050165012086 0.76786441696028862 0  0.79099319915687161 0.77100568048421736 -0.016014509406641841  0.79821204157199299 0.77804211077781738 -0.047567077279261363  0.80620433138873415 0.78583244431716026 -0.078643194211216738  0.81497006860709542 0.79437668110224569 -0.10924286020250794  0.82450925322707647 0.80367482113307387 -0.13936607525313499  0.83482188524867751 0.81372686440964481 -0.16901283936309791  0.84590796467189855 0.8245328109319584 -0.19818315253239666  0.85776749149673959 0.83609266070001453 -0.22687701476103123  0.87040046572320051 0.84840641371381365 -0.25509442604900168  0.88380688735128143 0.86147406997335541 -0.28283538639630795  0.89089682186613184 0.8683848497259975 -0.29646764109962898  
0.77781745930520785 0.77781745930520185 0  0.78099943982054765 0.78099943982054165 -0.016358948400713676  0.78812707617490829 0.78812707617490241 -0.048565950362069676  0.7960183878529502 0.79601838785294432 -0.080262057483354354  0.8046733748546735 0.80467337485466772 -0.11144726976456767  0.81409203718007794 0.81409203718007239 -0.14212158720570967  0.82427437482916388 0.82427437482915855 -0.1722850098067803  0.83522038780193131 0.83522038780192598 -0.20193753756777963  0.84693007609837978 0.84693007609837445 -0.23107917048870755  0.85940343971850974 0.85940343971850464 -0.25970990856956422  0.87264047866232097 0.87264047866231598 -0.28782975181034953  0.87964083579606722 0.87964083579606234 -0.30163422601070644  

0.40000000000000002 4
0.42499999999999999 1
0.45000000000000001 1
0.47499999999999998 1
0.5 4

0 3
0.029999999999999999 1
0.059999999999999998 1
0.089999999999999997 1
0.12 1
0.14999999999999999 1
0.17999999999999999 1
0.20999999999999999 1
0.23999999999999999 1
0.27000000000000002 1
0.29999999999999999 3

9 0 0 0 0 3 1 4 2 2 2 0.97155761395315021 0.71096414692173371 -0.28704620193656871  0.988436224658231 0.72331553698735873 -0.22806753358018791  
0.96243053799984946 0.72341549726722154 -0.28712245677071058  0.97915058645429376 0.73598320131383521 -0.2281819169752346  
0.95306987690569422 0.73568489845454066 -0.28826401485088793  0.969627305097293 0.74846575552805761 -0.22989427121904304  
0.94348208516851995 0.7477658959858553 -0.29013366179020161  0.95987294721732996 0.76075663299992491 -0.23269876967299824  

0.40000000000000002 4
0.42499999999999999 4

0.33333000000000002 2
0.5 2

9 0 0 0 0 1 2 2 10 2 7 0.80705800795126992 0.59058701192690377 0  0.87969322866689192 0.64373984300032583 -0.22500000000000003  0.96039902946200939 0.70279854419302024 -0.47500000000000009  0.96846960954152261 0.7087044143122847 -0.50000000000000011  1.0895283107342502 0.79729246610131577 -0.50000000000000011  1.3316457131195643 0.974468569679388 -0.50000000000000011  1.4527044143123131 1.0630566214684323 -0.50000000000000011  1.4607749943918185 1.0689624915876641 -0.47500000000000009  1.5414807951869407 1.1280211927803894 -0.22500000000000003  1.6141160159025674 1.1811740238538126 0  
0.96846960954152261 0.7087044143122847 0  0.96846960954152261 0.7087044143122847 -0.036655962122131708  1.0653165704956538 0.77957485574351371 -0.057020385523315995  1.0760773439350506 0.78744934923586929 -0.058830556492310379  1.1298812111317786 0.82682181669766763 -0.067881411337280262  1.2912928127220382 0.94493921908304646 -0.074669552471009731  1.3450966799187702 0.9843116865448448 -0.067881411337280262  1.3558574533581598 0.99218618003720838 -0.066523783110536  1.4527044143123131 1.0630566214684323 -0.048874616162842277  1.4527044143123131 1.0630566214684323 0  

0 2
1 2

0 3
0.29999999999999999 1
0.33333333333332998 2
0.5 1
0.66666666666666996 2
0.69999999999999996 1
1 3

9 0 0 1 0 11 4 11 5 2 2 0.98085762177299995 0.73016120820800001 -0.225342666498  0.98648653972300004 0.73428032455400005 -0.23454331630299999  0.99223066663899995 0.73848374824600005 -0.243638187683  0.99808716298400002 0.74276940137500003 -0.25262241023400001  1.0040528391779999 0.74713494987700002 -0.26149145823100001  
0.98453094992000001 0.73284926764500002 -0.22189190017800001  0.99012772822499995 0.73694486491699995 -0.23104001668599999  0.99583905726300004 0.74112428785399997 -0.24008295804900001  1.00166211453 0.74538547101300001 -0.24901588307899999  1.0075937296290001 0.74972609436799997 -0.25783429314799999  
0.99032318073500003 0.73264159708300003 -0.21844121206  0.99588782012400001 0.73671367581400005 -0.22753679646200001  1.0015663520260001 0.74086909854100003 -0.236527808984  1.007355970973 0.74510581228499995 -0.24540943765600001  1.0132535257490001 0.74942151105599997 -0.254177210943  
0.99662835606199995 0.72835376801100005 -0.216503387208  1.0021749469950001 0.73241263928599998 -0.22556947082100001  1.007835060801 0.73655458406200003 -0.23453132133400001  1.013605901579 0.74077755636099996 -0.24338414318500001  1.019484328883 0.74507925807499997 -0.252123480053  
1.000646575814 0.72041928299400004 -0.21759731403900001  1.0062033553309999 0.72448561004699996 -0.226680051223  1.0118738663860001 0.72863516329800004 -0.235658364062  1.017655307681 0.73286589281799996 -0.24452744773099999  1.023544532686 0.73717549604900001 -0.25328283732000001  
0.999666244328 0.71159325230899995 -0.22214847660500001  1.005265412328 0.71569059830600001 -0.23130049914600001  1.010979180001 0.71987180578200005 -0.24034730168499999  1.0168047235790001 0.72413480836800004 -0.24928404086399999  1.022738871239 0.72847728499300002 -0.25810621603799999  
0.99286583737300005 0.70661686649300004 -0.22853685639099999  0.99852450527500003 0.71075775318800005 -0.23778613345999999  1.0042989914339999 0.71498339309600001 -0.24692907368200001  1.0101864405450001 0.719291696767 -0.25596077960399999  1.0161836452740001 0.72368031714600001 -0.264876700425  
0.98415677699299997 0.70835241677600003 -0.23308801895699999  0.98985783337699995 0.71252432241499997 -0.242406581382  0.99567557615400004 0.71678161654799999 -0.251618011305  1.0016071275489999 0.72112219328500005 -0.26071737273700002  1.007649254932 0.72554368705899996 -0.26970007914299998  
0.97780959500599995 0.71458261928199995 -0.234181945788  0.98352083997399997 0.71876198069899999 -0.24351716178499999  0.98934898000000004 0.72302688330700005 -0.25274505403300002  0.99529113191100005 0.72737521726499998 -0.26186067728399998  1.0013440569959999 0.73180461255499996 -0.27085943640999999  
0.97563003463800002 0.72188948117100005 -0.232244120936  0.981323231149 0.72605563513100002 -0.241549836144  0.98713295308000004 0.73030705978900001 -0.25074856638300003  0.99305632682199996 0.73464165230199996 -0.25983538281200003  0.99909012443400003 0.73905705053500004 -0.26880570551999999  
0.97718429362500003 0.727473148771 -0.22879343281799999  0.98284535122100003 0.73161578419100004 -0.23804661592000001  0.98862227601599995 0.73584320863800001 -0.24719341731800001  0.99451221143799995 0.74015333173599995 -0.25622893738899999  1.000511948727 0.74454380538599996 -0.265148623315  

0 11
1 11

0 5
1 5

9 0 0 0 0 3 2 4 4 2 3 0.97376391007367891 0.71257866511052714 -0.20345981575816507  0.98088216170380815 0.71778764255572269 -0.21580949462182916  0.99599028761265374 0.72884343141899488 -0.24032557253854664  1.00398016189137 0.73469024283707141 -0.25249197159160003  
0.96461610757572624 0.72505829104725938 -0.20356476969770615  0.97166748841780359 0.73035849503797434 -0.21591936827728619  0.98663368449078381 0.74160790758969597 -0.24044446567318301  0.99454849972168669 0.74755711615070253 -0.25261496448949972  
0.95523418949180394 0.7373555546401136 -0.20513596212213253  0.96221698815189272 0.74274565210060128 -0.21756421034660756  0.97703762204269318 0.75418585895551393 -0.24222433209147848  0.98487545727340475 0.76023596834993878 -0.25445620561187432  
0.94562462497717381 0.74946398673382852 -0.20770926536303763  0.95253717735111099 0.75494259729856839 -0.2202581371769301  0.96720871708354905 0.76657066870128154 -0.24513940216906632  0.97496770444204972 0.77272012953925473 -0.25747179534731002  

0.40000000000000002 4
0.42499999999999999 4

0.23999999999999999 3
0.27000000000000002 1
0.29999999999999999 3

Triangulations 0

TShapes 41
Ve
5.000001e-06
0.94348208516852 0.747765895985855 -0.290133661790202
0 0

0101101
*
Ve
5.000001e-06
0.958247666649193 0.759468501090092 -0.321649147086238
0 0

0101101
*
Ed
 1.00000000271948e-07 1 1 0
1  1 0 0.27 0.3
2  1 2 0 0.27 0.3
2  2 1 0 0.27 0.3
0

0101000
+41 0 -40 0 *
Ve
1.00000000333067e-07
0.97496770444205 0.772720129539255 -0.25747179534731
0 0

0101101
*
Ed
 1.00000000271948e-07 1 1 0
1  2 0 0.33333 0.5
2  3 1 0 0.33333 0.5
2  4 3 0 0.33333 0.5
0

0101000
+40 0 -38 0 *
Ve
5.000001e-06
0.95987294721733 0.760756632999925 -0.232698769672998
0 0

0101101
*
Ed
 1.00000000271948e-07 1 1 0
1  3 0 0.27 0.3
2  5 1 0 0.27 0.3
2  6 4 0 0.27 0.3
0

0101000
+36 0 -38 0 *
Ed
 1.00000000124127e-07 1 1 0
1  4 0 0.33333 0.5
2  7 5 0 0.33333 0.5
2  8 1 0 0.33333 0.5
0

0101000
+41 0 -36 0 *
Wi

0101100
-39 0 -37 0 +35 0 +34 0 *
Fa
0  1e-07 1 0

0111000
+33 0 *
Ve
1.00000000333067e-07
0.97155761395315 0.710964146921734 -0.287046201936569
0 0

0101101
*
Ve
5.000001e-06
0.986762580043663 0.722090801265506 -0.318329297781257
0 0

0101101
*
Ed
 1.00000000248253e-07 1 1 0
1  5 0 0.27 0.3
2  9 2 0 0.27 0.3
2  10 6 0 0.27 0.3
0

0101000
+31 0 -30 0 *
Ed
 1.00000000166533e-07 1 1 0
1  6 0 0.4 0.425
2  11 2 0 0.4 0.425
2  12 3 0 0.4 0.425
0

0101000
+30 0 -40 0 *
Ed
 1.00000000333067e-07 1 1 0
1  7 0 0.4 0.425
2  13 5 0 0.4 0.425
2  14 2 0 0.4 0.425
0

0101000
+31 0 -41 0 *
Wi

0101100
-29 0 -28 0 +39 0 +27 0 *
Fa
0  1e-07 2 0

0111000
+26 0 *
Ve
5.000001e-06
1.00102213074754 0.73252562176001 -0.263803017650111
0 0

0101101
*
Ed
 1.00000000355445e-07 1 1 0
1  8 0 0.33333 0.471365604351226
2  15 3 0 0.33333 0.471365604351226
2  16 6 0 0.33333 0.471365604351226
0

0101000
+30 0 -24 0 *
Ve
5.00000138087041e-06
0.998037311028596 0.742729891006332 -0.252789083750197
0 0

0101101
*
Ed
 5e-06 1 1 0
1  9 0 0 0.983552535310814
2  17 7 0 0 0.983552535310814
2  18 3 0 0 0.983552535310814
0

0101000
+24 0 -22 0 *
Ed
 1.00000000333067e-07 1 1 0
1  10 0 0.405222926667026 0.425
2  19 4 0 0.405222926667026 0.425
2  20 3 0 0.405222926667026 0.425
0

0101000
+22 0 -38 0 *
Wi

0101100
-23 0 -21 0 -20 0 +37 0 +28 0 *
Fa
0  1e-07 3 0

0111000
+19 0 *
Ve
5.000001e-06
0.982492733325943 0.731354991038911 -0.228351398721074
0 0

0101101
*
Ed
 1.00000000315243e-07 1 1 0
1  11 0 0.40530519035912 0.425
2  21 5 0 0.40530519035912 0.425
2  22 4 0 0.40530519035912 0.425
0

0101000
+17 0 -36 0 *
Ed
 5e-06 1 1 0
1  12 0 0.104271734684809 1
2  23 7 0 0.104271734684809 1
2  24 4 0 0.104271734684809 1
2  25 8 0 0.104271734684809 1
0

0101000
+17 0 -22 0 *
Wi

0101100
+16 0 -15 0 -20 0 +35 0 *
Fa
0  1e-07 4 0

0111000
+14 0 *
Ve
5.000001e-06
0.985222742237426 0.720963982375317 -0.239296355506196
0 0

0101101
*
Ed
 1.00000000159444e-07 1 1 0
1  13 0 0.33333 0.468268056865933
2  26 5 0 0.33333 0.468268056865933
2  27 6 0 0.33333 0.468268056865933
0

0101000
+31 0 -12 0 *
Ed
 5e-06 1 1 0
1  14 0 0 1
2  28 7 0 0 1
2  29 5 0 0 1
0

0101000
+12 0 -17 0 *
Wi

0101100
-11 0 -10 0 -16 0 +34 0 +27 0 *
Fa
0  1e-07 5 0

0111000
+9 0 *
Ed
 5e-06 1 1 0
1  15 0 0.113884708082719 0.786274383321018
2  30 7 0 0.113884708082719 0.786274383321018
2  31 6 0 0.113884708082719 0.786274383321018
0

0101000
+24 0 -12 0 *
Wi

0101100
-23 0 -7 0 +11 0 -29 0 *
Fa
0  1e-07 6 0

0111000
+6 0 *
Wi

0101100
-21 0 +15 0 +10 0 +7 0 *
Fa
0  1e-07 7 0

0111000
+4 0 *
Sh

0101100
+32 0 +25 0 +18 0 -13 0 -8 0 -5 0 -3 0 *
So

0100000
+2 0 *

+1 0 