OFF
224 208 0
-0.1250000000 -0.5312500000 -0.9062500000
-0.1250000000 -0.6875000000 -0.8125000000
-0.3333333333 -0.6770833333 -0.8020833333
-0.3359375000 -0.5234375000 -0.8906250000
-0.6562500000 -0.5000000000 -0.7812500000
-0.5078125000 -0.5078125000 -0.8593750000
-0.5000000000 -0.6562500000 -0.7812500000
-0.6250000000 -0.6250000000 -0.7500000000
-0.5312500000 -0.1250000000 -0.9062500000
-0.5234375000 -0.3359375000 -0.8906250000
-0.6770833333 -0.3333333333 -0.8020833333
-0.6875000000 -0.1250000000 -0.8125000000
-0.1250000000 -0.3437500000 -0.9687500000
-0.3411458333 -0.3411458333 -0.9427083333
-0.3437500000 -0.1250000000 -0.9687500000
-0.1250000000 -0.1250000000 -1.0000000000
-0.1250000000 -0.9062500000 -0.5000000000
-0.3359375000 -0.8906250000 -0.4921875000
-0.3333333333 -0.8020833333 -0.6770833333
-0.1250000000 -0.8125000000 -0.6875000000
-0.3437500000 -0.9687500000 0.1562500000
-0.3411458333 -0.9427083333 -0.2473958333
-0.1250000000 -0.9687500000 -0.2500000000
-0.1250000000 -1.0000000000 0.1562500000
-0.5312500000 -0.9062500000 0.1562500000
-0.6875000000 -0.8125000000 0.1562500000
-0.6770833333 -0.8020833333 -0.2395833333
-0.5234375000 -0.8906250000 -0.2421875000
-0.6562500000 -0.7812500000 -0.4687500000
-0.6250000000 -0.7500000000 -0.6250000000
-0.5000000000 -0.7812500000 -0.6562500000
-0.5078125000 -0.8593750000 -0.4765625000
-0.9062500000 -0.1250000000 -0.5000000000
-0.8125000000 -0.1250000000 -0.6875000000
-0.8020833333 -0.3333333333 -0.6770833333
-0.8906250000 -0.3359375000 -0.4921875000
-0.7812500000 -0.5000000000 -0.6562500000
-0.7500000000 -0.6250000000 -0.6250000000
-0.7812500000 -0.6562500000 -0.4687500000
-0.8593750000 -0.5078125000 -0.4765625000
-0.9062500000 -0.5312500000 0.1562500000
-0.8906250000 -0.5234375000 -0.2421875000
-0.8020833333 -0.6770833333 -0.2395833333
-0.8125000000 -0.6875000000 0.1562500000
-0.9687500000 -0.1250000000 -0.2500000000
-0.9427083333 -0.3411458333 -0.2473958333
-0.9687500000 -0.3437500000 0.1562500000
-1.0000000000 -0.1250000000 0.1562500000
0.1250000000 -0.5312500000 -0.9062500000
0.3359375000 -0.5234375000 -0.8906250000
0.3333333333 -0.6770833333 -0.8020833333
0.1250000000 -0.6875000000 -0.8125000000
0.1250000000 -0.3437500000 -0.9687500000
0.1250000000 -0.1250000000 -1.0000000000
0.3437500000 -0.1250000000 -0.9687500000
0.3411458333 -0.3411458333 -0.9427083333
0.5312500000 -0.1250000000 -0.9062500000
0.6875000000 -0.1250000000 -0.8125000000
0.6770833333 -0.3333333333 -0.8020833333
0.5234375000 -0.3359375000 -0.8906250000
0.5000000000 -0.6562500000 -0.7812500000
0.5078125000 -0.5078125000 -0.8593750000
0.6562500000 -0.5000000000 -0.7812500000
0.6250000000 -0.6250000000 -0.7500000000
0.9062500000 -0.5312500000 0.1562500000
0.8125000000 -0.6875000000 0.1562500000
0.8020833333 -0.6770833333 -0.2395833333
0.8906250000 -0.5234375000 -0.2421875000
0.7812500000 -0.6562500000 -0.4687500000
0.7500000000 -0.6250000000 -0.6250000000
0.7812500000 -0.5000000000 -0.6562500000
0.8593750000 -0.5078125000 -0.4765625000
0.9062500000 -0.1250000000 -0.5000000000
0.8906250000 -0.3359375000 -0.4921875000
0.8020833333 -0.3333333333 -0.6770833333
0.8125000000 -0.1250000000 -0.6875000000
0.9687500000 -0.3437500000 0.1562500000
0.9427083333 -0.3411458333 -0.2473958333
0.9687500000 -0.1250000000 -0.2500000000
1.0000000000 -0.1250000000 0.1562500000
0.1250000000 -0.9062500000 -0.5000000000
0.1250000000 -0.8125000000 -0.6875000000
0.3333333333 -0.8020833333 -0.6770833333
0.3359375000 -0.8906250000 -0.4921875000
0.5000000000 -0.7812500000 -0.6562500000
0.6250000000 -0.7500000000 -0.6250000000
0.6562500000 -0.7812500000 -0.4687500000
0.5078125000 -0.8593750000 -0.4765625000
0.5312500000 -0.9062500000 0.1562500000
0.5234375000 -0.8906250000 -0.2421875000
0.6770833333 -0.8020833333 -0.2395833333
0.6875000000 -0.8125000000 0.1562500000
0.3437500000 -0.9687500000 0.1562500000
0.1250000000 -1.0000000000 0.1562500000
0.1250000000 -0.9687500000 -0.2500000000
0.3411458333 -0.9427083333 -0.2473958333
-0.1250000000 0.5312500000 -0.9062500000
-0.3359375000 0.5234375000 -0.8906250000
-0.3333333333 0.6770833333 -0.8020833333
-0.1250000000 0.6875000000 -0.8125000000
-0.1250000000 0.3437500000 -0.9687500000
-0.1250000000 0.1250000000 -1.0000000000
-0.3437500000 0.1250000000 -0.9687500000
-0.3411458333 0.3411458333 -0.9427083333
-0.5312500000 0.1250000000 -0.9062500000
-0.6875000000 0.1250000000 -0.8125000000
-0.6770833333 0.3333333333 -0.8020833333
-0.5234375000 0.3359375000 -0.8906250000
-0.5000000000 0.6562500000 -0.7812500000
-0.5078125000 0.5078125000 -0.8593750000
-0.6562500000 0.5000000000 -0.7812500000
-0.6250000000 0.6250000000 -0.7500000000
-0.9062500000 0.1250000000 -0.5000000000
-0.8906250000 0.3359375000 -0.4921875000
-0.8020833333 0.3333333333 -0.6770833333
-0.8125000000 0.1250000000 -0.6875000000
-0.9687500000 0.1250000000 -0.2500000000
-1.0000000000 0.1250000000 0.1562500000
-0.9687500000 0.3437500000 0.1562500000
-0.9427083333 0.3411458333 -0.2473958333
-0.9062500000 0.5312500000 0.1562500000
-0.8125000000 0.6875000000 0.1562500000
-0.8020833333 0.6770833333 -0.2395833333
-0.8906250000 0.5234375000 -0.2421875000
-0.7812500000 0.6562500000 -0.4687500000
-0.7500000000 0.6250000000 -0.6250000000
-0.7812500000 0.5000000000 -0.6562500000
-0.8593750000 0.5078125000 -0.4765625000
-0.1250000000 0.9062500000 -0.5000000000
-0.1250000000 0.8125000000 -0.6875000000
-0.3333333333 0.8020833333 -0.6770833333
-0.3359375000 0.8906250000 -0.4921875000
-0.5000000000 0.7812500000 -0.6562500000
-0.6250000000 0.7500000000 -0.6250000000
-0.6562500000 0.7812500000 -0.4687500000
-0.5078125000 0.8593750000 -0.4765625000
-0.5312500000 0.9062500000 0.1562500000
-0.5234375000 0.8906250000 -0.2421875000
-0.6770833333 0.8020833333 -0.2395833333
-0.6875000000 0.8125000000 0.1562500000
-0.1250000000 0.9687500000 -0.2500000000
-0.3411458333 0.9427083333 -0.2473958333
-0.3437500000 0.9687500000 0.1562500000
-0.1250000000 1.0000000000 0.1562500000
0.1250000000 0.5312500000 -0.9062500000
0.1250000000 0.6875000000 -0.8125000000
0.3333333333 0.6770833333 -0.8020833333
0.3359375000 0.5234375000 -0.8906250000
0.6562500000 0.5000000000 -0.7812500000
0.5078125000 0.5078125000 -0.8593750000
0.5000000000 0.6562500000 -0.7812500000
0.6250000000 0.6250000000 -0.7500000000
0.5312500000 0.1250000000 -0.9062500000
0.5234375000 0.3359375000 -0.8906250000
0.6770833333 0.3333333333 -0.8020833333
0.6875000000 0.1250000000 -0.8125000000
0.3437500000 0.1250000000 -0.9687500000
0.1250000000 0.1250000000 -1.0000000000
0.1250000000 0.3437500000 -0.9687500000
0.3411458333 0.3411458333 -0.9427083333
0.1250000000 0.9062500000 -0.5000000000
0.3359375000 0.8906250000 -0.4921875000
0.3333333333 0.8020833333 -0.6770833333
0.1250000000 0.8125000000 -0.6875000000
0.1250000000 0.9687500000 -0.2500000000
0.1250000000 1.0000000000 0.1562500000
0.3437500000 0.9687500000 0.1562500000
0.3411458333 0.9427083333 -0.2473958333
0.5312500000 0.9062500000 0.1562500000
0.6875000000 0.8125000000 0.1562500000
0.6770833333 0.8020833333 -0.2395833333
0.5234375000 0.8906250000 -0.2421875000
0.6562500000 0.7812500000 -0.4687500000
0.6250000000 0.7500000000 -0.6250000000
0.5000000000 0.7812500000 -0.6562500000
0.5078125000 0.8593750000 -0.4765625000
0.9062500000 0.5312500000 0.1562500000
0.8906250000 0.5234375000 -0.2421875000
0.8020833333 0.6770833333 -0.2395833333
0.8125000000 0.6875000000 0.1562500000
0.9687500000 0.3437500000 0.1562500000
1.0000000000 0.1250000000 0.1562500000
0.9687500000 0.1250000000 -0.2500000000
0.9427083333 0.3411458333 -0.2473958333
0.9062500000 0.1250000000 -0.5000000000
0.8125000000 0.1250000000 -0.6875000000
0.8020833333 0.3333333333 -0.6770833333
0.8906250000 0.3359375000 -0.4921875000
0.7812500000 0.5000000000 -0.6562500000
0.7500000000 0.6250000000 -0.6250000000
0.7812500000 0.6562500000 -0.4687500000
0.8593750000 0.5078125000 -0.4765625000
-1.0000000000 -0.1250000000 1.0000000000
-0.9687500000 -0.3437500000 1.0000000000
-0.9062500000 -0.5312500000 1.0000000000
-0.8125000000 -0.6875000000 1.0000000000
-0.6875000000 -0.8125000000 1.0000000000
-0.5312500000 -0.9062500000 1.0000000000
-0.3437500000 -0.9687500000 1.0000000000
-0.1250000000 -1.0000000000 1.0000000000
0.1250000000 -1.0000000000 1.0000000000
0.3437500000 -0.9687500000 1.0000000000
0.5312500000 -0.9062500000 1.0000000000
0.6875000000 -0.8125000000 1.0000000000
0.8125000000 -0.6875000000 1.0000000000
0.9062500000 -0.5312500000 1.0000000000
0.9687500000 -0.3437500000 1.0000000000
1.0000000000 -0.1250000000 1.0000000000
-0.1250000000 1.0000000000 1.0000000000
-0.3437500000 0.9687500000 1.0000000000
-0.5312500000 0.9062500000 1.0000000000
-0.6875000000 0.8125000000 1.0000000000
-0.8125000000 0.6875000000 1.0000000000
-0.9062500000 0.5312500000 1.0000000000
-0.9687500000 0.3437500000 1.0000000000
-1.0000000000 0.1250000000 1.0000000000
1.0000000000 0.1250000000 1.0000000000
0.9687500000 0.3437500000 1.0000000000
0.9062500000 0.5312500000 1.0000000000
0.8125000000 0.6875000000 1.0000000000
0.6875000000 0.8125000000 1.0000000000
0.5312500000 0.9062500000 1.0000000000
0.3437500000 0.9687500000 1.0000000000
0.1250000000 1.0000000000 1.0000000000
4 0 1 2 3
4 4 5 6 7
4 8 9 10 11
4 12 13 14 15
4 16 17 18 19
4 20 21 22 23
4 24 25 26 27
4 28 29 30 31
4 32 33 34 35
4 36 37 38 39
4 40 41 42 43
4 44 45 46 47
4 48 49 50 51
4 52 53 54 55
4 56 57 58 59
4 60 61 62 63
4 64 65 66 67
4 68 69 70 71
4 72 73 74 75
4 76 77 78 79
4 80 81 82 83
4 84 85 86 87
4 88 89 90 91
4 92 93 94 95
4 96 97 98 99
4 100 101 102 103
4 104 105 106 107
4 108 109 110 111
4 112 113 114 115
4 116 117 118 119
4 120 121 122 123
4 124 125 126 127
4 128 129 130 131
4 132 133 134 135
4 136 137 138 139
4 140 141 142 143
4 144 145 146 147
4 148 149 150 151
4 152 153 154 155
4 156 157 158 159
4 160 161 162 163
4 164 165 166 167
4 168 169 170 171
4 172 173 174 175
4 176 177 178 179
4 180 181 182 183
4 184 185 186 187
4 188 189 190 191
4 3 5 9 13
4 17 21 27 31
4 35 39 41 45
4 49 55 59 61
4 67 71 73 77
4 83 87 89 95
4 97 103 107 109
4 113 119 123 127
4 131 135 137 141
4 147 149 153 159
4 161 167 171 175
4 177 183 187 191
3 7 29 37
3 63 69 85
3 111 125 133
3 151 173 189
4 47 192 215 117
4 79 181 216 207
4 23 93 200 199
4 143 208 223 165
4 15 101 157 53
4 195 43 25 196
4 121 212 211 139
4 33 115 105 11
4 185 75 57 155
4 219 179 169 220
4 65 204 203 91
4 81 19 1 51
4 129 163 145 99
4 30 6 2 18
4 38 28 26 42
4 4 36 34 10
4 70 62 58 74
4 86 68 66 90
4 60 84 82 50
4 126 110 106 114
4 134 124 122 138
4 108 132 130 98
4 174 150 146 162
4 190 172 170 178
4 148 188 186 154
4 193 46 40 194
4 118 214 213 120
4 44 116 112 32
4 182 78 72 184
4 217 180 176 218
4 76 206 205 64
4 94 22 16 80
4 201 92 88 202
4 20 198 197 24
4 209 142 136 210
4 166 222 221 168
4 140 164 160 128
4 102 14 8 104
4 158 100 96 144
4 54 156 152 56
4 12 52 48 0
4 5 3 2 6
4 9 5 4 10
4 13 9 8 14
4 3 13 12 0
4 21 17 16 22
4 27 21 20 24
4 31 27 26 28
4 17 31 30 18
4 39 35 34 36
4 41 39 38 42
4 45 41 40 46
4 35 45 44 32
4 55 49 48 52
4 59 55 54 56
4 61 59 58 62
4 49 61 60 50
4 71 67 66 68
4 73 71 70 74
4 77 73 72 78
4 67 77 76 64
4 87 83 82 84
4 89 87 86 90
4 95 89 88 92
4 83 95 94 80
4 103 97 96 100
4 107 103 102 104
4 109 107 106 110
4 97 109 108 98
4 119 113 112 116
4 123 119 118 120
4 127 123 122 124
4 113 127 126 114
4 135 131 130 132
4 137 135 134 138
4 141 137 136 142
4 131 141 140 128
4 149 147 146 150
4 153 149 148 154
4 159 153 152 156
4 147 159 158 144
4 167 161 160 164
4 171 167 166 168
4 175 171 170 172
4 161 175 174 162
4 183 177 176 180
4 187 183 182 184
4 191 187 186 188
4 177 191 190 178
4 29 7 6 30
4 37 29 28 38
4 7 37 36 4
4 69 63 62 70
4 85 69 68 86
4 63 85 84 60
4 125 111 110 126
4 133 125 124 134
4 111 133 132 108
4 173 151 150 174
4 189 173 172 190
4 151 189 188 148
4 192 47 46 193
4 117 215 214 118
4 47 117 116 44
4 181 79 78 182
4 216 181 180 217
4 79 207 206 76
4 93 23 22 94
4 200 93 92 201
4 23 199 198 20
4 208 143 142 209
4 143 165 164 140
4 101 15 14 102
4 157 101 100 158
4 53 157 156 54
4 15 53 52 12
4 43 195 194 40
4 25 43 42 26
4 196 25 24 197
4 212 121 120 213
4 139 211 210 136
4 121 139 138 122
4 115 33 32 112
4 105 115 114 106
4 11 105 104 8
4 33 11 10 34
4 75 185 184 72
4 57 75 74 58
4 155 57 56 152
4 185 155 154 186
4 179 219 218 176
4 169 179 178 170
4 220 169 168 221
4 204 65 64 205
4 91 203 202 88
4 65 91 90 66
4 19 81 80 16
4 1 19 18 2
4 51 1 0 48
4 81 51 50 82
4 163 129 128 160
4 145 163 162 146
4 99 145 144 96
4 129 99 98 130
