OFF
61 40 0
0.0 0.0 0.0
0.769421 0.559017 0.0
1.22585 0.398303 0.0
0.951057 -3.1225e-16 0.0
1.22585 -0.398303 0.0
0.769421 -0.559017 0.0
0.757617 -1.04277 0.0
0.293893 -0.904508 0.0
1.88738e-15 -1.28893 0.0
-0.293893 -0.904508 0.0
-0.757617 -1.04277 0.0
-0.769421 -0.559017 0.0
-1.22585 -0.398303 0.0
-0.951057 -1.249e-16 0.0
-1.22585 0.398303 0.0
-0.769421 0.559017 0.0
-0.757617 1.04277 0.0
-0.293893 0.904508 0.0
-1.33227e-15 1.28893 0.0
0.293893 0.904508 0.0
0.757617 1.04277 0.0
1.53884 1.11803 0.0
1.85787 0.912677 0.0
2.4517 0.796605 0.0
2.03951 0.35366 0.0
1.90211 -2.08167e-16 0.0
2.03951 -0.35366 0.0
2.4517 -0.796605 0.0
1.85787 -0.912677 0.0
1.53884 -1.11803 0.0
1.44212 -1.48491 0.0
1.51523 -2.08554 0.0
0.966594 -1.8304 0.0
0.587785 -1.80902 0.0
0.293893 -2.04898 0.0
3.55271e-15 -2.57787 0.0
-0.293893 -2.04898 0.0
-0.587785 -1.80902 0.0
-0.966594 -1.8304 0.0
-1.51523 -2.08554 0.0
-1.44212 -1.48491 0.0
-1.53884 -1.11803 0.0
-1.85787 -0.912677 0.0
-2.4517 -0.796605 0.0
-2.03951 -0.35366 0.0
-1.90211 -1.11022e-16 0.0
-2.03951 0.35366 0.0
-2.4517 0.796605 0.0
-1.85787 0.912677 0.0
-1.53884 1.11803 0.0
-1.44212 1.48491 0.0
-1.51523 2.08554 0.0
-0.966594 1.8304 0.0
-0.587785 1.80902 0.0
-0.293893 2.04898 0.0
-2.55351e-15 2.57787 0.0
0.293893 2.04898 0.0
0.587785 1.80902 0.0
0.966594 1.8304 0.0
1.51523 2.08554 0.0
1.44212 1.48491 0.0
4 0 1 2 3
4 0 3 4 5
4 0 5 6 7
4 0 7 8 9
4 0 9 10 11
4 0 11 12 13
4 0 13 14 15
4 0 15 16 17
4 0 17 18 19
4 0 19 20 1
4 1 21 22 2
4 2 22 23 24
4 3 2 24 25
4 3 25 26 4
4 4 26 27 28
4 5 4 28 29
4 5 29 30 6
4 6 30 31 32
4 7 6 32 33
4 7 33 34 8
4 8 34 35 36
4 9 8 36 37
4 9 37 38 10
4 10 38 39 40
4 11 10 40 41
4 11 41 42 12
4 12 42 43 44
4 13 12 44 45
4 13 45 46 14
4 14 46 47 48
4 15 14 48 49
4 15 49 50 16
4 16 50 51 52
4 17 16 52 53
4 17 53 54 18
4 18 54 55 56
4 19 18 56 57
4 19 57 58 20
4 20 58 59 60
4 1 20 60 21
