OFF
55 36 0
0.0 0.0 0.0
0.939693 -3.60822e-16 0.0
1.19678 0.435593 0.0
0.719846 0.604023 0.0
0.636794 1.10296 0.0
0.163176 0.925417 0.0
-0.221156 1.25424 0.0
-0.469846 0.813798 0.0
-0.975624 0.818646 0.0
-0.883022 0.321394 0.0
-1.27359 2.22045e-16 0.0
-0.883022 -0.321394 0.0
-0.975624 -0.818646 0.0
-0.469846 -0.813798 0.0
-0.221156 -1.25424 0.0
0.163176 -0.925417 0.0
0.636794 -1.10296 0.0
0.719846 -0.604023 0.0
1.19678 -0.435593 0.0
1.87939 -4.16334e-16 0.0
2.00793 0.388806 0.0
2.39356 0.871185 0.0
1.78808 0.992829 0.0
1.43969 1.20805 0.0
1.28824 1.58851 0.0
1.27359 2.20592 0.0
0.731573 1.90991 0.0
0.326352 1.85083 0.0
-0.0342262 2.04494 0.0
-0.442312 2.50848 0.0
-0.667248 1.93332 0.0
-0.939693 1.6276 0.0
-1.34068 1.54451 0.0
-1.95125 1.63729 0.0
-1.75386 1.05211 0.0
-1.76604 0.642788 0.0
-2.01982 0.321394 0.0
-2.54717 -2.22045e-16 0.0
-2.01982 -0.321394 0.0
-1.76604 -0.642788 0.0
-1.75386 -1.05211 0.0
-1.95125 -1.63729 0.0
-1.34068 -1.54451 0.0
-0.939693 -1.6276 0.0
-0.667248 -1.93332 0.0
-0.442312 -2.50848 0.0
-0.0342262 -2.04494 0.0
0.326352 -1.85083 0.0
0.731573 -1.90991 0.0
1.27359 -2.20592 0.0
1.28824 -1.58851 0.0
1.43969 -1.20805 0.0
1.78808 -0.992829 0.0
2.39356 -0.871185 0.0
2.00793 -0.388806 0.0
4 0 1 2 3
4 0 3 4 5
4 0 5 6 7
4 0 7 8 9
4 0 9 10 11
4 0 11 12 13
4 0 13 14 15
4 0 15 16 17
4 0 17 18 1
4 1 19 20 2
4 2 20 21 22
4 3 2 22 23
4 3 23 24 4
4 4 24 25 26
4 5 4 26 27
4 5 27 28 6
4 6 28 29 30
4 7 6 30 31
4 7 31 32 8
4 8 32 33 34
4 9 8 34 35
4 9 35 36 10
4 10 36 37 38
4 11 10 38 39
4 11 39 40 12
4 12 40 41 42
4 13 12 42 43
4 13 43 44 14
4 14 44 45 46
4 15 14 46 47
4 15 47 48 16
4 16 48 49 50
4 17 16 50 51
4 17 51 52 18
4 18 52 53 54
4 1 18 54 19
