OFF
43 28 0
0.0 0.0 0.0
0.900969 8.53484e-16 0.0
1.10159 0.530499 0.0
0.561745 0.704406 0.0
0.272071 1.19202 0.0
-0.200484 0.87838 0.0
-0.762325 0.955926 0.0
-0.811745 0.390916 0.0
-1.22267 9.99201e-16 0.0
-0.811745 -0.390916 0.0
-0.762325 -0.955926 0.0
-0.200484 -0.87838 0.0
0.272071 -1.19202 0.0
0.561745 -0.704406 0.0
1.10159 -0.530499 0.0
1.80194 1.29063e-15 0.0
1.90225 0.482191 0.0
2.20318 1.061 0.0
1.56303 1.1866 0.0
1.12349 1.40881 0.0
0.809041 1.78788 0.0
0.544142 2.38404 0.0
0.0468114 1.96185 0.0
-0.400969 1.75676 0.0
-0.893392 1.74726 0.0
-1.52465 1.91185 0.0
-1.50465 1.25979 0.0
-1.62349 0.781831 0.0
-1.92308 0.390916 0.0
-2.44535 2.94209e-15 0.0
-1.92308 -0.390916 0.0
-1.62349 -0.781831 0.0
-1.50465 -1.25979 0.0
-1.52465 -1.91185 0.0
-0.893392 -1.74726 0.0
-0.400969 -1.75676 0.0
0.0468114 -1.96185 0.0
0.544142 -2.38404 0.0
0.809041 -1.78788 0.0
1.12349 -1.40881 0.0
1.56303 -1.1866 0.0
2.20318 -1.061 0.0
1.90225 -0.482191 0.0
4 0 1 2 3
4 0 3 4 5
4 0 5 6 7
4 0 7 8 9
4 0 9 10 11
4 0 11 12 13
4 0 13 14 1
4 1 15 16 2
4 2 16 17 18
4 3 2 18 19
4 3 19 20 4
4 4 20 21 22
4 5 4 22 23
4 5 23 24 6
4 6 24 25 26
4 7 6 26 27
4 7 27 28 8
4 8 28 29 30
4 9 8 30 31
4 9 31 32 10
4 10 32 33 34
4 11 10 34 35
4 11 35 36 12
4 12 36 37 38
4 13 12 38 39
4 13 39 40 14
4 14 40 41 42
4 1 14 42 15
