OFF
31 20 0
0.0 0.0 0.0
0.25 0.769421 0.0
0.898303 0.652655 0.0
0.809017 -6.66134e-16 0.0
0.898303 -0.652655 0.0
0.25 -0.769421 0.0
-0.343121 -1.05602 0.0
-0.654508 -0.475528 0.0
-1.11036 2.22045e-16 0.0
-0.654508 0.475528 0.0
-0.343121 1.05602 0.0
0.5 1.53884 0.0
1.10366 1.38964 0.0
1.79661 1.30531 0.0
1.66268 0.62022 0.0
1.61803 -1.8735e-15 0.0
1.66268 -0.62022 0.0
1.79661 -1.30531 0.0
1.10366 -1.38964 0.0
0.5 -1.53884 0.0
-0.076069 -1.77296 0.0
-0.686242 -2.11204 0.0
-0.980578 -1.47907 0.0
-1.30902 -0.951057 0.0
-1.70969 -0.475528 0.0
-2.22073 1.27676e-15 0.0
-1.70969 0.475528 0.0
-1.30902 0.951057 0.0
-0.980578 1.47907 0.0
-0.686242 2.11204 0.0
-0.076069 1.77296 0.0
4 0 1 2 3
4 0 3 4 5
4 0 5 6 7
4 0 7 8 9
4 0 9 10 1
4 1 11 12 2
4 2 12 13 14
4 3 2 14 15
4 3 15 16 4
4 4 16 17 18
4 5 4 18 19
4 5 19 20 6
4 6 20 21 22
4 7 6 22 23
4 7 23 24 8
4 8 24 25 26
4 9 8 26 27
4 9 27 28 10
4 10 28 29 30
4 1 10 30 11
