OFF
43 28 0
0.0 0.0 0.25692180538286746
0.900969 0.000000000000000853484 0.8718603547582757
1.10159 0.530499 0.03326565681687854
0.561745 0.704406 0.3993631776957025
0.272071 1.19202 0.9062580004548266
-0.200484 0.87838 0.03522717220036764
-0.762325 0.955926 0.9182965421128879
-0.811745 0.390916 0.5094702102731945
-1.22267 0.000000000000000999201 0.4993355880472503
-0.811745 -0.390916 0.31080737129131153
-0.762325 -0.955926 0.3530995478509551
-0.200484 -0.87838 0.5051579820415304
0.272071 -1.19202 0.09253102042115668
0.561745 -0.704406 0.9047013835708533
1.10159 -0.530499 0.9639446483280985
1.80194 0.00000000000000129063 0.15040545535019856
1.90225 0.482191 0.39650971645433497
2.20318 1.061 0.7855505833618601
1.56303 1.1866 0.32847134350519025
1.12349 1.40881 0.21403337287647073
0.809041 1.78788 0.4482925765373751
0.544142 2.38404 0.09961409281783351
0.0468114 1.96185 0.0018017033471919852
-0.400969 1.75676 0.7178282986036681
-0.893392 1.74726 0.6421895464599092
-1.52465 1.91185 0.25875559190200326
-1.50465 1.25979 0.9991652069912853
-1.62349 0.781831 0.07547719759999971
-1.92308 0.390916 0.33623647759973574
-2.44535 0.00000000000000294209 0.22125879905930423
-1.92308 -0.390916 0.6274322770094483
-1.62349 -0.781831 0.7593390325678131
-1.50465 -1.25979 0.7381711210375743
-1.52465 -1.91185 0.04314278184321019
-0.893392 -1.74726 0.9702451208102834
-0.400969 -1.75676 0.6467899153487116
0.0468114 -1.96185 0.6807961630945876
0.544142 -2.38404 0.38170500792516204
0.809041 -1.78788 0.6946409832975087
1.12349 -1.40881 0.31027545123916567
1.56303 -1.1866 0.5583507398148901
2.20318 -1.061 0.9086691511616225
1.90225 -0.482191 0.3393713027527159
4 0 1 2 3
4 0 3 4 5
4 0 5 6 7
4 0 7 8 9
4 0 9 10 11
4 0 11 12 13
4 0 13 14 1
4 1 15 16 2
4 2 16 17 18
4 3 2 18 19
4 3 19 20 4
4 4 20 21 22
4 5 4 22 23
4 5 23 24 6
4 6 24 25 26
4 7 6 26 27
4 7 27 28 8
4 8 28 29 30
4 9 8 30 31
4 9 31 32 10
4 10 32 33 34
4 11 10 34 35
4 11 35 36 12
4 12 36 37 38
4 13 12 38 39
4 13 39 40 14
4 14 40 41 42
4 1 14 42 15