OFF
49 32 0
0.0 0.0 0.6073908882282126
0.92388 0.00000000000000158207 0.12351414797498173
1.15719 0.479326 0.007870239530255452
0.653281 0.653281 0.4894740966994693
0.479326 1.15719 0.8605870672487355
0.000000000000000957567 0.92388 0.871105202635513
-0.479326 1.15719 0.1403288466886763
-0.653281 0.653281 0.5116933417467393
-1.15719 0.479326 0.8575543414931037
-0.92388 -0.00000000000000068695 0.5750647434685141
-1.15719 -0.479326 0.23942517865735624
-0.653281 -0.653281 0.9585707623164326
-0.479326 -1.15719 0.029663539968655783
-0.000000000000000381639 -0.92388 0.12109560057878332
0.479326 -1.15719 0.8392113903399341
0.653281 -0.653281 0.5504374333601123
1.15719 -0.479326 0.3816377172952661
1.84776 0.00000000000000250494 0.5646650456518405
1.96442 0.431005 0.8125372521615553
2.31439 0.958651 0.8774794088241096
1.69382 1.08429 0.23877775225176578
1.30656 1.30656 0.8087847513741317
1.08429 1.69382 0.02861992234260069
0.958651 2.31439 0.5114579607122376
0.431005 1.96442 0.19207002142636687
0.0000000000000022482 1.84776 0.019679352830137775
-0.431005 1.96442 0.9692729772874138
-0.958651 2.31439 0.7620899067779994
-1.08429 1.69382 0.22740261363113268
-1.30656 1.30656 0.8142555127905997
-1.69382 1.08429 0.20565539599725757
-2.31439 0.958651 0.5732876724364366
-1.96442 0.431005 0.3296646264840004
-1.84776 -0.00000000000000088124 0.7642158197120617
-1.96442 -0.431005 0.6358837478145594
-2.31439 -0.958651 0.9860110562731934
-1.69382 -1.08429 0.7280880296891452
-1.30656 -1.30656 0.8825856743138187
-1.08429 -1.69382 0.39024501911105314
-0.958651 -2.31439 0.8356457881725421
-0.431005 -1.96442 0.2328620766525813
-0.00000000000000122125 -1.84776 0.8707482332848011
0.431005 -1.96442 0.6504223112981928
0.958651 -2.31439 0.35201191758515726
1.08429 -1.69382 0.38162960092475573
1.30656 -1.30656 0.10709404348703644
1.69382 -1.08429 0.16274842140919032
2.31439 -0.958651 0.9328894720496217
1.96442 -0.431005 0.0739771106220326
4 0 1 2 3
4 0 3 4 5
4 0 5 6 7
4 0 7 8 9
4 0 9 10 11
4 0 11 12 13
4 0 13 14 15
4 0 15 16 1
4 1 17 18 2
4 2 18 19 20
4 3 2 20 21
4 3 21 22 4
4 4 22 23 24
4 5 4 24 25
4 5 25 26 6
4 6 26 27 28
4 7 6 28 29
4 7 29 30 8
4 8 30 31 32
4 9 8 32 33
4 9 33 34 10
4 10 34 35 36
4 11 10 36 37
4 11 37 38 12
4 12 38 39 40
4 13 12 40 41
4 13 41 42 14
4 14 42 43 44
4 15 14 44 45
4 15 45 46 16
4 16 46 47 48
4 1 16 48 17