OFF
19 12 0
0.0 0.0 0.44739479567015183
0.5 0.0 0.2670685225364906
0.410714 0.711378 0.4168497541852749
-0.25 0.433013 0.289219357695643
-0.821429 0.0 0.6840311956720437
-0.25 -0.433013 0.678254878528274
0.410714 -0.711378 0.45688062341217206
1.0 0.0 0.9893546227191272
0.955357 0.788702 0.10120187081073029
0.821429 1.42276 0.154457418328106
0.205357 1.22171 0.012038687258165703
-0.5 0.866025 0.9391569442798848
-1.16071 0.433013 0.9527301291649735
-1.64286 0.0 0.3562948777929871
-1.16071 -0.433013 0.9494049833134912
-0.5 -0.866025 0.3145077607979161
0.205357 -1.22171 0.8075257259363071
0.821429 -1.42276 0.3440434090118314
0.955357 -0.788702 0.1480213107944528
4 0 1 2 3
4 0 3 4 5
4 0 5 6 1
4 1 7 8 2
4 2 8 9 10
4 3 2 10 11
4 3 11 12 4
4 4 12 13 14
4 5 4 14 15
4 5 15 16 6
4 6 16 17 18
4 1 6 18 7