OFF
49 32 0
0.0 0.0 0.0
0.92388 1.58207e-15 0.0
1.15719 0.479326 0.0
0.653281 0.653281 0.0
0.479326 1.15719 0.0
9.57567e-16 0.92388 0.0
-0.479326 1.15719 0.0
-0.653281 0.653281 0.0
-1.15719 0.479326 0.0
-0.92388 -6.8695e-16 0.0
-1.15719 -0.479326 0.0
-0.653281 -0.653281 0.0
-0.479326 -1.15719 0.0
-3.81639e-16 -0.92388 0.0
0.479326 -1.15719 0.0
0.653281 -0.653281 0.0
1.15719 -0.479326 0.0
1.84776 2.50494e-15 0.0
1.96442 0.431005 0.0
2.31439 0.958651 0.0
1.69382 1.08429 0.0
1.30656 1.30656 0.0
1.08429 1.69382 0.0
0.958651 2.31439 0.0
0.431005 1.96442 0.0
2.2482e-15 1.84776 0.0
-0.431005 1.96442 0.0
-0.958651 2.31439 0.0
-1.08429 1.69382 0.0
-1.30656 1.30656 0.0
-1.69382 1.08429 0.0
-2.31439 0.958651 0.0
-1.96442 0.431005 0.0
-1.84776 -8.8124e-16 0.0
-1.96442 -0.431005 0.0
-2.31439 -0.958651 0.0
-1.69382 -1.08429 0.0
-1.30656 -1.30656 0.0
-1.08429 -1.69382 0.0
-0.958651 -2.31439 0.0
-0.431005 -1.96442 0.0
-1.22125e-15 -1.84776 0.0
0.431005 -1.96442 0.0
0.958651 -2.31439 0.0
1.08429 -1.69382 0.0
1.30656 -1.30656 0.0
1.69382 -1.08429 0.0
2.31439 -0.958651 0.0
1.96442 -0.431005 0.0
4 0 1 2 3
4 0 3 4 5
4 0 5 6 7
4 0 7 8 9
4 0 9 10 11
4 0 11 12 13
4 0 13 14 15
4 0 15 16 1
4 1 17 18 2
4 2 18 19 20
4 3 2 20 21
4 3 21 22 4
4 4 22 23 24
4 5 4 24 25
4 5 25 26 6
4 6 26 27 28
4 7 6 28 29
4 7 29 30 8
4 8 30 31 32
4 9 8 32 33
4 9 33 34 10
4 10 34 35 36
4 11 10 36 37
4 11 37 38 12
4 12 38 39 40
4 13 12 40 41
4 13 41 42 14
4 14 42 43 44
4 15 14 44 45
4 15 45 46 16
4 16 46 47 48
4 1 16 48 17
