OFF
61 40 0
0.0 0.0 0.2853633307926413
0.769421 0.559017 0.29064011073210305
1.22585 0.398303 0.25758858715575506
0.951057 -0.00000000000000031225 0.2572009467884284
1.22585 -0.398303 0.39161221900993404
0.769421 -0.559017 0.5372315880678444
0.757617 -1.04277 0.490944147901452
0.293893 -0.904508 0.9170925818893938
0.00000000000000188738 -1.28893 0.08380776645924581
-0.293893 -0.904508 0.31409818079154705
-0.757617 -1.04277 0.9147231996846605
-0.769421 -0.559017 0.14976242354458358
-1.22585 -0.398303 0.4614483762842707
-0.951057 -0.0000000000000001249 0.8924871456582089
-1.22585 0.398303 0.28182141025962326
-0.769421 0.559017 0.08809249484301729
-0.757617 1.04277 0.8415607742134206
-0.293893 0.904508 0.4642356608445599
-0.00000000000000133227 1.28893 0.9266754626721911
0.293893 0.904508 0.5984806079825211
0.757617 1.04277 0.19831611069868638
1.53884 1.11803 0.655930911030163
1.85787 0.912677 0.8315707901266962
2.4517 0.796605 0.06136275534561575
2.03951 0.35366 0.4167883274121822
1.90211 -0.000000000000000208167 0.8598761580611056
2.03951 -0.35366 0.4842606117137296
2.4517 -0.796605 0.3822735229806
1.85787 -0.912677 0.8925420957614676
1.53884 -1.11803 0.3690915739428706
1.44212 -1.48491 0.38240762583932053
1.51523 -2.08554 0.04886885684261655
0.966594 -1.8304 0.7095736112285829
0.587785 -1.80902 0.2955360559963134
0.293893 -2.04898 0.6090814136640554
0.00000000000000355271 -2.57787 0.3988758175557341
-0.293893 -2.04898 0.34737412354012354
-0.587785 -1.80902 0.5161257018387744
-0.966594 -1.8304 0.4072582715243085
-1.51523 -2.08554 0.46222265843153965
-1.44212 -1.48491 0.3562400410845463
-1.53884 -1.11803 0.6695086775202741
-1.85787 -0.912677 0.23597311566069612
-2.4517 -0.796605 0.7533657889256333
-2.03951 -0.35366 0.05162656396734011
-1.90211 -0.000000000000000111022 0.2854032757409344
-2.03951 0.35366 0.12342191416776371
-2.4517 0.796605 0.20936903471585344
-1.85787 0.912677 0.932856243821272
-1.53884 1.11803 0.20702518307589846
-1.44212 1.48491 0.8801766198270726
-1.51523 2.08554 0.7858130504537746
-0.966594 1.8304 0.8180432229001295
-0.587785 1.80902 0.14274928087587324
-0.293893 2.04898 0.14594099356488432
-0.00000000000000255351 2.57787 0.8579020541065989
0.293893 2.04898 0.7548183877837384
0.587785 1.80902 0.8428255577696333
0.966594 1.8304 0.9430852211921819
1.51523 2.08554 0.10639338051761205
1.44212 1.48491 0.8758832468207791
4 0 1 2 3
4 0 3 4 5
4 0 5 6 7
4 0 7 8 9
4 0 9 10 11
4 0 11 12 13
4 0 13 14 15
4 0 15 16 17
4 0 17 18 19
4 0 19 20 1
4 1 21 22 2
4 2 22 23 24
4 3 2 24 25
4 3 25 26 4
4 4 26 27 28
4 5 4 28 29
4 5 29 30 6
4 6 30 31 32
4 7 6 32 33
4 7 33 34 8
4 8 34 35 36
4 9 8 36 37
4 9 37 38 10
4 10 38 39 40
4 11 10 40 41
4 11 41 42 12
4 12 42 43 44
4 13 12 44 45
4 13 45 46 14
4 14 46 47 48
4 15 14 48 49
4 15 49 50 16
4 16 50 51 52
4 17 16 52 53
4 17 53 54 18
4 18 54 55 56
4 19 18 56 57
4 19 57 58 20
4 20 58 59 60
4 1 20 60 21