OFF
19 12 0
0.0 0.0 0.0
0.5 0.0 0.0
0.410714 0.711378 0.0
-0.25 0.433013 0.0
-0.821429 0.0 0.0
-0.25 -0.433013 0.0
0.410714 -0.711378 0.0
1.0 0.0 0.0
0.955357 0.788702 0.0
0.821429 1.42276 0.0
0.205357 1.22171 0.0
-0.5 0.866025 0.0
-1.16071 0.433013 0.0
-1.64286 0.0 0.0
-1.16071 -0.433013 0.0
-0.5 -0.866025 0.0
0.205357 -1.22171 0.0
0.821429 -1.42276 0.0
0.955357 -0.788702 0.0
4 0 1 2 3
4 0 3 4 5
4 0 5 6 1
4 1 7 8 2
4 2 8 9 10
4 3 2 10 11
4 3 11 12 4
4 4 12 13 14
4 5 4 14 15
4 5 15 16 6
4 6 16 17 18
4 1 6 18 7
