OFF
55 36 0
0.0 0.0 0.6802345235124683
0.939693 -0.000000000000000360822 0.058148409477937646
1.19678 0.435593 0.20746547359462997
0.719846 0.604023 0.46664536647577304
0.636794 1.10296 0.04824595150283395
0.163176 0.925417 0.10077586590002041
-0.221156 1.25424 0.7404859175943508
-0.469846 0.813798 0.22367033801033664
-0.975624 0.818646 0.2065090665443423
-0.883022 0.321394 0.2079321860572152
-1.27359 0.000000000000000222045 0.14559012405468108
-0.883022 -0.321394 0.16027038822421646
-0.975624 -0.818646 0.6358045113121746
-0.469846 -0.813798 0.7753595035815424
-0.221156 -1.25424 0.5706360627447513
0.163176 -0.925417 0.7568739905703354
0.636794 -1.10296 0.3455429667203005
0.719846 -0.604023 0.17192367739737113
1.19678 -0.435593 0.04961882477223889
1.87939 -0.000000000000000416334 0.4285319980562916
2.00793 0.388806 0.3805411749220651
2.39356 0.871185 0.10869595627886275
1.78808 0.992829 0.08727170932096029
1.43969 1.20805 0.9902207492258346
1.28824 1.58851 0.5645613828066336
1.27359 2.20592 0.822263627578921
0.731573 1.90991 0.22154281012170518
0.326352 1.85083 0.3365267552623554
-0.0342262 2.04494 0.1982421921900932
-0.442312 2.50848 0.9398537325068608
-0.667248 1.93332 0.9486235254652935
-0.939693 1.6276 0.4903614783651469
-1.34068 1.54451 0.035965104103858225
-1.95125 1.63729 0.9253952081867252
-1.75386 1.05211 0.15370169994272076
-1.76604 0.642788 0.4222780800231509
-2.01982 0.321394 0.10618644506025854
-2.54717 -0.000000000000000222045 0.9869881401363956
-2.01982 -0.321394 0.9462313735776244
-1.76604 -0.642788 0.8960959535838084
-1.75386 -1.05211 0.2981448449102475
-1.95125 -1.63729 0.45594429031096495
-1.34068 -1.54451 0.6009321592178478
-0.939693 -1.6276 0.5132721326980099
-0.667248 -1.93332 0.5964593199055703
-0.442312 -2.50848 0.6394907718746308
-0.0342262 -2.04494 0.5783514443099909
0.326352 -1.85083 0.877983082162795
0.731573 -1.90991 0.05036656650022531
1.27359 -2.20592 0.0006891070818857425
1.28824 -1.58851 0.9262460035174149
1.43969 -1.20805 0.9965465549080512
1.78808 -0.992829 0.8603679007938001
2.39356 -0.871185 0.29457891646948275
2.00793 -0.388806 0.27333189870439734
4 0 1 2 3
4 0 3 4 5
4 0 5 6 7
4 0 7 8 9
4 0 9 10 11
4 0 11 12 13
4 0 13 14 15
4 0 15 16 17
4 0 17 18 1
4 1 19 20 2
4 2 20 21 22
4 3 2 22 23
4 3 23 24 4
4 4 24 25 26
4 5 4 26 27
4 5 27 28 6
4 6 28 29 30
4 7 6 30 31
4 7 31 32 8
4 8 32 33 34
4 9 8 34 35
4 9 35 36 10
4 10 36 37 38
4 11 10 38 39
4 11 39 40 12
4 12 40 41 42
4 13 12 42 43
4 13 43 44 14
4 14 44 45 46
4 15 14 46 47
4 15 47 48 16
4 16 48 49 50
4 17 16 50 51
4 17 51 52 18
4 18 52 53 54
4 1 18 54 19