OFF
37 24 0
0.0 0.0 0.9267865517539973
0.433013 0.75 0.9875313031315562
1.02067 0.589286 0.4157659068133488
0.866025 -0.00000000000000100614 0.9918562500067627
1.02067 -0.589286 0.47703094672198354
0.433013 -0.75 0.22452723100317606
0.000000000000000444089 -1.17857 0.7003346312018326
-0.433013 -0.75 0.012042059444777431
-1.02067 -0.589286 0.9670078398026929
-0.866025 -0.000000000000000305311 0.9602216144719808
-1.02067 0.589286 0.09576844175786259
-0.433013 0.75 0.5121367573426188
-0.0000000000000004996 1.17857 0.23880159373442256
0.866025 1.5 0.4076019882744548
1.37636 1.29464 0.6888549279592582
2.04135 1.17857 0.7511402247159102
1.80937 0.544643 0.670087834998857
1.73205 -0.00000000000000272699 0.5635523003550957
1.80937 -0.544643 0.6902886589637383
2.04135 -1.17857 0.3526085571671007
1.37636 -1.29464 0.0711233309648458
0.866025 -1.5 0.42227666934028196
0.433013 -1.83929 0.2944797911210353
0.000000000000000777156 -2.35714 0.37586868456384503
-0.433013 -1.83929 0.451916013068032
-0.866025 -1.5 0.929893723130385
-1.37636 -1.29464 0.5667543234327341
-2.04135 -1.17857 0.057754751234043056
-1.80937 -0.544643 0.6678143934490737
-1.73205 -0.0000000000000013739 0.07678501715621544
-1.80937 0.544643 0.9123692670863406
-2.04135 1.17857 0.5545932107346043
-1.37636 1.29464 0.6856964304463564
-0.866025 1.5 0.516219603693153
-0.433013 1.83929 0.14576896954537033
-0.00000000000000127676 2.35714 0.09444625072748147
0.433013 1.83929 0.26935999746889294
4 0 1 2 3
4 0 3 4 5
4 0 5 6 7
4 0 7 8 9
4 0 9 10 11
4 0 11 12 1
4 1 13 14 2
4 2 14 15 16
4 3 2 16 17
4 3 17 18 4
4 4 18 19 20
4 5 4 20 21
4 5 21 22 6
4 6 22 23 24
4 7 6 24 25
4 7 25 26 8
4 8 26 27 28
4 9 8 28 29
4 9 29 30 10
4 10 30 31 32
4 11 10 32 33
4 11 33 34 12
4 12 34 35 36
4 1 12 36 13