OFF
37 24 0
0.0 0.0 0.0
0.433013 0.75 0.0
1.02067 0.589286 0.0
0.866025 -1.00614e-15 0.0
1.02067 -0.589286 0.0
0.433013 -0.75 0.0
4.44089e-16 -1.17857 0.0
-0.433013 -0.75 0.0
-1.02067 -0.589286 0.0
-0.866025 -3.05311e-16 0.0
-1.02067 0.589286 0.0
-0.433013 0.75 0.0
-4.996e-16 1.17857 0.0
0.866025 1.5 0.0
1.37636 1.29464 0.0
2.04135 1.17857 0.0
1.80937 0.544643 0.0
1.73205 -2.72699e-15 0.0
1.80937 -0.544643 0.0
2.04135 -1.17857 0.0
1.37636 -1.29464 0.0
0.866025 -1.5 0.0
0.433013 -1.83929 0.0
7.77156e-16 -2.35714 0.0
-0.433013 -1.83929 0.0
-0.866025 -1.5 0.0
-1.37636 -1.29464 0.0
-2.04135 -1.17857 0.0
-1.80937 -0.544643 0.0
-1.73205 -1.3739e-15 0.0
-1.80937 0.544643 0.0
-2.04135 1.17857 0.0
-1.37636 1.29464 0.0
-0.866025 1.5 0.0
-0.433013 1.83929 0.0
-1.27676e-15 2.35714 0.0
0.433013 1.83929 0.0
4 0 1 2 3
4 0 3 4 5
4 0 5 6 7
4 0 7 8 9
4 0 9 10 11
4 0 11 12 1
4 1 13 14 2
4 2 14 15 16
4 3 2 16 17
4 3 17 18 4
4 4 18 19 20
4 5 4 20 21
4 5 21 22 6
4 6 22 23 24
4 7 6 24 25
4 7 25 26 8
4 8 26 27 28
4 9 8 28 29
4 9 29 30 10
4 10 30 31 32
4 11 10 32 33
4 11 33 34 12
4 12 34 35 36
4 1 12 36 13
