OFF
31 20 0
0.0 0.0 0.38918304248336466
0.25 0.769421 0.3909206826541154
0.898303 0.652655 0.8306188002145338
0.809017 -0.000000000000000666134 0.21393405446688174
0.898303 -0.652655 0.15924722483728138
0.25 -0.769421 0.8722121065447681
-0.343121 -1.05602 0.0620562580901054
-0.654508 -0.475528 0.3711185985622476
-1.11036 0.000000000000000222045 0.09711937562179851
-0.654508 0.475528 0.8597795057680708
-0.343121 1.05602 0.3325619897939347
0.5 1.53884 0.09841533070375252
1.10366 1.38964 0.47596514816077873
1.79661 1.30531 0.12296429438718337
1.66268 0.62022 0.5851058409308494
1.61803 -0.0000000000000018735 0.2999664540676412
1.66268 -0.62022 0.34427902472726113
1.79661 -1.30531 0.7691392320840669
1.10366 -1.38964 0.5154259348169823
0.5 -1.53884 0.20663168057845804
-0.076069 -1.77296 0.42741515268528585
-0.686242 -2.11204 0.7472765671516728
-0.980578 -1.47907 0.7704642342332721
-1.30902 -0.951057 0.2950074169764856
-1.70969 -0.475528 0.9726235839888908
-2.22073 0.00000000000000127676 0.7181077626203551
-1.70969 0.475528 0.6461074838730718
-1.30902 0.951057 0.18882549463366338
-0.980578 1.47907 0.4416908522369549
-0.686242 2.11204 0.7550239684476237
-0.076069 1.77296 0.2888701620849179
4 0 1 2 3
4 0 3 4 5
4 0 5 6 7
4 0 7 8 9
4 0 9 10 1
4 1 11 12 2
4 2 12 13 14
4 3 2 14 15
4 3 15 16 4
4 4 16 17 18
4 5 4 18 19
4 5 19 20 6
4 6 20 21 22
4 7 6 22 23
4 7 23 24 8
4 8 24 25 26
4 9 8 26 27
4 9 27 28 10
4 10 28 29 30
4 1 10 30 11