OFF
28 24 52
.7   1.5 0
.9   2.5 0
-1.5  .7 0
-2.5  .9 0
-.7  1.5 0
-.9  2.5 0
1.5  -.7 0
2.5  -.9 0
.7  -1.5 0
.9  -2.5 0
-1.5 -.7 0
-2.5 -.9 0
-.7 -1.5 0
-.9 -2.5 0
.8    2  .5
-2    .8 .5
-.8   2  .5
2    -.8 .5
.8   -2  .5
-2   -.8 .5
-.8  -2  .5
.8    2  -.5
-2    .8 -.5
-.8   2  -.5
2    -.8 -.5
.8   -2  -.5
-2   -.8 -.5
-.8  -2  -.5
4 0 14 16 4
4 4 16 15 2
4 2 15 19 10
4 10 19 20 12
4 12 20 18 8
4 8 18 17 6
4 7 17 18 9
4 9 18 20 13
4 13 20 19 11
4 11 19 15 3
4 3 15 16 5
4 5 16 14 1
4 6 24 25 8
4 8 25 27 12
4 12 27 26 10
4 10 26 22 2
4 2 22 23 4
4 4 23 21 0
4 24 7 9 25
4 25 9 13 27
4 27 13 11 26
4 26 11 3 22
4 22 3 5 23
4 23 5 1 21
