**ABCDEFGHIJKLMNOPQRSTUVWXYZabcdefghijklmnopqrstuvwxyz**************************
**PARASOLID !"#$%&'()*+,-./:;<=>?@[\]^_`{|}~0123456789**************************
**PART1;
MC=unknown;
MC_MODEL=unknown;
MC_ID=unknown;
OS=unknown;
OS_RELEASE=unknown;
FRU=sdl_parasolid_customer_support;
APPL=parasolid_acceptance_tests;
SITE=unknown;
USER=unknown;
FORMAT=text;
GUISE=transmit;
KEY=swept;
FILE=swept.xmt_txt;
DATE=unknown;
**PART2;
SCH=SCH_1701167_17106;
USFLD_SIZE=0;
**PART3;
**END_OF_HEADER*****************************************************************
T51 : TRANSMIT FILE created by modeller version 170116723 SCH_1701167_17106_1300
6186 0 74 255 3 1 3 0 2 3 4 12 255 2 9 0 0 0 0 0 0 1e3 1e-8 0 0 3 1 0 2 1 5 0 6
 7 8 0 9 12 3 9 0 0 0 0 0 0 1e3 1e-8 0 2 4 1 0 2 1 10 0 11 12 13 0 14 12 4 9 0 0
 0 0 0 0 1e3 1e-8 0 3 0 1 0 2 1 15 0 16 17 18 0 19 13 255 15 3 0 4 0 0 20 0 18 0
 30 255 16 9 0 20 0 0 0 +0 1 0 1 0 0 29 255 17 7 0 19 21 0 1 1 0 19 255 18 1 0 4
 0 0 15 V18 255 19 5 0 22 0 23 17 ?4 17 255 22 0 0 0 0 19 24 20 0 0 +18 23 2 0 2
4 19 0 21 ?4 17 24 0 0 0 0 23 22 20 0 0 -29 21 4 0 23 0 17 0 1 0 16 255 20 6 0 ?
22 0 0 16 0 0 15 13 10 3 0 3 0 0 25 0 13 0 30 11 9 0 25 0 0 0 +0 0 0 1 0 0 29 12
 7 0 14 26 0 1 0 0 19 13 1 0 3 0 0 10 V18 14 5 0 27 0 28 12 ?3 17 27 0 0 0 0 14
 29 25 0 0 +18 28 2 0 29 14 0 26 ?3 17 29 0 0 0 0 28 27 25 0 0 -29 26 4 0 28 0 1
2 0 0 0 16 25 6 0 ?27 0 0 11 0 0 10 13 5 3 0 2 0 0 30 0 8 0 30 6 9 0 30 0 0 0 +0
 0 0 0 1 0 29 7 7 0 9 31 0 0 1 0 19 8 1 0 2 0 0 5 V18 9 5 0 32 0 33 7 ?2 17 32 0
 0 0 0 9 34 30 0 0 +18 33 2 0 34 9 0 31 ?2 17 34 0 0 0 0 33 32 30 0 0 -29 31 4 0
 33 0 7 0 0 0 16 30 6 0 ?32 0 0 6 0 0 5 1 0 
