solid Created by Gmsh
facet normal 0 0 1
  outer loop
    vertex -0.0631039289161774 0.4341716958863102 0
    vertex -0.08514146924067892 0.3659099481129603 0
    vertex -0.009816128314234337 0.3755253948898604 0
  endloop
endfacet
facet normal 0 0 1
  outer loop
    vertex -0.2984805714119721 0.4257761845825637 0
    vertex -0.2870058900216608 0.332941695694641 0
    vertex -0.2191907848645842 0.3882807560907797 0
  endloop
endfacet
facet normal 0 0 1
  outer loop
    vertex 0.4341371187651012 -0.2321565107869356 0
    vertex 0.3653391039680636 -0.1818593082712375 0
    vertex 0.3765347712631805 -0.2823961313985623 0
  endloop
endfacet
facet normal 0 -0 1
  outer loop
    vertex 0.1153846153835486 -0.5 0
    vertex 0.1820541560484841 -0.4233245473633903 0
    vertex 0.0954148398789703 -0.4330678510519614 0
  endloop
endfacet
facet normal 0 0 1
  outer loop
    vertex -0.358243756129958 -0.361211532372971 0
    vertex -0.4317732620874342 -0.3063105153856163 0
    vertex -0.4361282667291528 -0.3844522036923652 0
  endloop
endfacet
facet normal 0 0 1
  outer loop
    vertex 0.009047647842040938 0.4377942415067849 0
    vertex -0.0631039289161774 0.4341716958863102 0
    vertex -0.009816128314234337 0.3755253948898604 0
  endloop
endfacet
facet normal -0 0 1
  outer loop
    vertex -0.4364845979729692 0.2444109336790088 0
    vertex -0.3754946286269154 0.2172442938163857 0
    vertex -0.3712542653395894 0.3008344485576019 0
  endloop
endfacet
facet normal -0 0 1
  outer loop
    vertex 0.3236410184474094 0.188221431172707 0
    vertex 0.3653391035748103 0.1218593090878364 0
    vertex 0.3915965666885702 0.2109355149311585 0
  endloop
endfacet
facet normal 0 0 1
  outer loop
    vertex 0.3915965666885702 0.2109355149311585 0
    vertex 0.3653391035748103 0.1218593090878364 0
    vertex 0.4399834194811294 0.1583303783828666 0
  endloop
endfacet
facet normal 0 0 1
  outer loop
    vertex -0.2870058900216608 0.332941695694641 0
    vertex -0.2984805714119721 0.4257761845825637 0
    vertex -0.3585505370950744 0.3657891380033035 0
  endloop
endfacet
facet normal 0 -0 1
  outer loop
    vertex 0.2733542481356342 0.3196967900967115 0
    vertex 0.3492960090595055 0.3607155699559826 0
    vertex 0.2692307692314093 0.3842937115074775 0
  endloop
endfacet
facet normal 0 0 1
  outer loop
    vertex 0.1153846153835486 -0.5 0
    vertex 0.1923076923068389 -0.5 0
    vertex 0.1820541560484841 -0.4233245473633903 0
  endloop
endfacet
facet normal 0 0 1
  outer loop
    vertex 0.3653391039680636 -0.1818593082712375 0
    vertex 0.3236410192850799 -0.2482214301223015 0
    vertex 0.3765347712631805 -0.2823961313985623 0
  endloop
endfacet
facet normal 0 0 1
  outer loop
    vertex 0.4276545296396136 0.2987202391809521 0
    vertex 0.3428662472788659 0.2721967255317781 0
    vertex 0.3915965666885702 0.2109355149311585 0
  endloop
endfacet
facet normal -0 0 1
  outer loop
    vertex -0.4317732620874342 -0.3063105153856163 0
    vertex -0.358243756129958 -0.361211532372971 0
    vertex -0.3612884410963688 -0.2940792651034356 0
  endloop
endfacet
facet normal 0 0 1
  outer loop
    vertex -0.4347658134720767 0.3172919030233561 0
    vertex -0.4364845979729692 0.2444109336790088 0
    vertex -0.3712542653395894 0.3008344485576019 0
  endloop
endfacet
facet normal -0 0 1
  outer loop
    vertex 0.2733542481356342 0.3196967900967115 0
    vertex 0.3428662472788659 0.2721967255317781 0
    vertex 0.3492960090595055 0.3607155699559826 0
  endloop
endfacet
facet normal 0 0 1
  outer loop
    vertex 0.3428662472788659 0.2721967255317781 0
    vertex 0.4276545296396136 0.2987202391809521 0
    vertex 0.3492960090595055 0.3607155699559826 0
  endloop
endfacet
facet normal -0 0 1
  outer loop
    vertex -0.4247640000326727 -0.1545035487137263 0
    vertex -0.3405882773477028 -0.1644410341234773 0
    vertex -0.3634917187116767 -0.09321030186644907 0
  endloop
endfacet
facet normal 0 0 1
  outer loop
    vertex 0.3492960090595055 0.3607155699559826 0
    vertex 0.3111510855872622 0.4349538371301417 0
    vertex 0.2692307692314093 0.3842937115074775 0
  endloop
endfacet
facet normal 0 0 1
  outer loop
    vertex -0.5 0.1153846153856822 0
    vertex -0.5 0.03846153846281875 0
    vertex -0.4209605175409047 0.08595433466203074 0
  endloop
endfacet
facet normal -0 0 1
  outer loop
    vertex -0.194695141995735 0.3148658791093049 0
    vertex -0.1018593090842537 0.2853391035765357 0
    vertex -0.1505036068852006 0.3667323969428208 0
  endloop
endfacet
facet normal -0 0 1
  outer loop
    vertex 0.005040675330682119 -0.4344400837280964 0
    vertex 0.03846153846025824 -0.5 0
    vertex 0.0954148398789703 -0.4330678510519614 0
  endloop
endfacet
facet normal 0 0 1
  outer loop
    vertex 0.3197190607914377 -0.3393391529921969 0
    vertex 0.3155596687261281 -0.4288962128338071 0
    vertex 0.3797068343716075 -0.3733018933303975 0
  endloop
endfacet
facet normal 0 0 1
  outer loop
    vertex 0.3197190607914377 -0.3393391529921969 0
    vertex 0.259432196062353 -0.3815357815572944 0
    vertex 0.3155596687261281 -0.4288962128338071 0
  endloop
endfacet
facet normal 0 0 1
  outer loop
    vertex -0.5 -0.1153846153835486 0
    vertex -0.5 -0.1923076923068389 0
    vertex -0.4247640000326727 -0.1545035487137263 0
  endloop
endfacet
facet normal 0 0 1
  outer loop
    vertex -0.4338220780811787 -0.0712957579560313 0
    vertex -0.4247640000326727 -0.1545035487137263 0
    vertex -0.3634917187116767 -0.09321030186644907 0
  endloop
endfacet
facet normal 0 -0 1
  outer loop
    vertex -0.3079242105771712 0.1879145820283062 0
    vertex -0.2439259965387668 0.2639259953524588 0
    vertex -0.3166752416403311 0.2607923282753959 0
  endloop
endfacet
facet normal 0 0 1
  outer loop
    vertex 0.3428662472788659 0.2721967255317781 0
    vertex 0.3236410184474094 0.188221431172707 0
    vertex 0.3915965666885702 0.2109355149311585 0
  endloop
endfacet
facet normal -0 0 1
  outer loop
    vertex -0.1538461538451936 0.4333826612471661 0
    vertex -0.08514146924067892 0.3659099481129603 0
    vertex -0.0631039289161774 0.4341716958863102 0
  endloop
endfacet
facet normal 0 0 1
  outer loop
    vertex -0.08728846124113318 -0.422347881999678 0
    vertex -0.03846153846281875 -0.5 0
    vertex 0.005040675330682119 -0.4344400837280964 0
  endloop
endfacet
facet normal 0 0 1
  outer loop
    vertex -0.08514146924067892 0.3659099481129603 0
    vertex -0.1538461538451936 0.4333826612471661 0
    vertex -0.1505036068852006 0.3667323969428208 0
  endloop
endfacet
facet normal -0 0 1
  outer loop
    vertex -0.2870058900216608 0.332941695694641 0
    vertex -0.194695141995735 0.3148658791093049 0
    vertex -0.2191907848645842 0.3882807560907797 0
  endloop
endfacet
facet normal -0 0 1
  outer loop
    vertex 0.3111510855872622 0.4349538371301417 0
    vertex 0.3492960090595055 0.3607155699559826 0
    vertex 0.3847751156515728 0.4351734119307951 0
  endloop
endfacet
facet normal 0 0 1
  outer loop
    vertex -0.2236410184170403 -0.2482214312107888 0
    vertex -0.3142996949577652 -0.2363684012743636 0
    vertex -0.2998263214687826 -0.3020030766833316 0
  endloop
endfacet
facet normal 0 -0 1
  outer loop
    vertex -0.4347658134720767 0.3172919030233561 0
    vertex -0.3585505370950744 0.3657891380033035 0
    vertex -0.435472185668925 0.3874568634205662 0
  endloop
endfacet
facet normal 0 0 1
  outer loop
    vertex -0.1153846153856822 -0.5 0
    vertex -0.03846153846281875 -0.5 0
    vertex -0.08728846124113318 -0.422347881999678 0
  endloop
endfacet
facet normal 0 -0 1
  outer loop
    vertex -0.3626145154567009 0.02838480365171141 0
    vertex -0.3364699554877129 0.1026528126735566 0
    vertex -0.4209605175409047 0.08595433466203074 0
  endloop
endfacet
facet normal 0 0 1
  outer loop
    vertex -0.2870058900216608 0.332941695694641 0
    vertex -0.3585505370950744 0.3657891380033035 0
    vertex -0.3712542653395894 0.3008344485576019 0
  endloop
endfacet
facet normal 0 0 1
  outer loop
    vertex 0.1568203233940256 0.4367745342436622 0
    vertex 0.1153846153856822 0.5 0
    vertex 0.08137516002913005 0.4391529945872208 0
  endloop
endfacet
facet normal 0 0 1
  outer loop
    vertex -0.3585505370950744 0.3657891380033035 0
    vertex -0.4347658134720767 0.3172919030233561 0
    vertex -0.3712542653395894 0.3008344485576019 0
  endloop
endfacet
facet normal 0 0 1
  outer loop
    vertex -0.4356202424779317 0.1631978943288868 0
    vertex -0.5 0.1153846153856822 0
    vertex -0.4209605175409047 0.08595433466203074 0
  endloop
endfacet
facet normal 0 -0 1
  outer loop
    vertex -0.1018593090842537 0.2853391035765357 0
    vertex -0.08514146924067892 0.3659099481129603 0
    vertex -0.1505036068852006 0.3667323969428208 0
  endloop
endfacet
facet normal 0 -0 1
  outer loop
    vertex -0.2439259965387668 0.2639259953524588 0
    vertex -0.194695141995735 0.3148658791093049 0
    vertex -0.2870058900216608 0.332941695694641 0
  endloop
endfacet
facet normal 0 0 1
  outer loop
    vertex -0.1018593082731156 -0.3453391039671592 0
    vertex -0.1614854727763844 -0.3880423776054598 0
    vertex -0.08728846124113318 -0.422347881999678 0
  endloop
endfacet
facet normal 0 0 1
  outer loop
    vertex 0.259432196062353 -0.3815357815572944 0
    vertex 0.2018593090981924 -0.3453391035698231 0
    vertex 0.1820541560484841 -0.4233245473633903 0
  endloop
endfacet
facet normal 0 -0 1
  outer loop
    vertex -0.3166752416403311 0.2607923282753959 0
    vertex -0.2870058900216608 0.332941695694641 0
    vertex -0.3712542653395894 0.3008344485576019 0
  endloop
endfacet
facet normal 0 0 1
  outer loop
    vertex -0.3626145154567009 0.02838480365171141 0
    vertex -0.2912247693172861 0.04788232664966326 0
    vertex -0.3364699554877129 0.1026528126735566 0
  endloop
endfacet
facet normal 0 0 1
  outer loop
    vertex 0.1965671349354458 0.3660209874107386 0
    vertex 0.2018593082757533 0.2853391039658889 0
    vertex 0.2733542481356342 0.3196967900967115 0
  endloop
endfacet
facet normal 0 0 1
  outer loop
    vertex -0.2653391039733099 0.1218593082603435 0
    vertex -0.3079242105771712 0.1879145820283062 0
    vertex -0.3364699554877129 0.1026528126735566 0
  endloop
endfacet
facet normal 0 0 1
  outer loop
    vertex -0.2236410192983699 0.1882214301056364 0
    vertex -0.2439259965387668 0.2639259953524588 0
    vertex -0.3079242105771712 0.1879145820283062 0
  endloop
endfacet
facet normal 0 0 1
  outer loop
    vertex -0.3754946286269154 0.2172442938163857 0
    vertex -0.3166752416403311 0.2607923282753959 0
    vertex -0.3712542653395894 0.3008344485576019 0
  endloop
endfacet
facet normal 0 0 1
  outer loop
    vertex -0.4209605175409047 0.08595433466203074 0
    vertex -0.5 0.03846153846281875 0
    vertex -0.4346580497790865 0.001984039510397237 0
  endloop
endfacet
facet normal 0 0 1
  outer loop
    vertex 0.3236410192850799 -0.2482214301223015 0
    vertex 0.2682214311722217 -0.3036410184477965 0
    vertex 0.3197190607914377 -0.3393391529921969 0
  endloop
endfacet
facet normal -0 0 1
  outer loop
    vertex 0.05 0.32 0
    vertex 0.1278823266535808 0.311224769316392 0
    vertex 0.110353527556092 0.3762974771531949 0
  endloop
endfacet
facet normal 0 0 1
  outer loop
    vertex -0.2236410184170403 -0.2482214312107888 0
    vertex -0.2653391035590204 -0.1818593091206246 0
    vertex -0.3142996949577652 -0.2363684012743636 0
  endloop
endfacet
facet normal 0 -0 1
  outer loop
    vertex -0.1682214312100727 0.2436410184176113 0
    vertex -0.1018593090842537 0.2853391035765357 0
    vertex -0.194695141995735 0.3148658791093049 0
  endloop
endfacet
facet normal -0 0 1
  outer loop
    vertex 0.2682214301407023 0.2436410192704057 0
    vertex 0.3236410184474094 0.188221431172707 0
    vertex 0.3428662472788659 0.2721967255317781 0
  endloop
endfacet
facet normal 0 0 1
  outer loop
    vertex 0.05 -0.38 0
    vertex 0.005040675330682119 -0.4344400837280964 0
    vertex 0.0954148398789703 -0.4330678510519614 0
  endloop
endfacet
facet normal 0 -0 1
  outer loop
    vertex -0.3405882773477028 -0.1644410341234773 0
    vertex -0.2912247692127715 -0.1078823271075716 0
    vertex -0.3634917187116767 -0.09321030186644907 0
  endloop
endfacet
facet normal -0 0 1
  outer loop
    vertex 0.1965671349354458 0.3660209874107386 0
    vertex 0.2733542481356342 0.3196967900967115 0
    vertex 0.2692307692314093 0.3842937115074775 0
  endloop
endfacet
facet normal 0 0 1
  outer loop
    vertex -0.4338220780811787 -0.0712957579560313 0
    vertex -0.5 -0.1153846153835486 0
    vertex -0.4247640000326727 -0.1545035487137263 0
  endloop
endfacet
facet normal 0 0 1
  outer loop
    vertex 0.4369170330141239 -0.3153905602437113 0
    vertex 0.3765347712631805 -0.2823961313985623 0
    vertex 0.3797068343716075 -0.3733018933303975 0
  endloop
endfacet
facet normal 0 -0 1
  outer loop
    vertex -0.384426774939912 -0.4349335602736411 0
    vertex -0.358243756129958 -0.361211532372971 0
    vertex -0.4361282667291528 -0.3844522036923652 0
  endloop
endfacet
facet normal -0 0 1
  outer loop
    vertex -0.2984805714119721 0.4257761845825637 0
    vertex -0.2191907848645842 0.3882807560907797 0
    vertex -0.2296868597676666 0.4519055112683819 0
  endloop
endfacet
facet normal 0 0 1
  outer loop
    vertex 0.05 0.32 0
    vertex 0.110353527556092 0.3762974771531949 0
    vertex 0.05104668888303861 0.3881247910537751 0
  endloop
endfacet
facet normal 0 0 1
  outer loop
    vertex 0.1820541560484841 -0.4233245473633903 0
    vertex 0.1278823270882249 -0.3712247692171873 0
    vertex 0.0954148398789703 -0.4330678510519614 0
  endloop
endfacet
facet normal 0 -0 1
  outer loop
    vertex 0.110353527556092 0.3762974771531949 0
    vertex 0.1568203233940256 0.4367745342436622 0
    vertex 0.08137516002913005 0.4391529945872208 0
  endloop
endfacet
facet normal 0 0 1
  outer loop
    vertex -0.1614854727763844 -0.3880423776054598 0
    vertex -0.1682214300812713 -0.3036410193178004 0
    vertex -0.2269282524456947 -0.3775654167887614 0
  endloop
endfacet
facet normal 0 0 1
  outer loop
    vertex -0.4247640000326727 -0.1545035487137263 0
    vertex -0.5 -0.1923076923068389 0
    vertex -0.4500115174909833 -0.2307375974875879 0
  endloop
endfacet
facet normal 0 0 1
  outer loop
    vertex -0.1682214300812713 -0.3036410193178004 0
    vertex -0.2404963785683468 -0.3209285771382024 0
    vertex -0.2269282524456947 -0.3775654167887614 0
  endloop
endfacet
facet normal 0 -0 1
  outer loop
    vertex -0.3364699554877129 0.1026528126735566 0
    vertex -0.3079242105771712 0.1879145820283062 0
    vertex -0.3758801045839965 0.1530244656593176 0
  endloop
endfacet
facet normal 0 0 1
  outer loop
    vertex -0.3868452262018606 -0.2312721952398366 0
    vertex -0.4317732620874342 -0.3063105153856163 0
    vertex -0.3612884410963688 -0.2940792651034356 0
  endloop
endfacet
facet normal -0 0 1
  outer loop
    vertex -0.08514146924067892 0.3659099481129603 0
    vertex -0.02788232710471139 0.3112247692134243 0
    vertex -0.009816128314234337 0.3755253948898604 0
  endloop
endfacet
facet normal 0 -0 1
  outer loop
    vertex -0.2404963785683468 -0.3209285771382024 0
    vertex -0.2236410184170403 -0.2482214312107888 0
    vertex -0.2998263214687826 -0.3020030766833316 0
  endloop
endfacet
facet normal 0 0 1
  outer loop
    vertex 0.259432196062353 -0.3815357815572944 0
    vertex 0.1820541560484841 -0.4233245473633903 0
    vertex 0.2461876366031855 -0.4428500213976954 0
  endloop
endfacet
facet normal 0 0 1
  outer loop
    vertex -0.08728846124113318 -0.422347881999678 0
    vertex -0.1614854727763844 -0.3880423776054598 0
    vertex -0.1574470944963446 -0.4487545841705347 0
  endloop
endfacet
facet normal 0 -0 1
  outer loop
    vertex 0.4455711876110029 -0.07187947240844204 0
    vertex 0.5 -0.03846153846281875 0
    vertex 0.4442571728171038 0.01123984743589111 0
  endloop
endfacet
facet normal 0 0 1
  outer loop
    vertex -0.0278823266511839 -0.371224769316939 0
    vertex -0.08728846124113318 -0.422347881999678 0
    vertex 0.005040675330682119 -0.4344400837280964 0
  endloop
endfacet
facet normal 0 0 1
  outer loop
    vertex 0.3236410192850799 -0.2482214301223015 0
    vertex 0.3197190607914377 -0.3393391529921969 0
    vertex 0.3765347712631805 -0.2823961313985623 0
  endloop
endfacet
facet normal 0 -0 1
  outer loop
    vertex -0.4317732620874342 -0.3063105153856163 0
    vertex -0.3868452262018606 -0.2312721952398366 0
    vertex -0.4500115174909833 -0.2307375974875879 0
  endloop
endfacet
facet normal 0 0 1
  outer loop
    vertex 0.4276545296396136 0.2987202391809521 0
    vertex 0.3915965666885702 0.2109355149311585 0
    vertex 0.455715318529715 0.2307692307684841 0
  endloop
endfacet
facet normal 0 0 1
  outer loop
    vertex -0.3079242105771712 0.1879145820283062 0
    vertex -0.3166752416403311 0.2607923282753959 0
    vertex -0.3754946286269154 0.2172442938163857 0
  endloop
endfacet
facet normal 0 0 1
  outer loop
    vertex 0.03846153846025824 -0.5 0
    vertex 0.1153846153835486 -0.5 0
    vertex 0.0954148398789703 -0.4330678510519614 0
  endloop
endfacet
facet normal 0 0 1
  outer loop
    vertex -0.3166752416403311 0.2607923282753959 0
    vertex -0.2439259965387668 0.2639259953524588 0
    vertex -0.2870058900216608 0.332941695694641 0
  endloop
endfacet
facet normal -0 0 1
  outer loop
    vertex 0.4 -0.03 0
    vertex 0.4455711876110029 -0.07187947240844204 0
    vertex 0.4442571728171038 0.01123984743589111 0
  endloop
endfacet
facet normal 0 0 1
  outer loop
    vertex -0.3 -0.03 0
    vertex -0.3626145154567009 0.02838480365171141 0
    vertex -0.3875227840164952 -0.0315786216491443 0
  endloop
endfacet
facet normal 0 0 1
  outer loop
    vertex 0.2307692307699776 0.4333826612475358 0
    vertex 0.1965671349354458 0.3660209874107386 0
    vertex 0.2692307692314093 0.3842937115074775 0
  endloop
endfacet
facet normal 0 0 1
  outer loop
    vertex 0.3765347712631805 -0.2823961313985623 0
    vertex 0.3197190607914377 -0.3393391529921969 0
    vertex 0.3797068343716075 -0.3733018933303975 0
  endloop
endfacet
facet normal 0 -0 1
  outer loop
    vertex -0.3634917187116767 -0.09321030186644907 0
    vertex -0.3 -0.03 0
    vertex -0.3875227840164952 -0.0315786216491443 0
  endloop
endfacet
facet normal 0 -0 1
  outer loop
    vertex 0.1965671349354458 0.3660209874107386 0
    vertex 0.2307692307699776 0.4333826612475358 0
    vertex 0.1568203233940256 0.4367745342436622 0
  endloop
endfacet
facet normal 0 -0 1
  outer loop
    vertex -0.3585505370950744 0.3657891380033035 0
    vertex -0.2984805714119721 0.4257761845825637 0
    vertex -0.3832674044237633 0.4366733134969063 0
  endloop
endfacet
facet normal 0 0 1
  outer loop
    vertex -0.3142996949577652 -0.2363684012743636 0
    vertex -0.3405882773477028 -0.1644410341234773 0
    vertex -0.3868452262018606 -0.2312721952398366 0
  endloop
endfacet
facet normal 0 0 1
  outer loop
    vertex 0.2682214311722217 -0.3036410184477965 0
    vertex 0.259432196062353 -0.3815357815572944 0
    vertex 0.3197190607914377 -0.3393391529921969 0
  endloop
endfacet
facet normal 0 0 1
  outer loop
    vertex -0.3626145154567009 0.02838480365171141 0
    vertex -0.4209605175409047 0.08595433466203074 0
    vertex -0.4346580497790865 0.001984039510397237 0
  endloop
endfacet
facet normal 0 -0 1
  outer loop
    vertex 0.1278823266535808 0.311224769316392 0
    vertex 0.1965671349354458 0.3660209874107386 0
    vertex 0.110353527556092 0.3762974771531949 0
  endloop
endfacet
facet normal 0 0 1
  outer loop
    vertex -0.0278823266511839 -0.371224769316939 0
    vertex -0.1018593082731156 -0.3453391039671592 0
    vertex -0.08728846124113318 -0.422347881999678 0
  endloop
endfacet
facet normal -0 0 1
  outer loop
    vertex 0.3492960090595055 0.3607155699559826 0
    vertex 0.4276545296396136 0.2987202391809521 0
    vertex 0.4356887246643834 0.3824647074754701 0
  endloop
endfacet
facet normal 0 0 1
  outer loop
    vertex -0.2653391035590204 -0.1818593091206246 0
    vertex -0.3405882773477028 -0.1644410341234773 0
    vertex -0.3142996949577652 -0.2363684012743636 0
  endloop
endfacet
facet normal 0 0 1
  outer loop
    vertex 0.2682214311722217 -0.3036410184477965 0
    vertex 0.2018593090981924 -0.3453391035698231 0
    vertex 0.259432196062353 -0.3815357815572944 0
  endloop
endfacet
facet normal 0 0 1
  outer loop
    vertex 0.2733542481356342 0.3196967900967115 0
    vertex 0.2682214301407023 0.2436410192704057 0
    vertex 0.3428662472788659 0.2721967255317781 0
  endloop
endfacet
facet normal -0 0 1
  outer loop
    vertex -0.2439259965387668 0.2639259953524588 0
    vertex -0.1682214312100727 0.2436410184176113 0
    vertex -0.194695141995735 0.3148658791093049 0
  endloop
endfacet
facet normal 0 0 1
  outer loop
    vertex -0.1018593082731156 -0.3453391039671592 0
    vertex -0.1682214300812713 -0.3036410193178004 0
    vertex -0.1614854727763844 -0.3880423776054598 0
  endloop
endfacet
facet normal 0 -0 1
  outer loop
    vertex -0.3 -0.03 0
    vertex -0.2912247693172861 0.04788232664966326 0
    vertex -0.3626145154567009 0.02838480365171141 0
  endloop
endfacet
facet normal -0 0 1
  outer loop
    vertex 0.1278823266535808 0.311224769316392 0
    vertex 0.2018593082757533 0.2853391039658889 0
    vertex 0.1965671349354458 0.3660209874107386 0
  endloop
endfacet
facet normal 0 0 1
  outer loop
    vertex -0.1682214300812713 -0.3036410193178004 0
    vertex -0.2236410184170403 -0.2482214312107888 0
    vertex -0.2404963785683468 -0.3209285771382024 0
  endloop
endfacet
facet normal 0 0 1
  outer loop
    vertex -0.2653391035590204 -0.1818593091206246 0
    vertex -0.2912247692127715 -0.1078823271075716 0
    vertex -0.3405882773477028 -0.1644410341234773 0
  endloop
endfacet
facet normal 0 0 1
  outer loop
    vertex -0.1018593090842537 0.2853391035765357 0
    vertex -0.02788232710471139 0.3112247692134243 0
    vertex -0.08514146924067892 0.3659099481129603 0
  endloop
endfacet
facet normal 0 -0 1
  outer loop
    vertex -0.2653391039733099 0.1218593082603435 0
    vertex -0.2236410192983699 0.1882214301056364 0
    vertex -0.3079242105771712 0.1879145820283062 0
  endloop
endfacet
facet normal 0 -0 1
  outer loop
    vertex -0.2912247693172861 0.04788232664966326 0
    vertex -0.2653391039733099 0.1218593082603435 0
    vertex -0.3364699554877129 0.1026528126735566 0
  endloop
endfacet
facet normal 0 -0 1
  outer loop
    vertex -0.3868452262018606 -0.2312721952398366 0
    vertex -0.3405882773477028 -0.1644410341234773 0
    vertex -0.4247640000326727 -0.1545035487137263 0
  endloop
endfacet
facet normal -0 0 1
  outer loop
    vertex 0.2018593082757533 0.2853391039658889 0
    vertex 0.2682214301407023 0.2436410192704057 0
    vertex 0.2733542481356342 0.3196967900967115 0
  endloop
endfacet
facet normal 0 -0 1
  outer loop
    vertex -0.2236410192983699 0.1882214301056364 0
    vertex -0.1682214312100727 0.2436410184176113 0
    vertex -0.2439259965387668 0.2639259953524588 0
  endloop
endfacet
facet normal 0 0 1
  outer loop
    vertex 0.2018593090981924 -0.3453391035698231 0
    vertex 0.1278823270882249 -0.3712247692171873 0
    vertex 0.1820541560484841 -0.4233245473633903 0
  endloop
endfacet
facet normal 0 0 1
  outer loop
    vertex -0.4230769230771365 -0.5 0
    vertex -0.3461538461542729 -0.5 0
    vertex -0.384426774939912 -0.4349335602736411 0
  endloop
endfacet
facet normal 0 0 1
  outer loop
    vertex 0.3461538461534195 -0.5 0
    vertex 0.4230769230767096 -0.5 0
    vertex 0.3903992802922023 -0.4398719738655306 0
  endloop
endfacet
facet normal 0 0 1
  outer loop
    vertex -0.5 0.4230769230771365 0
    vertex -0.5 0.3461538461542729 0
    vertex -0.435472185668925 0.3874568634205662 0
  endloop
endfacet
facet normal 0 0 1
  outer loop
    vertex -0.3461538461542729 -0.5 0
    vertex -0.2692307692314094 -0.5 0
    vertex -0.3099535032092995 -0.4346637899107717 0
  endloop
endfacet
facet normal 0 0 1
  outer loop
    vertex -0.5 0.3461538461542729 0
    vertex -0.5 0.2692307692314094 0
    vertex -0.4347658134720767 0.3172919030233561 0
  endloop
endfacet
facet normal 0 -0 1
  outer loop
    vertex -0.3461538461542729 -0.5 0
    vertex -0.3099535032092995 -0.4346637899107717 0
    vertex -0.384426774939912 -0.4349335602736411 0
  endloop
endfacet
facet normal 0 0 1
  outer loop
    vertex 0.4230769230771365 0.5 0
    vertex 0.3461538461542729 0.5 0
    vertex 0.3847751156515728 0.4351734119307951 0
  endloop
endfacet
facet normal 0 0 1
  outer loop
    vertex -0.2692307692301292 0.5 0
    vertex -0.3461538461534195 0.5 0
    vertex -0.2984805714119721 0.4257761845825637 0
  endloop
endfacet
facet normal 0 0 1
  outer loop
    vertex -0.5 -0.2692307692301292 0
    vertex -0.5 -0.3461538461534195 0
    vertex -0.4317732620874342 -0.3063105153856163 0
  endloop
endfacet
facet normal 0 0 1
  outer loop
    vertex 0.3461538461542729 0.5 0
    vertex 0.2692307692314094 0.5 0
    vertex 0.3111510855872622 0.4349538371301417 0
  endloop
endfacet
facet normal 0 0 1
  outer loop
    vertex -0.2692307692314094 -0.5 0
    vertex -0.1923076923085458 -0.5 0
    vertex -0.2307692307699776 -0.4333826612475358 0
  endloop
endfacet
facet normal 0 0 1
  outer loop
    vertex -0.5 0.1923076923085458 0
    vertex -0.5 0.1153846153856822 0
    vertex -0.4356202424779317 0.1631978943288868 0
  endloop
endfacet
facet normal 0 -0 1
  outer loop
    vertex 0.5 0.2692307692301292 0
    vertex 0.5 0.3461538461534195 0
    vertex 0.4276545296396136 0.2987202391809521 0
  endloop
endfacet
facet normal 0 0 1
  outer loop
    vertex 0.2692307692314094 0.5 0
    vertex 0.1923076923085458 0.5 0
    vertex 0.2307692307699776 0.4333826612475358 0
  endloop
endfacet
facet normal 0 0 1
  outer loop
    vertex -0.5 -0.03846153846025824 0
    vertex -0.5 -0.1153846153835486 0
    vertex -0.4338220780811787 -0.0712957579560313 0
  endloop
endfacet
facet normal 0 0 1
  outer loop
    vertex -0.1153846153835486 0.5 0
    vertex -0.1923076923068389 0.5 0
    vertex -0.1538461538451936 0.4333826612471661 0
  endloop
endfacet
facet normal 0 0 1
  outer loop
    vertex -0.384426774939912 -0.4349335602736411 0
    vertex -0.3099535032092995 -0.4346637899107717 0
    vertex -0.358243756129958 -0.361211532372971 0
  endloop
endfacet
facet normal -0 0 1
  outer loop
    vertex -0.5 0.3461538461542729 0
    vertex -0.4347658134720767 0.3172919030233561 0
    vertex -0.435472185668925 0.3874568634205662 0
  endloop
endfacet
facet normal 0 0 1
  outer loop
    vertex 0.03846153846281875 0.5 0
    vertex -0.03846153846025824 0.5 0
    vertex 0.009047647842040938 0.4377942415067849 0
  endloop
endfacet
facet normal 0 -0 1
  outer loop
    vertex 0.5 -0.3461538461542729 0
    vertex 0.5 -0.2692307692314094 0
    vertex 0.4369170330141239 -0.3153905602437113 0
  endloop
endfacet
facet normal -0 0 1
  outer loop
    vertex -0.3099535032092995 -0.4346637899107717 0
    vertex -0.2692307692314094 -0.5 0
    vertex -0.2307692307699776 -0.4333826612475358 0
  endloop
endfacet
facet normal 0 0 1
  outer loop
    vertex 0.3461538461542729 0.5 0
    vertex 0.3111510855872622 0.4349538371301417 0
    vertex 0.3847751156515728 0.4351734119307951 0
  endloop
endfacet
facet normal 0 -0 1
  outer loop
    vertex 0.5 -0.2692307692314094 0
    vertex 0.5 -0.1923076923085458 0
    vertex 0.4341371187651012 -0.2321565107869356 0
  endloop
endfacet
facet normal 0 0 1
  outer loop
    vertex -0.4356202424779317 0.1631978943288868 0
    vertex -0.4209605175409047 0.08595433466203074 0
    vertex -0.3758801045839965 0.1530244656593176 0
  endloop
endfacet
facet normal 0 0 1
  outer loop
    vertex 0.3111510855872622 0.4349538371301417 0
    vertex 0.2692307692314094 0.5 0
    vertex 0.2307692307699776 0.4333826612475358 0
  endloop
endfacet
facet normal 0 -0 1
  outer loop
    vertex 0.4369170330141239 -0.3153905602437113 0
    vertex 0.5 -0.2692307692314094 0
    vertex 0.4341371187651012 -0.2321565107869356 0
  endloop
endfacet
facet normal 0 0 1
  outer loop
    vertex -0.4209605175409047 0.08595433466203074 0
    vertex -0.3364699554877129 0.1026528126735566 0
    vertex -0.3758801045839965 0.1530244656593176 0
  endloop
endfacet
facet normal 0 0 1
  outer loop
    vertex 0.4417433340798587 -0.3909319214555511 0
    vertex 0.4369170330141239 -0.3153905602437113 0
    vertex 0.3797068343716075 -0.3733018933303975 0
  endloop
endfacet
facet normal 0 0 1
  outer loop
    vertex 0.4390911139997425 -0.1538413534422627 0
    vertex 0.5 -0.1153846153856822 0
    vertex 0.4455711876110029 -0.07187947240844204 0
  endloop
endfacet
facet normal -0 0 1
  outer loop
    vertex 0.3155596687261281 -0.4288962128338071 0
    vertex 0.3903992802922023 -0.4398719738655306 0
    vertex 0.3797068343716075 -0.3733018933303975 0
  endloop
endfacet
facet normal 0 -0 1
  outer loop
    vertex 0.5 0.1153846153835486 0
    vertex 0.5 0.1923076923068389 0
    vertex 0.4399834194811294 0.1583303783828666 0
  endloop
endfacet
facet normal -0 0 1
  outer loop
    vertex 0.3653391039680636 -0.1818593082712375 0
    vertex 0.4341371187651012 -0.2321565107869356 0
    vertex 0.4390911139997425 -0.1538413534422627 0
  endloop
endfacet
facet normal -0 0 1
  outer loop
    vertex -0.5 -0.03846153846025824 0
    vertex -0.4338220780811787 -0.0712957579560313 0
    vertex -0.4346580497790865 0.001984039510397237 0
  endloop
endfacet
facet normal 0 0 1
  outer loop
    vertex -0.1153846153835486 0.5 0
    vertex -0.1538461538451936 0.4333826612471661 0
    vertex -0.0631039289161774 0.4341716958863102 0
  endloop
endfacet
facet normal 0 0 1
  outer loop
    vertex 0.009047647842040938 0.4377942415067849 0
    vertex -0.03846153846025824 0.5 0
    vertex -0.0631039289161774 0.4341716958863102 0
  endloop
endfacet
facet normal 0 0 1
  outer loop
    vertex -0.3868452262018606 -0.2312721952398366 0
    vertex -0.4247640000326727 -0.1545035487137263 0
    vertex -0.4500115174909833 -0.2307375974875879 0
  endloop
endfacet
facet normal 0 0 1
  outer loop
    vertex -0.5 -0.3461538461534195 0
    vertex -0.5 -0.4230769230767096 0
    vertex -0.4361282667291528 -0.3844522036923652 0
  endloop
endfacet
facet normal 0 0 1
  outer loop
    vertex -0.3461538461534195 0.5 0
    vertex -0.4230769230767096 0.5 0
    vertex -0.3832674044237633 0.4366733134969063 0
  endloop
endfacet
facet normal 0 -0 1
  outer loop
    vertex 0.5 -0.4230769230771365 0
    vertex 0.5 -0.3461538461542729 0
    vertex 0.4417433340798587 -0.3909319214555511 0
  endloop
endfacet
facet normal -0 0 1
  outer loop
    vertex 0.110353527556092 0.3762974771531949 0
    vertex 0.1965671349354458 0.3660209874107386 0
    vertex 0.1568203233940256 0.4367745342436622 0
  endloop
endfacet
facet normal 0 -0 1
  outer loop
    vertex 0.5 0.3461538461534195 0
    vertex 0.5 0.4230769230767096 0
    vertex 0.4356887246643834 0.3824647074754701 0
  endloop
endfacet
facet normal 0 0 1
  outer loop
    vertex -0.5 0.03846153846281875 0
    vertex -0.5 -0.03846153846025824 0
    vertex -0.4346580497790865 0.001984039510397237 0
  endloop
endfacet
facet normal 0 0 1
  outer loop
    vertex -0.03846153846025824 0.5 0
    vertex -0.1153846153835486 0.5 0
    vertex -0.0631039289161774 0.4341716958863102 0
  endloop
endfacet
facet normal 0 -0 1
  outer loop
    vertex -0.4356202424779317 0.1631978943288868 0
    vertex -0.3754946286269154 0.2172442938163857 0
    vertex -0.4364845979729692 0.2444109336790088 0
  endloop
endfacet
facet normal 0 0 1
  outer loop
    vertex 0.4369170330141239 -0.3153905602437113 0
    vertex 0.4341371187651012 -0.2321565107869356 0
    vertex 0.3765347712631805 -0.2823961313985623 0
  endloop
endfacet
facet normal 0 0 1
  outer loop
    vertex 0.05 -0.38 0
    vertex -0.0278823266511839 -0.371224769316939 0
    vertex 0.005040675330682119 -0.4344400837280964 0
  endloop
endfacet
facet normal 0 0 1
  outer loop
    vertex 0.2692307692301292 -0.5 0
    vertex 0.3461538461534195 -0.5 0
    vertex 0.3155596687261281 -0.4288962128338071 0
  endloop
endfacet
facet normal 0 0 1
  outer loop
    vertex -0.3142996949577652 -0.2363684012743636 0
    vertex -0.3868452262018606 -0.2312721952398366 0
    vertex -0.3612884410963688 -0.2940792651034356 0
  endloop
endfacet
facet normal 0 0 1
  outer loop
    vertex 0.3653391035748103 0.1218593090878364 0
    vertex 0.3912247692170108 0.0478823270889982 0
    vertex 0.4407380964619735 0.08948804670974826 0
  endloop
endfacet
facet normal 0 0 1
  outer loop
    vertex 0.1820541560484841 -0.4233245473633903 0
    vertex 0.1923076923068389 -0.5 0
    vertex 0.2461876366031855 -0.4428500213976954 0
  endloop
endfacet
facet normal 0 -0 1
  outer loop
    vertex 0.5 -0.1923076923085458 0
    vertex 0.5 -0.1153846153856822 0
    vertex 0.4390911139997425 -0.1538413534422627 0
  endloop
endfacet
facet normal 0 0 1
  outer loop
    vertex -0.2912247692127715 -0.1078823271075716 0
    vertex -0.3 -0.03 0
    vertex -0.3634917187116767 -0.09321030186644907 0
  endloop
endfacet
facet normal 0 -0 1
  outer loop
    vertex -0.2191907848645842 0.3882807560907797 0
    vertex -0.1538461538451936 0.4333826612471661 0
    vertex -0.2296868597676666 0.4519055112683819 0
  endloop
endfacet
facet normal 0 0 1
  outer loop
    vertex 0.1923076923085458 0.5 0
    vertex 0.1153846153856822 0.5 0
    vertex 0.1568203233940256 0.4367745342436622 0
  endloop
endfacet
facet normal 0 0 1
  outer loop
    vertex 0.1923076923068389 -0.5 0
    vertex 0.2692307692301292 -0.5 0
    vertex 0.2461876366031855 -0.4428500213976954 0
  endloop
endfacet
facet normal 0 0 1
  outer loop
    vertex 0.4276545296396136 0.2987202391809521 0
    vertex 0.5 0.3461538461534195 0
    vertex 0.4356887246643834 0.3824647074754701 0
  endloop
endfacet
facet normal 0 0 1
  outer loop
    vertex -0.4347658134720767 0.3172919030233561 0
    vertex -0.5 0.2692307692314094 0
    vertex -0.4364845979729692 0.2444109336790088 0
  endloop
endfacet
facet normal 0 0 1
  outer loop
    vertex 0.1153846153856822 0.5 0
    vertex 0.03846153846281875 0.5 0
    vertex 0.08137516002913005 0.4391529945872208 0
  endloop
endfacet
facet normal -0 0 1
  outer loop
    vertex -0.435472185668925 0.3874568634205662 0
    vertex -0.3585505370950744 0.3657891380033035 0
    vertex -0.3832674044237633 0.4366733134969063 0
  endloop
endfacet
facet normal 0 0 1
  outer loop
    vertex -0.3079242105771712 0.1879145820283062 0
    vertex -0.3754946286269154 0.2172442938163857 0
    vertex -0.3758801045839965 0.1530244656593176 0
  endloop
endfacet
facet normal -0 0 1
  outer loop
    vertex -0.5 0.1923076923085458 0
    vertex -0.4356202424779317 0.1631978943288868 0
    vertex -0.4364845979729692 0.2444109336790088 0
  endloop
endfacet
facet normal 0 0 1
  outer loop
    vertex -0.4317732620874342 -0.3063105153856163 0
    vertex -0.5 -0.3461538461534195 0
    vertex -0.4361282667291528 -0.3844522036923652 0
  endloop
endfacet
facet normal 0 0 1
  outer loop
    vertex -0.2984805714119721 0.4257761845825637 0
    vertex -0.3461538461534195 0.5 0
    vertex -0.3832674044237633 0.4366733134969063 0
  endloop
endfacet
facet normal 0 0 1
  outer loop
    vertex -0.1614854727763844 -0.3880423776054598 0
    vertex -0.2307692307699776 -0.4333826612475358 0
    vertex -0.1574470944963446 -0.4487545841705347 0
  endloop
endfacet
facet normal 0 0 1
  outer loop
    vertex 0.4399834194811294 0.1583303783828666 0
    vertex 0.3653391035748103 0.1218593090878364 0
    vertex 0.4407380964619735 0.08948804670974826 0
  endloop
endfacet
facet normal 0 0 1
  outer loop
    vertex 0.5 -0.3461538461542729 0
    vertex 0.4369170330141239 -0.3153905602437113 0
    vertex 0.4417433340798587 -0.3909319214555511 0
  endloop
endfacet
facet normal 0 0 1
  outer loop
    vertex -0.1538461538451936 0.4333826612471661 0
    vertex -0.2191907848645842 0.3882807560907797 0
    vertex -0.1505036068852006 0.3667323969428208 0
  endloop
endfacet
facet normal 0 0 1
  outer loop
    vertex 0.3847751156515728 0.4351734119307951 0
    vertex 0.3492960090595055 0.3607155699559826 0
    vertex 0.4356887246643834 0.3824647074754701 0
  endloop
endfacet
facet normal -0 0 1
  outer loop
    vertex 0.3912247693143248 -0.1078823266626378 0
    vertex 0.4390911139997425 -0.1538413534422627 0
    vertex 0.4455711876110029 -0.07187947240844204 0
  endloop
endfacet
facet normal 0 0 1
  outer loop
    vertex -0.2191907848645842 0.3882807560907797 0
    vertex -0.194695141995735 0.3148658791093049 0
    vertex -0.1505036068852006 0.3667323969428208 0
  endloop
endfacet
facet normal 0 -0 1
  outer loop
    vertex -0.1153846153856822 -0.5 0
    vertex -0.08728846124113318 -0.422347881999678 0
    vertex -0.1574470944963446 -0.4487545841705347 0
  endloop
endfacet
facet normal 0 0 1
  outer loop
    vertex -0.2307692307699776 -0.4333826612475358 0
    vertex -0.1923076923085458 -0.5 0
    vertex -0.1574470944963446 -0.4487545841705347 0
  endloop
endfacet
facet normal 0 0 1
  outer loop
    vertex -0.03846153846281875 -0.5 0
    vertex 0.03846153846025824 -0.5 0
    vertex 0.005040675330682119 -0.4344400837280964 0
  endloop
endfacet
facet normal 0 -0 1
  outer loop
    vertex 0.5 0.03846153846025824 0
    vertex 0.5 0.1153846153835486 0
    vertex 0.4407380964619735 0.08948804670974826 0
  endloop
endfacet
facet normal -0 0 1
  outer loop
    vertex 0.3915965666885702 0.2109355149311585 0
    vertex 0.4399834194811294 0.1583303783828666 0
    vertex 0.455715318529715 0.2307692307684841 0
  endloop
endfacet
facet normal -0 0 1
  outer loop
    vertex -0.358243756129958 -0.361211532372971 0
    vertex -0.2827979423301594 -0.3745828598870516 0
    vertex -0.2998263214687826 -0.3020030766833316 0
  endloop
endfacet
facet normal 0 0 1
  outer loop
    vertex 0.3912247693143248 -0.1078823266626378 0
    vertex 0.3653391039680636 -0.1818593082712375 0
    vertex 0.4390911139997425 -0.1538413534422627 0
  endloop
endfacet
facet normal 0 0 1
  outer loop
    vertex -0.3099535032092995 -0.4346637899107717 0
    vertex -0.2307692307699776 -0.4333826612475358 0
    vertex -0.2827979423301594 -0.3745828598870516 0
  endloop
endfacet
facet normal 0 0 1
  outer loop
    vertex -0.5 -0.4230769230767096 0
    vertex -0.5 -0.5 0
    vertex -0.4436883994180074 -0.4436883994178929 0
  endloop
endfacet
facet normal 0 0 1
  outer loop
    vertex -0.5 -0.5 0
    vertex -0.4230769230771365 -0.5 0
    vertex -0.4436883994180074 -0.4436883994178929 0
  endloop
endfacet
facet normal 0 0 1
  outer loop
    vertex 0.4230769230767096 -0.5 0
    vertex 0.5 -0.5 0
    vertex 0.4436883994175499 -0.4436883994176642 0
  endloop
endfacet
facet normal 0 -0 1
  outer loop
    vertex 0.5 -0.5 0
    vertex 0.5 -0.4230769230771365 0
    vertex 0.4436883994175499 -0.4436883994176642 0
  endloop
endfacet
facet normal 0 0 1
  outer loop
    vertex -0.4230769230767096 0.5 0
    vertex -0.5 0.5 0
    vertex -0.443688399417893 0.4436883994180074 0
  endloop
endfacet
facet normal 0 0 1
  outer loop
    vertex -0.5 0.5 0
    vertex -0.5 0.4230769230771365 0
    vertex -0.443688399417893 0.4436883994180074 0
  endloop
endfacet
facet normal 0 -0 1
  outer loop
    vertex 0.5 0.4230769230767096 0
    vertex 0.5 0.5 0
    vertex 0.4436930818698112 0.4436930818696967 0
  endloop
endfacet
facet normal 0 0 1
  outer loop
    vertex 0.5 0.5 0
    vertex 0.4230769230771365 0.5 0
    vertex 0.4436930818698112 0.4436930818696967 0
  endloop
endfacet
facet normal 0 0 1
  outer loop
    vertex -0.2692307692301292 0.5 0
    vertex -0.2984805714119721 0.4257761845825637 0
    vertex -0.2296868597676666 0.4519055112683819 0
  endloop
endfacet
facet normal 0 0 1
  outer loop
    vertex -0.1538461538451936 0.4333826612471661 0
    vertex -0.1923076923068389 0.5 0
    vertex -0.2296868597676666 0.4519055112683819 0
  endloop
endfacet
facet normal -0 0 1
  outer loop
    vertex -0.5 -0.2692307692301292 0
    vertex -0.4317732620874342 -0.3063105153856163 0
    vertex -0.4500115174909833 -0.2307375974875879 0
  endloop
endfacet
facet normal 0 0 1
  outer loop
    vertex 0.5 0.2692307692301292 0
    vertex 0.4276545296396136 0.2987202391809521 0
    vertex 0.455715318529715 0.2307692307684841 0
  endloop
endfacet
facet normal 0 -0 1
  outer loop
    vertex 0.5 -0.03846153846281875 0
    vertex 0.5 0.03846153846025824 0
    vertex 0.4442571728171038 0.01123984743589111 0
  endloop
endfacet
facet normal 0 0 1
  outer loop
    vertex 0.4399834194811294 0.1583303783828666 0
    vertex 0.5 0.1923076923068389 0
    vertex 0.455715318529715 0.2307692307684841 0
  endloop
endfacet
facet normal 0 -0 1
  outer loop
    vertex 0.3461538461534195 -0.5 0
    vertex 0.3903992802922023 -0.4398719738655306 0
    vertex 0.3155596687261281 -0.4288962128338071 0
  endloop
endfacet
facet normal 0 0 1
  outer loop
    vertex 0.4341371187651012 -0.2321565107869356 0
    vertex 0.5 -0.1923076923085458 0
    vertex 0.4390911139997425 -0.1538413534422627 0
  endloop
endfacet
facet normal 0 0 1
  outer loop
    vertex 0.5 0.03846153846025824 0
    vertex 0.4407380964619735 0.08948804670974826 0
    vertex 0.4442571728171038 0.01123984743589111 0
  endloop
endfacet
facet normal 0 0 1
  outer loop
    vertex 0.1278823270882249 -0.3712247692171873 0
    vertex 0.05 -0.38 0
    vertex 0.0954148398789703 -0.4330678510519614 0
  endloop
endfacet
facet normal 0 0 1
  outer loop
    vertex 0.2307692307699776 0.4333826612475358 0
    vertex 0.1923076923085458 0.5 0
    vertex 0.1568203233940256 0.4367745342436622 0
  endloop
endfacet
facet normal 0 0 1
  outer loop
    vertex -0.3612884410963688 -0.2940792651034356 0
    vertex -0.358243756129958 -0.361211532372971 0
    vertex -0.2998263214687826 -0.3020030766833316 0
  endloop
endfacet
facet normal 0 0 1
  outer loop
    vertex -0.5 0.2692307692314094 0
    vertex -0.5 0.1923076923085458 0
    vertex -0.4364845979729692 0.2444109336790088 0
  endloop
endfacet
facet normal 0 0 1
  outer loop
    vertex 0.03846153846281875 0.5 0
    vertex 0.009047647842040938 0.4377942415067849 0
    vertex 0.08137516002913005 0.4391529945872208 0
  endloop
endfacet
facet normal 0 0 1
  outer loop
    vertex -0.1923076923085458 -0.5 0
    vertex -0.1153846153856822 -0.5 0
    vertex -0.1574470944963446 -0.4487545841705347 0
  endloop
endfacet
facet normal 0 0 1
  outer loop
    vertex 0.4 -0.03 0
    vertex 0.3912247693143248 -0.1078823266626378 0
    vertex 0.4455711876110029 -0.07187947240844204 0
  endloop
endfacet
facet normal 0 -0 1
  outer loop
    vertex 0.2692307692301292 -0.5 0
    vertex 0.3155596687261281 -0.4288962128338071 0
    vertex 0.2461876366031855 -0.4428500213976954 0
  endloop
endfacet
facet normal 0 0 1
  outer loop
    vertex -0.02788232710471139 0.3112247692134243 0
    vertex 0.05 0.32 0
    vertex -0.009816128314234337 0.3755253948898604 0
  endloop
endfacet
facet normal 0 -0 1
  outer loop
    vertex 0.5 -0.1153846153856822 0
    vertex 0.5 -0.03846153846281875 0
    vertex 0.4455711876110029 -0.07187947240844204 0
  endloop
endfacet
facet normal 0 0 1
  outer loop
    vertex -0.358243756129958 -0.361211532372971 0
    vertex -0.3099535032092995 -0.4346637899107717 0
    vertex -0.2827979423301594 -0.3745828598870516 0
  endloop
endfacet
facet normal 0 0 1
  outer loop
    vertex 0.5 0.1153846153835486 0
    vertex 0.4399834194811294 0.1583303783828666 0
    vertex 0.4407380964619735 0.08948804670974826 0
  endloop
endfacet
facet normal 0 0 1
  outer loop
    vertex -0.4361282667291528 -0.3844522036923652 0
    vertex -0.5 -0.4230769230767096 0
    vertex -0.4436883994180074 -0.4436883994178929 0
  endloop
endfacet
facet normal 0 0 1
  outer loop
    vertex -0.3832674044237633 0.4366733134969063 0
    vertex -0.4230769230767096 0.5 0
    vertex -0.443688399417893 0.4436883994180074 0
  endloop
endfacet
facet normal 0 0 1
  outer loop
    vertex 0.5 -0.4230769230771365 0
    vertex 0.4417433340798587 -0.3909319214555511 0
    vertex 0.4436883994175499 -0.4436883994176642 0
  endloop
endfacet
facet normal 0 0 1
  outer loop
    vertex 0.3111510855872622 0.4349538371301417 0
    vertex 0.2307692307699776 0.4333826612475358 0
    vertex 0.2692307692314093 0.3842937115074775 0
  endloop
endfacet
facet normal 0 0 1
  outer loop
    vertex -0.3754946286269154 0.2172442938163857 0
    vertex -0.4356202424779317 0.1631978943288868 0
    vertex -0.3758801045839965 0.1530244656593176 0
  endloop
endfacet
facet normal 0 0 1
  outer loop
    vertex 0.3912247692170108 0.0478823270889982 0
    vertex 0.4 -0.03 0
    vertex 0.4442571728171038 0.01123984743589111 0
  endloop
endfacet
facet normal 0 0 1
  outer loop
    vertex -0.1923076923068389 0.5 0
    vertex -0.2692307692301292 0.5 0
    vertex -0.2296868597676666 0.4519055112683819 0
  endloop
endfacet
facet normal 0 0 1
  outer loop
    vertex -0.5 -0.1923076923068389 0
    vertex -0.5 -0.2692307692301292 0
    vertex -0.4500115174909833 -0.2307375974875879 0
  endloop
endfacet
facet normal 0 0 1
  outer loop
    vertex 0.08137516002913005 0.4391529945872208 0
    vertex 0.009047647842040938 0.4377942415067849 0
    vertex 0.05104668888303861 0.3881247910537751 0
  endloop
endfacet
facet normal 0 -0 1
  outer loop
    vertex -0.4230769230771365 -0.5 0
    vertex -0.384426774939912 -0.4349335602736411 0
    vertex -0.4436883994180074 -0.4436883994178929 0
  endloop
endfacet
facet normal 0 -0 1
  outer loop
    vertex -0.2827979423301594 -0.3745828598870516 0
    vertex -0.2404963785683468 -0.3209285771382024 0
    vertex -0.2998263214687826 -0.3020030766833316 0
  endloop
endfacet
facet normal 0 0 1
  outer loop
    vertex 0.3903992802922023 -0.4398719738655306 0
    vertex 0.4230769230767096 -0.5 0
    vertex 0.4436883994175499 -0.4436883994176642 0
  endloop
endfacet
facet normal -0 0 1
  outer loop
    vertex -0.5 0.4230769230771365 0
    vertex -0.435472185668925 0.3874568634205662 0
    vertex -0.443688399417893 0.4436883994180074 0
  endloop
endfacet
facet normal 0 0 1
  outer loop
    vertex -0.2307692307699776 -0.4333826612475358 0
    vertex -0.1614854727763844 -0.3880423776054598 0
    vertex -0.2269282524456947 -0.3775654167887614 0
  endloop
endfacet
facet normal 0 0 1
  outer loop
    vertex 0.4230769230771365 0.5 0
    vertex 0.3847751156515728 0.4351734119307951 0
    vertex 0.4436930818698112 0.4436930818696967 0
  endloop
endfacet
facet normal 0 0 1
  outer loop
    vertex 0.4356887246643834 0.3824647074754701 0
    vertex 0.5 0.4230769230767096 0
    vertex 0.4436930818698112 0.4436930818696967 0
  endloop
endfacet
facet normal 0 0 1
  outer loop
    vertex -0.2827979423301594 -0.3745828598870516 0
    vertex -0.2307692307699776 -0.4333826612475358 0
    vertex -0.2269282524456947 -0.3775654167887614 0
  endloop
endfacet
facet normal 0 0 1
  outer loop
    vertex 0.4407380964619735 0.08948804670974826 0
    vertex 0.3912247692170108 0.0478823270889982 0
    vertex 0.4442571728171038 0.01123984743589111 0
  endloop
endfacet
facet normal 0 -0 1
  outer loop
    vertex 0.5 0.1923076923068389 0
    vertex 0.5 0.2692307692301292 0
    vertex 0.455715318529715 0.2307692307684841 0
  endloop
endfacet
facet normal 0 0 1
  outer loop
    vertex -0.4346580497790865 0.001984039510397237 0
    vertex -0.4338220780811787 -0.0712957579560313 0
    vertex -0.3875227840164952 -0.0315786216491443 0
  endloop
endfacet
facet normal 0 0 1
  outer loop
    vertex 0.009047647842040938 0.4377942415067849 0
    vertex -0.009816128314234337 0.3755253948898604 0
    vertex 0.05104668888303861 0.3881247910537751 0
  endloop
endfacet
facet normal 0 0 1
  outer loop
    vertex 0.3155596687261281 -0.4288962128338071 0
    vertex 0.259432196062353 -0.3815357815572944 0
    vertex 0.2461876366031855 -0.4428500213976954 0
  endloop
endfacet
facet normal 0 0 1
  outer loop
    vertex -0.384426774939912 -0.4349335602736411 0
    vertex -0.4361282667291528 -0.3844522036923652 0
    vertex -0.4436883994180074 -0.4436883994178929 0
  endloop
endfacet
facet normal 0 0 1
  outer loop
    vertex 0.4417433340798587 -0.3909319214555511 0
    vertex 0.3903992802922023 -0.4398719738655306 0
    vertex 0.4436883994175499 -0.4436883994176642 0
  endloop
endfacet
facet normal 0 -0 1
  outer loop
    vertex -0.435472185668925 0.3874568634205662 0
    vertex -0.3832674044237633 0.4366733134969063 0
    vertex -0.443688399417893 0.4436883994180074 0
  endloop
endfacet
facet normal -0 0 1
  outer loop
    vertex 0.3847751156515728 0.4351734119307951 0
    vertex 0.4356887246643834 0.3824647074754701 0
    vertex 0.4436930818698112 0.4436930818696967 0
  endloop
endfacet
facet normal -0 0 1
  outer loop
    vertex -0.4338220780811787 -0.0712957579560313 0
    vertex -0.3634917187116767 -0.09321030186644907 0
    vertex -0.3875227840164952 -0.0315786216491443 0
  endloop
endfacet
facet normal 0 0 1
  outer loop
    vertex -0.3142996949577652 -0.2363684012743636 0
    vertex -0.3612884410963688 -0.2940792651034356 0
    vertex -0.2998263214687826 -0.3020030766833316 0
  endloop
endfacet
facet normal 0 0 1
  outer loop
    vertex -0.3626145154567009 0.02838480365171141 0
    vertex -0.4346580497790865 0.001984039510397237 0
    vertex -0.3875227840164952 -0.0315786216491443 0
  endloop
endfacet
facet normal 0 -0 1
  outer loop
    vertex 0.3903992802922023 -0.4398719738655306 0
    vertex 0.4417433340798587 -0.3909319214555511 0
    vertex 0.3797068343716075 -0.3733018933303975 0
  endloop
endfacet
facet normal -0 0 1
  outer loop
    vertex -0.009816128314234337 0.3755253948898604 0
    vertex 0.05 0.32 0
    vertex 0.05104668888303861 0.3881247910537751 0
  endloop
endfacet
facet normal 0 0 1
  outer loop
    vertex 0.110353527556092 0.3762974771531949 0
    vertex 0.08137516002913005 0.4391529945872208 0
    vertex 0.05104668888303861 0.3881247910537751 0
  endloop
endfacet
facet normal 0 0 1
  outer loop
    vertex -0.2404963785683468 -0.3209285771382024 0
    vertex -0.2827979423301594 -0.3745828598870516 0
    vertex -0.2269282524456947 -0.3775654167887614 0
  endloop
endfacet
endsolid Created by Gmsh
